<svg xmlns="http://www.w3.org/2000/svg" width="22" height="21.995" viewBox="0 0 22 21.995">
  <path id="Path_489" data-name="Path 489" d="M11-8.46A5.63,5.63,0,0,0,5.361-2.821,5.63,5.63,0,0,0,11,2.819a5.63,5.63,0,0,0,5.639-5.639A5.63,5.63,0,0,0,11-8.46ZM11,.845A3.673,3.673,0,0,1,7.334-2.821,3.67,3.67,0,0,1,11-6.487a3.67,3.67,0,0,1,3.666,3.666A3.673,3.673,0,0,1,11,.845Zm7.185-9.536a1.315,1.315,0,0,0-1.315-1.315,1.315,1.315,0,0,0-1.315,1.315A1.312,1.312,0,0,0,16.87-7.375,1.312,1.312,0,0,0,18.185-8.691ZM21.92-7.356a6.509,6.509,0,0,0-1.777-4.609,6.552,6.552,0,0,0-4.609-1.777c-1.816-.1-7.259-.1-9.075,0a6.542,6.542,0,0,0-4.609,1.772A6.531,6.531,0,0,0,.075-7.361c-.1,1.816-.1,7.259,0,9.075A6.509,6.509,0,0,0,1.852,6.323,6.561,6.561,0,0,0,6.46,8.1c1.816.1,7.259.1,9.075,0a6.509,6.509,0,0,0,4.609-1.777A6.552,6.552,0,0,0,21.92,1.714C22.023-.1,22.023-5.54,21.92-7.356ZM19.574,3.663a3.712,3.712,0,0,1-2.091,2.091C16.036,6.328,12.6,6.2,11,6.2s-5.04.128-6.483-.442A3.712,3.712,0,0,1,2.426,3.663c-.574-1.448-.442-4.883-.442-6.483s-.128-5.04.442-6.483a3.712,3.712,0,0,1,2.091-2.091c1.448-.574,4.883-.442,6.483-.442s5.041-.128,6.483.442A3.712,3.712,0,0,1,19.574-9.3c.574,1.448.442,4.883.442,6.483S20.148,2.22,19.574,3.663Z" transform="translate(0.002 13.818)" fill="#374349"/>
</svg>
