<svg xmlns="http://www.w3.org/2000/svg" width="23.03" height="23.03" viewBox="0 0 23.03 23.03">
  <path id="Icon_awesome-line" data-name="Icon awesome-line" d="M13.988,11.1v3.655a.162.162,0,0,1-.165.165h-.586a.17.17,0,0,1-.134-.067l-1.676-2.262v2.169a.162.162,0,0,1-.165.165h-.586a.162.162,0,0,1-.165-.165V11.107a.162.162,0,0,1,.165-.165h.581a.155.155,0,0,1,.134.072l1.676,2.262V11.107a.162.162,0,0,1,.165-.165h.586A.163.163,0,0,1,13.988,11.1Zm-4.215-.165H9.186a.162.162,0,0,0-.165.165v3.655a.162.162,0,0,0,.165.165h.586a.162.162,0,0,0,.165-.165V11.1A.166.166,0,0,0,9.772,10.938ZM8.359,14H6.76V11.1a.162.162,0,0,0-.165-.165H6.009a.162.162,0,0,0-.165.165v3.655a.151.151,0,0,0,.046.113A.173.173,0,0,0,6,14.917H8.354a.162.162,0,0,0,.165-.165v-.586A.165.165,0,0,0,8.359,14Zm8.713-3.064H14.723a.166.166,0,0,0-.165.165v3.655a.166.166,0,0,0,.165.165h2.349a.162.162,0,0,0,.165-.165v-.586a.162.162,0,0,0-.165-.165h-1.6V13.39h1.6a.162.162,0,0,0,.165-.165v-.591a.162.162,0,0,0-.165-.165h-1.6v-.617h1.6a.162.162,0,0,0,.165-.165V11.1A.173.173,0,0,0,17.072,10.938ZM23.03,6.45V21.116a4.187,4.187,0,0,1-4.2,4.164H4.164A4.19,4.19,0,0,1,0,21.08V6.414A4.19,4.19,0,0,1,4.2,2.25H18.866A4.187,4.187,0,0,1,23.03,6.45Zm-3.167,6.3c0-3.753-3.763-6.806-8.384-6.806S3.095,9,3.095,12.752c0,3.362,2.982,6.179,7.012,6.714.982.211.869.571.648,1.892-.036.211-.17.828.725.452a27.1,27.1,0,0,0,6.59-4.868A6.073,6.073,0,0,0,19.864,12.752Z" transform="translate(0 -2.25)"/>
</svg>
