<?xml version="1.0" encoding="utf-8"?>
<!-- Generator: Adobe Illustrator 25.0.0, SVG Export Plug-In . SVG Version: 6.00 Build 0)  -->
<svg version="1.1" id="Layer_1" xmlns="http://www.w3.org/2000/svg" xmlns:xlink="http://www.w3.org/1999/xlink" x="0px" y="0px"
	 viewBox="0 0 22 22" style="enable-background:new 0 0 22 22;" xml:space="preserve">
<style type="text/css">
	.st0{fill-rule:evenodd;clip-rule:evenodd;}
</style>
<path class="st0" d="M0,0v22h22V0H0z M15.6,17.8c-0.6,0.3-1.2,0.5-1.8,0.7c-0.5,0.1-1.1,0.2-1.7,0.2c-0.5,0-1.1-0.1-1.8-0.3
	c-0.6-0.2-1-0.5-1.3-0.8c-0.4-0.4-0.7-0.7-0.8-1C8.1,16.1,8,15.6,8,15V9.7H6.4V7.5c0.5-0.2,1-0.5,1.5-0.9c0.5-0.4,0.8-0.8,1-1.3
	c0.2-0.4,0.3-1,0.5-2h2.1v3.9H15v2.3h-3.5v3.9c0,0.9,0.1,1.4,0.2,1.7c0,0.2,0.2,0.4,0.5,0.6c0.4,0.2,0.8,0.3,1.2,0.3
	c0.7,0,1.5-0.3,2.3-0.8L15.6,17.8L15.6,17.8z"/>
</svg>
