<svg id="icons_Q2" data-name="icons Q2" xmlns="http://www.w3.org/2000/svg" width="17.442" height="17.092" viewBox="0 0 17.442 17.092">
  <path id="Path_490" data-name="Path 490" d="M15.359,14.23a6.257,6.257,0,0,0,1.294-4.647A6.522,6.522,0,0,0,10.7,3.956,6.407,6.407,0,1,0,9.407,16.7a6.656,6.656,0,0,0,4.744-1.236l5.391,5.286a.826.826,0,0,0,1.208,0h0a.8.8,0,0,0,0-1.194ZM11,15a4.778,4.778,0,0,1-4.146-1.338,4.677,4.677,0,0,1,2.55-7.913A4.736,4.736,0,0,1,13.586,7.03a4.613,4.613,0,0,1,1.3,4.131A4.76,4.76,0,0,1,11,15Z" transform="translate(-3.574 -3.924)" fill="#4fbac4"/>
</svg>
