<?xml version="1.0" encoding="utf-8"?>
<!-- Generator: Adobe Illustrator 25.0.0, SVG Export Plug-In . SVG Version: 6.00 Build 0)  -->
<svg version="1.1" id="Layer_1" xmlns="http://www.w3.org/2000/svg" xmlns:xlink="http://www.w3.org/1999/xlink" x="0px" y="0px"
	 viewBox="0 0 22 22" style="enable-background:new 0 0 22 22;" xml:space="preserve">
<g id="XMLID_822_">
	<path id="XMLID_823_" d="M21.1,4.6c-0.8-0.9-2.3-1.3-5.1-1.3H5.9c-2.9,0-4.4,0.4-5.1,1.4C0,5.7,0,7.1,0,9.1v3.8
		c0,3.9,0.9,5.8,5.9,5.8h10.2c2.4,0,3.8-0.3,4.6-1.2c0.9-0.9,1.3-2.2,1.3-4.7V9.1C22,7,21.9,5.5,21.1,4.6z M14.1,11.5l-4.6,2.4
		C9.4,14,9.3,14,9.2,14c-0.1,0-0.3,0-0.4-0.1c-0.2-0.1-0.3-0.4-0.3-0.6V8.5c0-0.2,0.1-0.5,0.3-0.6c0.2-0.1,0.5-0.1,0.7,0l4.6,2.4
		c0.2,0.1,0.4,0.4,0.4,0.6C14.5,11.2,14.4,11.4,14.1,11.5z"/>
</g>
</svg>
