<svg xmlns="http://www.w3.org/2000/svg" width="30" height="29.993" viewBox="0 0 30 29.993">
  <path id="Path_489" data-name="Path 489" d="M15-6.512a7.678,7.678,0,0,0-7.69,7.69,7.69,7.69,0,0,0,15.38,0A7.678,7.678,0,0,0,15-6.512ZM15,6.178a5.008,5.008,0,0,1-5-5,5,5,0,1,1,10,0A5.008,5.008,0,0,1,15,6.178Zm9.8-13A1.794,1.794,0,0,0,23.005-8.62a1.794,1.794,0,0,0-1.794,1.794,1.789,1.789,0,0,0,1.794,1.794A1.789,1.789,0,0,0,24.8-6.826Zm5.093,1.82a8.876,8.876,0,0,0-2.423-6.284,8.935,8.935,0,0,0-6.284-2.423c-2.476-.141-9.9-.141-12.375,0A8.921,8.921,0,0,0,2.526-11.3,8.9,8.9,0,0,0,.1-5.012c-.141,2.476-.141,9.9,0,12.375a8.876,8.876,0,0,0,2.423,6.284A8.946,8.946,0,0,0,8.81,16.07c2.476.141,9.9.141,12.375,0a8.876,8.876,0,0,0,6.284-2.423,8.935,8.935,0,0,0,2.423-6.284C30.033,4.886,30.033-2.529,29.892-5.006Zm-3.2,15.025a5.061,5.061,0,0,1-2.851,2.851c-1.974.783-6.659.6-8.841.6s-6.873.174-8.841-.6a5.061,5.061,0,0,1-2.851-2.851c-.783-1.974-.6-6.659-.6-8.841s-.174-6.873.6-8.841A5.061,5.061,0,0,1,6.16-10.514c1.974-.783,6.659-.6,8.841-.6s6.873-.174,8.841.6a5.061,5.061,0,0,1,2.851,2.851c.783,1.974.6,6.659.6,8.841S27.476,8.052,26.693,10.019Z" transform="translate(0.002 13.818)" fill="#fff"/>
</svg>
