<?xml version="1.0" encoding="utf-8"?>
<!-- Generator: Adobe Illustrator 25.0.0, SVG Export Plug-In . SVG Version: 6.00 Build 0)  -->
<svg version="1.1" id="Layer_1" xmlns="http://www.w3.org/2000/svg" xmlns:xlink="http://www.w3.org/1999/xlink" x="0px" y="0px"
	 viewBox="0 0 22 22" style="enable-background:new 0 0 22 22;" xml:space="preserve">
<g>
	<g>
		<path d="M16.5,0h-11C2.5,0,0,2.5,0,5.5v11c0,3,2.5,5.5,5.5,5.5h11c3,0,5.5-2.5,5.5-5.5v-11C22,2.5,19.5,0,16.5,0z M4.3,13.3
			C4.3,13.3,4.3,13.4,4.3,13.3c-0.1,0.1-0.1,0-0.1,0l-0.1-0.8l0.1-0.8c0,0,0-0.1,0.1-0.1c0,0,0.1,0,0.1,0.1l0.1,0.8L4.3,13.3z
			 M4.9,13.8C4.9,13.8,4.8,13.8,4.9,13.8c-0.1,0.1-0.1,0-0.1,0l-0.1-1.3l0.1-1.3c0,0,0-0.1,0.1-0.1c0,0,0.1,0,0.1,0.1L5,12.5
			L4.9,13.8z M5.4,14C5.4,14.1,5.4,14.1,5.4,14c-0.1,0.1-0.1,0-0.1,0l-0.1-1.5l0.1-1.6c0,0,0-0.1,0.1-0.1c0,0,0.1,0,0.1,0.1l0.1,1.6
			L5.4,14z M6,14.1C6,14.1,5.9,14.2,6,14.1c-0.1,0.1-0.2,0.1-0.2,0l-0.1-1.6l0.1-1.6c0-0.1,0-0.1,0.1-0.1c0.1,0,0.1,0,0.1,0.1
			l0.1,1.6L6,14.1z M6.5,14.1c0,0.1,0,0.1-0.1,0.1c-0.1,0-0.1,0-0.1-0.1l-0.1-1.6L6.4,11c0-0.1,0-0.1,0.1-0.1c0.1,0,0.1,0,0.1,0.1
			l0.1,1.5L6.5,14.1z M7.2,14.1c0,0.1-0.1,0.1-0.1,0.1c-0.1,0-0.1-0.1-0.1-0.1l-0.1-1.6l0.1-2.4C6.9,10,6.9,10,7,10
			C7,10,7.1,10,7.1,10.1l0.2,2.4L7.2,14.1z M7.7,14.1c0,0.1-0.1,0.1-0.1,0.1c-0.1,0-0.1-0.1-0.1-0.1l-0.1-1.6l0.1-3
			c0-0.1,0.1-0.1,0.1-0.1c0.1,0,0.1,0.1,0.1,0.1l0.1,3L7.7,14.1z M8.2,14.1c0,0.1-0.1,0.1-0.1,0.1S8,14.1,8,14.1l-0.1-1.6L8,9.3
			C8,9.2,8,9.1,8.1,9.1s0.1,0.1,0.1,0.1l0.1,3.2L8.2,14.1z M8.8,14.1c0,0.1-0.1,0.1-0.1,0.1s-0.1-0.1-0.1-0.1l-0.1-1.5l0.1-3.3
			C8.5,9.1,8.6,9,8.7,9c0.1,0,0.1,0.1,0.1,0.1l0.1,3.3L8.8,14.1z M9.4,14c0,0.1-0.1,0.2-0.2,0.2c-0.1,0-0.1-0.1-0.2-0.2L9,12.5
			l0.1-3.3c0-0.1,0.1-0.2,0.2-0.2c0.1,0,0.2,0.1,0.2,0.2l0.1,3.3L9.4,14z M9.9,14c0,0.1-0.1,0.2-0.2,0.2c-0.1,0-0.2-0.1-0.2-0.2
			l-0.1-1.5l0.1-3.1c0-0.1,0.1-0.2,0.2-0.2c0.1,0,0.2,0.1,0.2,0.2l0.1,3.1L9.9,14z M10.6,14c0,0.1-0.1,0.2-0.2,0.2
			c-0.1,0-0.2-0.1-0.2-0.2l-0.1-1.5l0.1-3.8c0-0.1,0.1-0.2,0.2-0.2c0.1,0,0.2,0.1,0.2,0.2l0.1,3.8L10.6,14z M11.2,14
			c0,0.1-0.1,0.2-0.2,0.2c-0.1,0-0.2-0.1-0.2-0.2l-0.1-1.5l0.1-4.1c0-0.1,0.1-0.2,0.2-0.2c0.1,0,0.2,0.1,0.2,0.2l0.1,4.1L11.2,14z
			 M16.2,14.2c0,0-4.7,0-4.7,0c-0.1,0-0.2-0.1-0.2-0.2V8.2c0-0.1,0-0.2,0.1-0.2c0.3-0.1,0.7-0.2,1.1-0.2c1.6,0,2.8,1.3,3,2.9
			c0.2-0.1,0.4-0.1,0.6-0.1c0.9,0,1.7,0.8,1.7,1.8C17.8,13.4,17.1,14.2,16.2,14.2z"/>
	</g>
</g>
</svg>
