<?xml version="1.0" encoding="utf-8"?>
<!-- Generator: Adobe Illustrator 25.0.0, SVG Export Plug-In . SVG Version: 6.00 Build 0)  -->
<svg version="1.1" id="Capa_1" xmlns="http://www.w3.org/2000/svg" xmlns:xlink="http://www.w3.org/1999/xlink" x="0px" y="0px"
	 viewBox="0 0 22 22" style="enable-background:new 0 0 22 22;" xml:space="preserve">
<path d="M19.7,0H2.3C1,0,0,1.1,0,2.3v17.3C0,20.9,1,22,2.3,22h17.3c1.3,0,2.3-1,2.3-2.3V2.3C22,1.1,21,0,19.7,0z M14.3,3.9
	c1.2,0,2.2,1,2.2,2.2c0,1.2-1,2.2-2.2,2.2c-1.2,0-2.2-1-2.2-2.2C12.1,4.9,13.1,3.9,14.3,3.9z M9.8,4.7c0.9,0,1.7,0.8,1.7,1.7
	c0,0.9-0.8,1.7-1.7,1.7c-0.9,0-1.7-0.8-1.7-1.7C8.1,5.4,8.9,4.7,9.8,4.7z M6.5,5.2c0.6,0,1.2,0.5,1.2,1.2c0,0.6-0.5,1.2-1.2,1.2
	S5.4,7,5.4,6.4C5.4,5.8,5.9,5.2,6.5,5.2z M17.3,17.5c0,0.3-0.2,0.5-0.5,0.5h-5.2c-0.3,0-0.5-0.2-0.5-0.5v-2.6H7.6
	c-0.3,0-0.5-0.2-0.5-0.5v-1.8H5.2c-0.3,0-0.5-0.2-0.5-0.5V9.8c0-1.1,0.9-2,2-2c0.8,0,1.5,0.5,1.8,1.2c0.4-0.2,0.9-0.4,1.4-0.4
	c1,0,1.9,0.6,2.4,1.5c0.5-0.4,1.2-0.7,1.9-0.7c1.7,0,3.1,1.4,3.1,3.1V17.5L17.3,17.5z"/>
</svg>
