<?xml version="1.0" encoding="utf-8"?>
<!-- Generator: Adobe Illustrator 25.0.0, SVG Export Plug-In . SVG Version: 6.00 Build 0)  -->
<svg version="1.1" id="Layer_1" xmlns="http://www.w3.org/2000/svg" xmlns:xlink="http://www.w3.org/1999/xlink" x="0px" y="0px"
	 viewBox="0 0 22 22" style="enable-background:new 0 0 22 22;" xml:space="preserve">
<g id="XMLID_801_">
	<path id="XMLID_802_" d="M5.1,7.1H0.7c-0.2,0-0.4,0.2-0.4,0.4v14.2c0,0.2,0.2,0.4,0.4,0.4h4.4c0.2,0,0.4-0.2,0.4-0.4V7.4
		C5.5,7.2,5.3,7.1,5.1,7.1z"/>
	<path id="XMLID_803_" d="M2.9,0C1.3,0,0,1.3,0,2.9c0,1.6,1.3,2.9,2.9,2.9c1.6,0,2.9-1.3,2.9-2.9C5.8,1.3,4.5,0,2.9,0z"/>
	<path id="XMLID_804_" d="M16.4,6.7c-1.8,0-3.1,0.8-3.9,1.6V7.4c0-0.2-0.2-0.4-0.4-0.4H7.9c-0.2,0-0.4,0.2-0.4,0.4v14.2
		c0,0.2,0.2,0.4,0.4,0.4h4.4c0.2,0,0.4-0.2,0.4-0.4v-7c0-2.4,0.6-3.3,2.3-3.3c1.8,0,1.9,1.5,1.9,3.4v6.9c0,0.2,0.2,0.4,0.4,0.4h4.4
		c0.2,0,0.4-0.2,0.4-0.4v-7.8C22,10.3,21.3,6.7,16.4,6.7z"/>
</g>
</svg>
