<svg xmlns="http://www.w3.org/2000/svg" width="22" height="17.868" viewBox="0 0 22 17.868">
  <path id="Path_487" data-name="Path 487" d="M22.442-10.735a9.04,9.04,0,0,1-2.6.7,4.5,4.5,0,0,0,1.982-2.485,8.876,8.876,0,0,1-2.862,1.089,4.5,4.5,0,0,0-3.294-1.424,4.507,4.507,0,0,0-4.509,4.509,5.089,5.089,0,0,0,.112,1.033,12.816,12.816,0,0,1-9.3-4.718,4.475,4.475,0,0,0-.614,2.275A4.506,4.506,0,0,0,3.373-6a4.541,4.541,0,0,1-2.038-.572v.056A4.509,4.509,0,0,0,4.951-2.094a4.767,4.767,0,0,1-1.187.154,5.682,5.682,0,0,1-.852-.07A4.517,4.517,0,0,0,7.129,1.116a9.03,9.03,0,0,1-5.6,1.926A9.322,9.322,0,0,1,.442,2.987,12.741,12.741,0,0,0,7.366,5.011,12.741,12.741,0,0,0,20.195-7.818c0-.2,0-.391-.014-.586A9.693,9.693,0,0,0,22.442-10.735Z" transform="translate(-0.442 12.857)" fill="#374349"/>
</svg>
