<svg xmlns="http://www.w3.org/2000/svg" width="141" height="398" viewBox="0 0 141 398">
  <g id="Group_9" data-name="Group 9" transform="translate(-1501.683 -307)">
    <rect id="Rectangle_9" data-name="Rectangle 9" width="398" height="44" transform="translate(1642.683 307) rotate(90)" fill="#4fbac4"/>
    <rect id="Rectangle_10" data-name="Rectangle 10" width="320" height="46" transform="translate(1595.683 307) rotate(90)" fill="#4fbac4"/>
    <rect id="Rectangle_11" data-name="Rectangle 11" width="329" height="46" transform="translate(1547.683 307) rotate(90)" fill="#4fbac4"/>
    <g id="Group_8" data-name="Group 8" transform="translate(1513.734 320.484)">
      <g id="Group_8-2" data-name="Group 8" transform="translate(0 0)">
        <path id="Path_568" data-name="Path 568" d="M371.512,84.694c-.367.571-.693,1.046-1.015,1.488a.842.842,0,0,1-1.42-.087c-.151-.28-.317-.549-.518-.851a.839.839,0,0,1,.043-.985,31.25,31.25,0,0,0,5.082-9.386.839.839,0,0,1,1.047-.545l1.342.418c.215.071.381.237.381.38,0,.19-.1.379-.451.76a43.946,43.946,0,0,1-2,4.614.854.854,0,0,0-.094.385V94.939a.845.845,0,0,1-.845.845h-.709a.845.845,0,0,1-.845-.845Zm4.882,7.647h3.773a.845.845,0,0,0,.845-.845V84.281a.845.845,0,0,0-.845-.845H375.3a.845.845,0,0,1-.845-.845v-.424a.845.845,0,0,1,.845-.845h4.865a.845.845,0,0,0,.845-.845v-5.1a.843.843,0,0,1,.845-.845h.731a.843.843,0,0,1,.845.845v5.1a.845.845,0,0,0,.845.845h4.366a.845.845,0,0,1,.845.845v.424a.845.845,0,0,1-.845.845h-4.366a.845.845,0,0,0-.845.845V91.5a.845.845,0,0,0,.845.845h3.8a.844.844,0,0,1,.845.845v.471a.844.844,0,0,1-.845.845h-11.68a.845.845,0,0,1-.845-.845v-.471A.845.845,0,0,1,376.394,92.341Z" transform="translate(-273.968 -74.289)" fill="#fff"/>
        <path id="Path_569" data-name="Path 569" d="M370.133,116.7a.845.845,0,0,1,.845-.845h6.8v-.711h-8.8a.845.845,0,0,1-.845-.845v-.282a.845.845,0,0,1,.845-.845h8.8v-.711h-6.8a.845.845,0,0,1-.845-.845v-.282a.845.845,0,0,1,.845-.845h6.8v-.76H372.26a.845.845,0,0,1-.845-.845v-2.941a.845.845,0,0,1,.845-.845h5.519v-.759h-8.44a.845.845,0,0,1-.845-.845v-.282a.845.845,0,0,1,.845-.845h7.6a.845.845,0,0,0,.845-.845v-.067a.845.845,0,0,1,.845-.845h.637a.845.845,0,0,1,.845.845v.067a.845.845,0,0,0,.845.845h7.382a.845.845,0,0,1,.845.845v.282a.845.845,0,0,1-.845.845h-8.227v.759h5.519a.845.845,0,0,1,.845.845v2.941a.845.845,0,0,1-.845.845h-5.519v.76h5.781a.845.845,0,0,1,.845.845v.993a.844.844,0,0,0,.845.845h1.231a.845.845,0,0,1,.845.845v.282a.845.845,0,0,1-.845.845h-1.231a.845.845,0,0,0-.845.845v1.4a.845.845,0,0,1-.845.845h-1.411v-.4h-4.369v1.33c-.048,1.78-.665,2.4-2.66,2.683l-1.14.143a7.749,7.749,0,0,0-1.069-2.66h1.947c.4,0,.594-.19.594-.617v-.879h-6.8a.845.845,0,0,1-.845-.845Zm3.514-9.8v1.02h4.133v-1.02Zm6.459,0v1.02h4.131v-1.02Zm0,5.557v.711h4.369v-.711Zm0,2.683v.711h4.369v-.711Z" transform="translate(-274.013 -70.063)" fill="#fff"/>
        <path id="Path_570" data-name="Path 570" d="M378.939,127.318c.284.023.475.118.475.284a.769.769,0,0,1-.143.309l-.261.451a21.539,21.539,0,0,0-.475,3.8v.428a10.336,10.336,0,0,0,.08,1.387.84.84,0,0,0,1.1.689c1.412-.465,3.211-.984,4.892-1.387a.841.841,0,0,1,.982.53l.325.874a.849.849,0,0,1-.626,1.122,49.735,49.735,0,0,0-6.014,1.533c-4.2,1.4-6.15,2.731-6.15,4.274a1.829,1.829,0,0,0,1,1.615c.854.475,2.279.688,4.844.688h2.944a23.711,23.711,0,0,0,3.706-.317.842.842,0,0,1,.942,1.034,6.94,6.94,0,0,0-.123.759.826.826,0,0,1-.771.717c-1.28.09-2.64.158-3.635.158h-4.18c-4.749,0-7.314-1.591-7.314-4.583,0-2.342,1.446-3.867,5.34-5.6a.837.837,0,0,0,.463-1.051,7.059,7.059,0,0,1-.46-2.47v-.4c0-1.21.071-2.526.229-4.163a.85.85,0,0,1,.878-.766Z" transform="translate(-273.629 -65.791)" fill="#fff"/>
        <path id="Path_571" data-name="Path 571" d="M371.668,161.557a20.893,20.893,0,0,1-1.207,1.77.849.849,0,0,1-1.288.06,7.266,7.266,0,0,0-.547-.529.846.846,0,0,1-.08-1.178,22.787,22.787,0,0,0,4.623-8.913.85.85,0,0,1,1.09-.558l1.255.442c.262.1.428.238.428.381,0,.166-.12.309-.451.522a34.147,34.147,0,0,1-1.332,3.587.881.881,0,0,0-.07.335v15.156a.845.845,0,0,1-.845.845h-.731a.844.844,0,0,1-.845-.845Zm4-4.108h4.6a.845.845,0,0,0,.845-.845V153.07a.844.844,0,0,1,.845-.845h.708a.845.845,0,0,1,.845.845V156.6a.845.845,0,0,0,.845.845H388.7a.845.845,0,0,1,.845.845v.447a.845.845,0,0,1-.845.845H385a.85.85,0,0,0-.739,1.263,20.42,20.42,0,0,0,4.921,6.15.86.86,0,0,1,.2,1.151c-.117.18-.225.364-.344.59a.853.853,0,0,1-1.317.249,17.85,17.85,0,0,1-2.684-2.958.843.843,0,0,0-1.521.5v6.1a.845.845,0,0,1-.845.845h-.708a.844.844,0,0,1-.845-.845v-5.991a.844.844,0,0,0-1.508-.522,27.1,27.1,0,0,1-2.741,2.931.855.855,0,0,1-1.31-.162,5.934,5.934,0,0,0-.426-.6.853.853,0,0,1,.12-1.193,19.117,19.117,0,0,0,5.064-6.264.852.852,0,0,0-.747-1.249h-3.9a.845.845,0,0,1-.845-.845v-.447A.845.845,0,0,1,375.67,157.449Z" transform="translate(-273.98 -61.789)" fill="#fff"/>
        <path id="Path_572" data-name="Path 572" d="M374.455,180.667v14.269a.845.845,0,0,1-.845.845h-.353a.845.845,0,0,1-.845-.845v-.818H370.8V195.6a.845.845,0,0,1-.845.845h-.377a.845.845,0,0,1-.845-.845V180.667a.845.845,0,0,1,.845-.845h4.034A.845.845,0,0,1,374.455,180.667Zm-3.657,1.126V186h1.614v-4.2Zm0,6.174v4.18h1.614v-4.18Zm5.285-9.141h4.627a.845.845,0,0,1,.845.845v5.363a.845.845,0,0,1-.845.845h-2.371a.845.845,0,0,0-.845.845v.921a.845.845,0,0,0,.845.845h2.039a.845.845,0,0,1,.845.845v.282a.845.845,0,0,1-.845.845h-2.039a.845.845,0,0,0-.845.845v.923a.845.845,0,0,0,.845.845h2.039a.844.844,0,0,1,.845.845v.281a.845.845,0,0,1-.845.845h-2.039a.845.845,0,0,0-.845.845v2.87a.845.845,0,0,1-.845.845h-.566a.845.845,0,0,1-.845-.845V179.67A.845.845,0,0,1,376.083,178.825Zm1.411,2.791v1.445a.845.845,0,0,0,.845.845h.067a.845.845,0,0,0,.845-.845v-1.445a.845.845,0,0,0-.845-.845h-.067A.845.845,0,0,0,377.494,181.616Zm3.918,6.174a.845.845,0,0,1,.845-.845h4.688l.57-.332,1.615,1.235c.166.118.237.238.237.333,0,.139-.084.295-.32.565a.909.909,0,0,0-.2.4,15.093,15.093,0,0,1-2.046,5.285.861.861,0,0,0,.144,1.082,9.524,9.524,0,0,0,1.882,1.448.843.843,0,0,1,.247,1.273,5.3,5.3,0,0,0-.374.5.843.843,0,0,1-1.182.224,10.048,10.048,0,0,1-1.981-1.757.855.855,0,0,0-1.181-.092,12.523,12.523,0,0,1-3.8,2.273.828.828,0,0,1-.96-.339,3.845,3.845,0,0,0-.31-.414.841.841,0,0,1,.344-1.337,10.231,10.231,0,0,0,3.588-2.016.861.861,0,0,0,.2-1.038,17.051,17.051,0,0,1-1.571-5.316h-.427Zm1.8-3.884h2.371a.845.845,0,0,0,.845-.845v-1.445a.845.845,0,0,0-.845-.845h-2.371a.843.843,0,0,1-.845-.845v-.256a.844.844,0,0,1,.845-.845h4.627a.845.845,0,0,1,.845.845v5.363a.845.845,0,0,1-.845.845h-4.627a.844.844,0,0,1-.845-.845v-.282A.844.844,0,0,1,383.207,183.906Zm.747,6.021a11.554,11.554,0,0,0,.417,1.533.849.849,0,0,0,1.586.049,8.678,8.678,0,0,0,.5-1.57.847.847,0,0,0-.829-1.021h-.845A.843.843,0,0,0,383.955,189.926Z" transform="translate(-273.918 -57.51)" fill="#fff"/>
        <path id="Path_573" data-name="Path 573" d="M370.5,214.627a9.772,9.772,0,0,0,4.453-3.056.849.849,0,0,0-.7-1.378c-.651.031-1.344.052-2.109.066a.839.839,0,0,1-.84-.674c-.043-.218-.1-.431-.158-.641a.841.841,0,0,1,.845-1.077c.728.029,1.189.029,1.813.029.872,0,1.544-.014,2.156-.06a.843.843,0,0,0,.758-.62,13.61,13.61,0,0,0,.316-1.627.839.839,0,0,1,.974-.7l1.8.3c.214.048.356.167.356.309a.412.412,0,0,1-.213.333l-.38.284a9.32,9.32,0,0,1-.333,1.448,30.065,30.065,0,0,0,3.905-.685.849.849,0,0,1,1.055.767c.016.226.037.444.065.666a.853.853,0,0,1-.692.946c-1.6.283-3.064.471-4.527.612a.852.852,0,0,0-.693.5,9.588,9.588,0,0,1-1.251,2.037,6.566,6.566,0,0,1,1.924-.333,2.213,2.213,0,0,1,2.186,1.456.851.851,0,0,0,1.087.479,20.949,20.949,0,0,0,3.6-1.675.847.847,0,0,1,1.181.31l.895,1.614a.453.453,0,0,1,.071.237c0,.215-.189.333-.475.333h-.522c-1,.356-1.164.4-1.9.665-.379.142-.95.356-1.686.641l-1.282.475-.593.238v3.031a.85.85,0,0,1-.811.843c-.279.014-.528.032-.754.055a.844.844,0,0,1-.928-.84v-1.028a.848.848,0,0,0-1.176-.779c-2.517,1.064-3.336,1.823-3.336,2.945,0,.95,1.116,1.425,3.4,1.425h1.354a32.7,32.7,0,0,0,5.351-.509.844.844,0,0,1,.952,1.063c-.088.3-.159.585-.211.858a.818.818,0,0,1-.715.661,52.44,52.44,0,0,1-5.685.279h-1.924c-3.277,0-5.153-1.282-5.153-3.562a4.4,4.4,0,0,1,1.852-3.515,18.69,18.69,0,0,1,5.13-2.565c-.166-.736-.522-1.021-1.187-1.021-1.367,0-2.7.636-6.233,3.085a.849.849,0,0,1-1.315-.52l-.239-1.167A.853.853,0,0,1,370.5,214.627Z" transform="translate(-273.723 -53.328)" fill="#fff"/>
        <path id="Path_574" data-name="Path 574" d="M368.7,244.964a48.359,48.359,0,0,0,1.817-6.621.843.843,0,0,0-.826-1.018h-.586a.845.845,0,0,1-.845-.845v-.447a.844.844,0,0,1,.845-.845h1.165a.85.85,0,0,0,.839-.747c.2-1.581.28-2.441.336-3.449a.847.847,0,0,1,.948-.795l1.352.171c.309.048.5.166.5.355s-.143.381-.475.666L373.6,233.6l-.143,1.592h1.473l.332-.357,1.806.451c.45.12.711.309.711.5,0,.166-.166.332-.546.545-.368,4.068-.854,6.42-1.745,8.475a.853.853,0,0,0,.236,1c.618.5,1.136.953,1.85,1.622a.853.853,0,0,1,.073,1.166l-.485.577a.845.845,0,0,1-1.278.016,13.3,13.3,0,0,0-1.127-1.134.844.844,0,0,0-1.244.114,14.611,14.611,0,0,1-2.721,2.853.844.844,0,0,1-1.166-.129,3.694,3.694,0,0,0-.439-.433.854.854,0,0,1,.052-1.323,10.585,10.585,0,0,0,2.865-3.049,4.961,4.961,0,0,0-1.046-.547l-.379,1.163-1.532-.677A.847.847,0,0,1,368.7,244.964Zm4.323-6.945c-.36,1.918-.528,2.629-1.1,4.77a.848.848,0,0,0,.463,1l.033.015a.85.85,0,0,0,1.149-.465,25.31,25.31,0,0,0,1.27-6.009h-.984A.851.851,0,0,0,373.024,238.02Zm7.916,13.274a.848.848,0,0,1-.937-.552,9.5,9.5,0,0,0-.819-1.733h2.185c.4,0,.475-.071.475-.545v-5.092a.845.845,0,0,0-.845-.845h-3.177a.844.844,0,0,1-.845-.845v-.471a.844.844,0,0,1,.845-.845H381a.845.845,0,0,0,.845-.845v-3.643l1.206.22a.845.845,0,0,0,.8-.287c.23-.274.418-.5.583-.717a.844.844,0,0,0-.675-1.354H378.01a.845.845,0,0,1-.845-.845v-.424a.845.845,0,0,1,.845-.845h8.226l.714-.214,1.448,1.116c.261.214.379.356.379.45,0,.167-.166.333-.617.594a23.171,23.171,0,0,1-3.609,4.449.857.857,0,0,0-.261.608v.889a.845.845,0,0,0,.845.845h3.653a.845.845,0,0,1,.845.845v.471a.845.845,0,0,1-.845.845h-3.653a.845.845,0,0,0-.845.845v5.567c-.048,1.378-.475,1.9-1.781,2.113Z" transform="translate(-273.993 -49.265)" fill="#fff"/>
        <path id="Path_575" data-name="Path 575" d="M370.956,264.588c2.2-.164,4.408-.436,6.457-.793a.844.844,0,0,0,.615-1.181c-.067-.146-.13-.288-.188-.424a.835.835,0,0,0-.9-.5c-1.422.22-3.137.405-4.4.494a.844.844,0,0,1-.855-.562l-.222-.627a.843.843,0,0,1,.735-1.123c1.292-.093,2.564-.216,3.622-.354a.843.843,0,0,0,.688-1.087c-.081-.266-.153-.522-.222-.774a.846.846,0,0,1,.628-1.042l1.514-.353a1.081,1.081,0,0,1,.261-.023c.214,0,.309.1.309.309a.767.767,0,0,1-.048.19l-.12.38c.082.342.2.762.324,1.14a.844.844,0,0,0,.971.57c1.1-.226,2.138-.48,3.032-.749a.837.837,0,0,1,1.055.621l.159.692a.845.845,0,0,1-.613,1.008c-.81.211-1.714.418-2.544.581a.841.841,0,0,0-.585,1.217c.06.114.124.227.189.341a.855.855,0,0,0,.914.389c1.774-.378,3.326-.788,4.744-1.239a.837.837,0,0,1,1.011.427l.334.675a.846.846,0,0,1-.514,1.184c-1.177.361-2.5.721-3.8,1.035a.848.848,0,0,0-.484,1.317,25.731,25.731,0,0,0,2.078,2.586.844.844,0,0,1,.093,1.033l-.608.933a.85.85,0,0,1-1,.328,17.157,17.157,0,0,0-5.826-1.077c-2.755,0-4.3.831-4.3,2.3,0,1.424,1.235,2.232,3.443,2.232h3.064a21.42,21.42,0,0,0,3.13-.253.835.835,0,0,1,.918,1.126c-.093.226-.173.457-.244.693a.862.862,0,0,1-.738.629c-1.179.1-2.3.157-3.588.157h-2.542c-3.775,0-6.245-1.757-6.245-4.465,0-2.778,2.588-4.654,6.387-4.654a18.135,18.135,0,0,1,2.337.151.842.842,0,0,0,.827-1.293c-.092-.143-.182-.284-.269-.427a.841.841,0,0,0-.892-.395,75.859,75.859,0,0,1-7.64,1.076.844.844,0,0,1-.853-.5l-.321-.737A.844.844,0,0,1,370.956,264.588Z" transform="translate(-273.687 -45.084)" fill="#fff"/>
        <path id="Path_576" data-name="Path 576" d="M377.658,283.442c-.043.383-.094.736-.151,1.068a.838.838,0,0,0,.962.969c.277-.045.56-.1.847-.147a.843.843,0,0,1,.993.92l-.065.592a.839.839,0,0,1-.7.742c-.7.113-1.446.212-2.139.288a.832.832,0,0,0-.722.633,53.14,53.14,0,0,1-4.2,11.19.858.858,0,0,1-1.239.318c-.268-.175-.563-.35-.889-.529a.844.844,0,0,1-.324-1.15,42.857,42.857,0,0,0,3.848-8.988.845.845,0,0,0-.9-1.054c-.6.055-1.151.094-1.677.123a.845.845,0,0,1-.882-.721l-.1-.678a.85.85,0,0,1,.836-.968c1.04-.013,2-.05,2.907-.123a.85.85,0,0,0,.757-.718c.153-.954.285-1.807.385-2.552a.837.837,0,0,1,.946-.716l1.673.22a.339.339,0,0,1,.333.333.7.7,0,0,1-.143.4Zm3.491,10.948a6.334,6.334,0,0,1-.379-1.995,2.992,2.992,0,0,1,1.395-2.472.845.845,0,0,0-.205-1.519l-.2-.058a.831.831,0,0,1-.542-1.137q.061-.127.115-.261a.852.852,0,0,1,1.012-.494,35.154,35.154,0,0,1,5.59,2.109.859.859,0,0,1,.385,1.152c-.1.2-.181.381-.252.558a.832.832,0,0,1-.985.5,4.284,4.284,0,0,0-1.134-.164c-1.614,0-2.731.783-2.731,1.875a7.151,7.151,0,0,0,.594,2.446,13.935,13.935,0,0,1,.49,1.715.859.859,0,0,0,.451.583,18.451,18.451,0,0,1,3.957,2.613.86.86,0,0,1-.059,1.333,4.8,4.8,0,0,0-.476.429.852.852,0,0,1-1.207.036,19.588,19.588,0,0,0-1.612-1.353.848.848,0,0,0-1.27.259,2.293,2.293,0,0,1-.727.844,5.917,5.917,0,0,1-3.538.879c-2.731,0-4.393-1.187-4.393-3.135,0-1.875,1.662-3.111,4.179-3.111a7.421,7.421,0,0,1,2.208.309A12.558,12.558,0,0,0,381.149,294.39Zm-1.425,3.585c-1.187,0-1.9.428-1.9,1.14,0,.785.665,1.188,1.947,1.188,1.591,0,2.184-.4,2.328-1.543a.422.422,0,0,1,.023-.167A5.149,5.149,0,0,0,379.724,297.975Z" transform="translate(-273.726 -40.959)" fill="#fff"/>
        <path id="Path_577" data-name="Path 577" d="M371.168,320.075v-4.582a.845.845,0,0,0-.845-.845h-1.207a.845.845,0,0,1-.845-.845v-.448a.845.845,0,0,1,.845-.845h1.207a.845.845,0,0,0,.845-.845V308.7a.845.845,0,0,1,.845-.845h.732a.845.845,0,0,1,.845.845v2.964a.845.845,0,0,0,.845.845h1.161a.845.845,0,0,1,.845.845v.448a.845.845,0,0,1-.845.845h-1.161a.845.845,0,0,0-.845.845v3.4a.845.845,0,0,0,1.092.808l1.545-.474c-.02.285-.053.769-.092,1.465a.846.846,0,0,1-.547.748l-5.794,2.173a.887.887,0,0,0-.267.162c-.331.291-.444.368-.615.368-.118,0-.261-.167-.309-.356l-.372-1.34a.845.845,0,0,1,.571-1.035l1.765-.53A.845.845,0,0,0,371.168,320.075Zm7.2,2.268a19.337,19.337,0,0,1-2.875,2.262.856.856,0,0,1-1.091-.153,4.711,4.711,0,0,0-.375-.373.845.845,0,0,1,.166-1.346,14.917,14.917,0,0,0,2.983-2.234.844.844,0,0,0-.607-1.433h-.183a.845.845,0,0,1-.845-.845v-.5a.845.845,0,0,1,.845-.845H388.8a.845.845,0,0,1,.845.845v.5a.845.845,0,0,1-.845.845h-7.272a.855.855,0,0,0-.665.324c-.247.312-.373.464-.74.888h8.189a.846.846,0,0,1,.845.861c-.02,1.233-.038,2.275-.058,2.7-.048,3.253-.808,4.512-2.992,4.939l-1.235.189a8.739,8.739,0,0,0-.926-2.422h1.282c1.378-.1,1.686-.854,1.709-4.2h-.892a.841.841,0,0,0-.768.514,14.424,14.424,0,0,1-5.12,6,.862.862,0,0,1-1.049-.066c-.117-.1-.222-.187-.323-.263a.844.844,0,0,1,.048-1.383,12.63,12.63,0,0,0,4.376-4.8h-.94a.859.859,0,0,0-.711.395,13.9,13.9,0,0,1-5.027,4.72.857.857,0,0,1-1.071-.153c-.078-.082-.151-.158-.225-.229a.854.854,0,0,1,.175-1.375,10.018,10.018,0,0,0,4-3.357Zm.535-14.272h7.809a.845.845,0,0,1,.845.845v6.408a.845.845,0,0,1-.845.845H378.9a.845.845,0,0,1-.845-.845v-6.408A.845.845,0,0,1,378.9,308.071Zm1.436,1.971v1.116H385.3v-1.116Zm0,2.921V314.2H385.3v-1.235Z" transform="translate(-274.003 -36.798)" fill="#fff"/>
        <path id="Path_578" data-name="Path 578" d="M378.367,339.9v6.218a.845.845,0,0,1-.845.845h-1.554v-.57h-2.713a.85.85,0,0,0-.838.753,18.694,18.694,0,0,1-1.708,6.187.85.85,0,0,1-1.288.3,5.616,5.616,0,0,0-.687-.46.844.844,0,0,1-.3-1.144,13.45,13.45,0,0,0,1.669-6.636v-5.5a.845.845,0,0,1,.845-.845h6.574A.845.845,0,0,1,378.367,339.9Zm-8.8-5.191h8.236a.845.845,0,0,1,.845.845v.471a.845.845,0,0,1-.845.845H369.57a.845.845,0,0,1-.845-.845v-.471A.845.845,0,0,1,369.57,334.705Zm2.978,7.328v1.4a.845.845,0,0,0,.845.845h1.73a.845.845,0,0,0,.845-.845v-1.4a.845.845,0,0,0-.845-.845h-1.73A.845.845,0,0,0,372.548,342.033Zm9.212-6.129a26.722,26.722,0,0,0,5.275-1.545.86.86,0,0,1,.889.155l1.2,1.093a.468.468,0,0,1,.143.332c0,.214-.166.285-.808.333a28.827,28.827,0,0,1-5.793,1.473.847.847,0,0,0-.737.833v1.5a.845.845,0,0,0,.845.845h6a.845.845,0,0,1,.845.845v.472a.845.845,0,0,1-.845.845h-.709a.844.844,0,0,0-.845.845v10.373a.845.845,0,0,1-.845.845h-.709a.845.845,0,0,1-.845-.845V343.934a.843.843,0,0,0-.845-.845h-1.328a.847.847,0,0,0-.834.773,15.776,15.776,0,0,1-5.161,10.492.849.849,0,0,1-1.143.007,7.082,7.082,0,0,0-.641-.527.837.837,0,0,1-.049-1.313,12.328,12.328,0,0,0,4.681-10.336v-5.671a.844.844,0,0,1,1.043-.82l.841.2A.88.88,0,0,0,381.76,335.9Z" transform="translate(-273.983 -32.554)" fill="#fff"/>
        <path id="Path_579" data-name="Path 579" d="M370.512,362.493a165.07,165.07,0,0,0,16.569-1.192.842.842,0,0,1,.855.454l.8,1.588a.61.61,0,0,1,.071.26c0,.19-.166.286-.475.286a1,1,0,0,1-.261-.023l-1.116-.19c-3.348.522-4.8,1-6.6,2.208a7.1,7.1,0,0,0-3.253,5.888,4.235,4.235,0,0,0,2.967,4.275,12.8,12.8,0,0,0,4.287.877.844.844,0,0,1,.751,1.071c-.093.324-.178.678-.263,1.09a.846.846,0,0,1-.9.672,12.7,12.7,0,0,1-6.13-1.81,6.486,6.486,0,0,1-3.371-5.819,8.719,8.719,0,0,1,1.258-4.44,8.326,8.326,0,0,1,1.273-1.67.852.852,0,0,0-.709-1.432c-1.595.162-3.292.348-5.506.59a.85.85,0,0,1-.935-.731l-.13-1A.84.84,0,0,1,370.512,362.493Zm14.94,7.05a14.337,14.337,0,0,0-.863-1.737.838.838,0,0,1,.359-1.173l.256-.127a.846.846,0,0,1,1.1.327,18.273,18.273,0,0,1,.959,1.886.851.851,0,0,1-.41,1.12l-.274.129A.842.842,0,0,1,385.452,369.543Zm2.889-1.447a14.588,14.588,0,0,0-.825-1.664.852.852,0,0,1,.34-1.2l.247-.124a.839.839,0,0,1,1.093.3,18.571,18.571,0,0,1,.995,1.9.845.845,0,0,1-.412,1.107l-.289.137A.851.851,0,0,1,388.341,368.1Z" transform="translate(-273.764 -28.22)" fill="#fff"/>
        <path id="Path_580" data-name="Path 580" d="M386.993,390.459a.977.977,0,0,1-.245.244c-2.6,1.787-5.29.041-5.29-2.451a3.138,3.138,0,0,1,3.134-3.087A3.212,3.212,0,0,1,386.993,390.459Zm-4.347-2.135a1.947,1.947,0,1,0,1.924-1.972A1.942,1.942,0,0,0,382.646,388.324Z" transform="translate(-271.875 -24.389)" fill="#fff"/>
        <path id="Path_581" data-name="Path 581" d="M327.377,83.172V82.7a.845.845,0,0,1,.845-.845h.912a.844.844,0,0,0,.837-.964l-.186-1.3a.847.847,0,0,0-.837-.725h-.18a.845.845,0,0,1-.845-.845v-.424a.845.845,0,0,1,.845-.845h2.538a.845.845,0,0,0,.845-.845V75.22a.845.845,0,0,1,.845-.845h.708a.845.845,0,0,1,.845.845V75.9a.845.845,0,0,0,.845.845h2.157a.845.845,0,0,1,.845.845v1.268h-.817a.844.844,0,0,0-.834.72l-.2,1.3a.845.845,0,0,0,.836.97h.525a.845.845,0,0,1,.845.845v.472a.845.845,0,0,1-.845.845h-2.489a.845.845,0,0,0-.845.845v.186a.845.845,0,0,0,.845.845h1.848a.844.844,0,0,1,.845.845v.471a.844.844,0,0,1-.845.845h-.512a.845.845,0,0,0-.524,1.509c.19.152.4.305.627.467a.85.85,0,0,1,.211,1.185c-.087.122-.164.234-.237.348a.841.841,0,0,1-1.315.126,13.516,13.516,0,0,1-.942-1.141v4.26a.845.845,0,0,1-.845.845h-.709a.845.845,0,0,1-.845-.845V92.746a.844.844,0,0,0-1.42-.616,14.6,14.6,0,0,1-1.383,1.111.842.842,0,0,1-1.217-.233,3.834,3.834,0,0,0-.354-.511.854.854,0,0,1,.237-1.274,12.069,12.069,0,0,0,2.424-1.713.847.847,0,0,0-.587-1.456h-1.1a.845.845,0,0,1-.845-.845v-.471a.845.845,0,0,1,.845-.845h2.561a.845.845,0,0,0,.845-.845v-.186a.845.845,0,0,0-.845-.845h-3.108A.845.845,0,0,1,327.377,83.172Zm4.692-3.332.206,1.3a.845.845,0,0,0,.834.713h.3a.845.845,0,0,0,.837-.725l.186-1.3a.845.845,0,0,0-.837-.964h-.7A.845.845,0,0,0,332.069,79.84Zm9.3-3.582a15.954,15.954,0,0,0,4.4-1.474.841.841,0,0,1,.953.147l1.037.988a.623.623,0,0,1,.214.379c0,.261-.309.4-.9.4a23.863,23.863,0,0,1-4.75,1.563.851.851,0,0,0-.665.825v1.754a.845.845,0,0,0,.845.845h5.482a.845.845,0,0,1,.845.845V83a.845.845,0,0,1-.845.845h-.78a.844.844,0,0,0-.845.845V94.878a.845.845,0,0,1-.845.845H344.8a.845.845,0,0,1-.845-.845V84.694a.845.845,0,0,0-.845-.845h-.694a.849.849,0,0,0-.84.791,20.294,20.294,0,0,1-2.937,9.85.854.854,0,0,1-1.22.236,4.407,4.407,0,0,0-.569-.332.857.857,0,0,1-.356-1.246,16.414,16.414,0,0,0,2.735-9.7V76.91a.846.846,0,0,1,1.036-.823l.726.168A.857.857,0,0,0,341.366,76.257Z" transform="translate(-280.556 -74.275)" fill="#fff"/>
        <path id="Path_582" data-name="Path 582" d="M334.181,101.707c.332.048.522.19.522.379a.779.779,0,0,1-.12.356l-.355.642c-.1,6.007-.143,9.095-.143,10.995v1.163c0,1.829.5,2.494,1.875,2.494a12.875,12.875,0,0,0,4.013-.785,16.118,16.118,0,0,0,4.019-1.852.843.843,0,0,1,1.21.327c.11.218.239.444.39.687a.856.856,0,0,1-.265,1.173,20.335,20.335,0,0,1-9.557,2.942,4.353,4.353,0,0,1-3.277-1.163,6.17,6.17,0,0,1-1.044-3.824v-1.4c0-3.852.039-8.082.12-11.522a.839.839,0,0,1,.945-.811Z" transform="translate(-279.902 -69.921)" fill="#fff"/>
        <path id="Path_583" data-name="Path 583" d="M332.009,127.788c.261.046.4.189.4.38a.865.865,0,0,1-.213.451l-.356.475-.048.309a15.368,15.368,0,0,0-.451,3.775v1.164c0,3.586,1.639,7.765,3.039,7.765.429,0,.731-.384,1.02-1.4a.845.845,0,0,1,1.47-.32c.138.178.283.354.435.527a.872.872,0,0,1,.194.783c-.639,2.475-1.581,3.683-2.882,3.683-1.235,0-2.707-1.235-3.824-3.182a16.489,16.489,0,0,1-2.089-8v-1.115a21.42,21.42,0,0,1,.538-5.029.846.846,0,0,1,.992-.628Zm12.081,3.9a29.559,29.559,0,0,1,3.577,6.491.842.842,0,0,1-.688,1.135,9.828,9.828,0,0,0-1.23.219.83.83,0,0,1-.972-.574,25.265,25.265,0,0,0-2.832-6.035.847.847,0,0,1,.419-1.274l.759-.263A.854.854,0,0,1,344.089,131.691Z" transform="translate(-280.342 -65.762)" fill="#fff"/>
        <path id="Path_584" data-name="Path 584" d="M330.284,163.595v-4.582a.845.845,0,0,0-.845-.845h-1.208a.845.845,0,0,1-.845-.845v-.448a.845.845,0,0,1,.845-.845h1.208a.845.845,0,0,0,.845-.845v-2.964a.845.845,0,0,1,.845-.845h.732a.845.845,0,0,1,.845.845v2.964a.845.845,0,0,0,.845.845h1.161a.845.845,0,0,1,.845.845v.448a.845.845,0,0,1-.845.845h-1.161a.845.845,0,0,0-.845.845v3.4a.845.845,0,0,0,1.092.808l1.543-.473c-.019.285-.053.769-.09,1.465a.846.846,0,0,1-.547.749l-5.794,2.172a.905.905,0,0,0-.268.162c-.33.291-.443.368-.614.368-.118,0-.261-.166-.309-.356l-.373-1.34a.845.845,0,0,1,.571-1.035l1.765-.53A.846.846,0,0,0,330.284,163.595Zm7.2,2.266a19.279,19.279,0,0,1-2.873,2.263.856.856,0,0,1-1.091-.153,4.927,4.927,0,0,0-.375-.373.844.844,0,0,1,.166-1.346,14.918,14.918,0,0,0,2.983-2.234.844.844,0,0,0-.607-1.433H335.5a.845.845,0,0,1-.845-.845v-.5a.845.845,0,0,1,.845-.845h12.415a.844.844,0,0,1,.845.845v.5a.844.844,0,0,1-.845.845h-7.271a.855.855,0,0,0-.665.324c-.248.312-.374.464-.742.888h8.19a.847.847,0,0,1,.845.861c-.02,1.232-.039,2.275-.058,2.7-.048,3.253-.808,4.512-2.992,4.939l-1.235.189a8.776,8.776,0,0,0-.926-2.422h1.281c1.378-.1,1.686-.854,1.711-4.2h-.894a.841.841,0,0,0-.767.514,14.423,14.423,0,0,1-5.121,6,.863.863,0,0,1-1.049-.066c-.116-.1-.22-.187-.321-.263a.844.844,0,0,1,.048-1.383,12.625,12.625,0,0,0,4.376-4.8h-.941a.855.855,0,0,0-.71.4,13.9,13.9,0,0,1-5.029,4.72.857.857,0,0,1-1.071-.153c-.077-.082-.151-.158-.225-.229a.854.854,0,0,1,.176-1.375,10.019,10.019,0,0,0,4-3.359Zm.536-14.271h7.809a.845.845,0,0,1,.845.845v6.408a.845.845,0,0,1-.845.845h-7.809a.845.845,0,0,1-.845-.845v-6.408A.845.845,0,0,1,338.016,151.591Zm1.434,1.971v1.116h4.964v-1.116Zm0,2.921v1.235h4.964v-1.235Z" transform="translate(-280.566 -61.915)" fill="#fff"/>
        <path id="Path_585" data-name="Path 585" d="M337.483,183.416v6.218a.845.845,0,0,1-.845.845h-1.553v-.57h-2.713a.851.851,0,0,0-.838.754,18.7,18.7,0,0,1-1.708,6.186.851.851,0,0,1-1.289.3,5.537,5.537,0,0,0-.687-.46.845.845,0,0,1-.3-1.144,13.451,13.451,0,0,0,1.669-6.636v-5.5a.845.845,0,0,1,.845-.845h6.573A.845.845,0,0,1,337.483,183.416Zm-8.8-5.191h8.236a.845.845,0,0,1,.845.845v.471a.845.845,0,0,1-.845.845h-8.236a.845.845,0,0,1-.845-.845v-.471A.845.845,0,0,1,328.687,178.225Zm2.978,7.327v1.4a.845.845,0,0,0,.845.845h1.73a.845.845,0,0,0,.845-.845v-1.4a.845.845,0,0,0-.845-.845h-1.73A.845.845,0,0,0,331.665,185.553Zm9.212-6.129a26.79,26.79,0,0,0,5.275-1.543.855.855,0,0,1,.888.154l1.2,1.093a.467.467,0,0,1,.142.332c0,.214-.166.285-.807.333a28.838,28.838,0,0,1-5.794,1.473.847.847,0,0,0-.736.833v1.5a.845.845,0,0,0,.845.845h6a.844.844,0,0,1,.845.845v.472a.844.844,0,0,1-.845.845h-.708a.844.844,0,0,0-.845.845v10.373a.845.845,0,0,1-.845.845h-.709a.845.845,0,0,1-.845-.845V187.454a.845.845,0,0,0-.845-.845H341.77a.845.845,0,0,0-.834.773,15.777,15.777,0,0,1-5.162,10.492.848.848,0,0,1-1.142.007,7.146,7.146,0,0,0-.642-.527.837.837,0,0,1-.048-1.313,12.328,12.328,0,0,0,4.682-10.336v-5.671a.843.843,0,0,1,1.042-.82l.843.2A.88.88,0,0,0,340.877,179.424Z" transform="translate(-280.545 -57.671)" fill="#fff"/>
        <path id="Path_586" data-name="Path 586" d="M330.5,223.377a.86.86,0,0,1-.83-.651,34.513,34.513,0,0,1-1.07-8.372v-.9a33.4,33.4,0,0,1,1.163-8.525.854.854,0,0,1,1-.612l1.727.375c.238.048.381.189.381.355a.8.8,0,0,1-.19.381l-.333.475a26.815,26.815,0,0,0-1.116,7.623v.925a27.918,27.918,0,0,0,1.161,7.839.843.843,0,0,1-.8,1.09Zm6.629-7.684a.845.845,0,0,1,.455,1.187,3.623,3.623,0,0,0-.434,1.653c0,1.044,1.069,1.663,2.873,1.663h1.946a24.98,24.98,0,0,0,4.409-.444.843.843,0,0,1,.974,1.01c-.059.269-.118.579-.182.954a3.4,3.4,0,0,1-.071.451,27.588,27.588,0,0,1-5.058.4h-2.208c-3.23,0-5.3-1.5-5.3-3.8a5.867,5.867,0,0,1,.874-2.978.835.835,0,0,1,1.006-.354Zm2.8-8.25a26.435,26.435,0,0,0,5.465-.538.843.843,0,0,1,.99.946c-.026.209-.048.415-.066.616a.834.834,0,0,1-.677.739,34.013,34.013,0,0,1-5.5.613H339.1a25.3,25.3,0,0,1-2.706-.237.849.849,0,0,1-.728-.8c-.01-.2-.027-.388-.05-.568a.84.84,0,0,1,.938-.928,22.339,22.339,0,0,0,2.713.157Z" transform="translate(-280.359 -53.421)" fill="#fff"/>
        <path id="Path_587" data-name="Path 587" d="M329.655,240.443h.732a.845.845,0,0,1,.845.845v4.366a.845.845,0,0,0,.845.845H335.8a.844.844,0,0,0,.845-.845V239.53a.844.844,0,0,0-.845-.845h-4.094v.783h-1.553a.845.845,0,0,1-.845-.845v-7.571a.845.845,0,0,1,.845-.845h.708a.845.845,0,0,1,.845.845v4.627a.845.845,0,0,0,.845.845H335.8a.844.844,0,0,0,.845-.845v-5.719a.845.845,0,0,1,.845-.845h.709a.845.845,0,0,1,.845.845v5.719a.845.845,0,0,0,.845.845h3.274a.845.845,0,0,0,.845-.845v-4.627a.845.845,0,0,1,.845-.845h.708a.845.845,0,0,1,.845.845v7.571a.845.845,0,0,1-.845.845h-1.553v-.783h-4.119a.845.845,0,0,0-.845.845v6.123a.845.845,0,0,0,.845.845h3.749a.845.845,0,0,0,.845-.845v-4.366a.845.845,0,0,1,.845-.845h.732a.845.845,0,0,1,.845.845v8.047a.845.845,0,0,1-.845.845h-1.577v-1.544H331.232v1.544h-1.577a.845.845,0,0,1-.845-.845v-8.047A.845.845,0,0,1,329.655,240.443Z" transform="translate(-280.326 -49.437)" fill="#fff"/>
        <path id="Path_588" data-name="Path 588" d="M339.208,255.449c.237.071.4.19.4.356s-.12.309-.451.5a23.36,23.36,0,0,0,8.623,6.969.844.844,0,0,1,.268,1.353,6.773,6.773,0,0,0-.477.533.85.85,0,0,1-1.073.208,23.8,23.8,0,0,1-3.161-2.033v1.5H332.771v-1.234a24.359,24.359,0,0,1-3.323,2.412.859.859,0,0,1-1.125-.2c-.15-.189-.291-.355-.445-.519a.839.839,0,0,1,.2-1.312,21.55,21.55,0,0,0,8.686-8.457.843.843,0,0,1,.927-.422Zm-6.1,17.69,1.4-2.573a.845.845,0,0,0-.742-1.249h-4.88a.845.845,0,0,1-.845-.845V268a.845.845,0,0,1,.845-.845H347.1a.845.845,0,0,1,.845.845v.472a.845.845,0,0,1-.845.845h-8.618a.843.843,0,0,0-.731.421L336.446,272a.845.845,0,0,0,.793,1.266l3.151-.23a.843.843,0,0,0,.53-1.445l-.1-.1a.848.848,0,0,1,.063-1.285l.4-.311a.849.849,0,0,1,1.086.045,32.6,32.6,0,0,1,4.023,4.252.85.85,0,0,1-.1,1.17l-.641.564a.843.843,0,0,1-1.251-.152c-.163-.237-.308-.435-.529-.723a.856.856,0,0,0-.774-.331l-11.8,1.393c-.238.261-.428.379-.594.379-.142,0-.309-.166-.427-.427l-.521-1.152a.845.845,0,0,1,.709-1.191l1.964-.142A.844.844,0,0,0,333.112,273.139Zm7.633-11.938a17.632,17.632,0,0,1-2.137-2.361.85.85,0,0,0-1.355.009,24.843,24.843,0,0,1-2,2.388.846.846,0,0,0,.608,1.43h4.317A.845.845,0,0,0,340.744,261.2Z" transform="translate(-280.512 -45.27)" fill="#fff"/>
        <path id="Path_589" data-name="Path 589" d="M329.42,300.588a6.6,6.6,0,0,0-.506-.513.853.853,0,0,1-.042-1.259l8.568-8.165a.843.843,0,0,0-.668-1.447c-1.8.18-3.545.28-5.341.315a.854.854,0,0,1-.861-.768L330.5,288a.846.846,0,0,1,.84-.925,78.1,78.1,0,0,0,9.709-.566l.711-.309,1.591,1.686a.563.563,0,0,1,.12.332.55.55,0,0,1-.381.5l-.545.238-4.489,4.345a2.045,2.045,0,0,1,.594-.094c1,0,1.567,1.068,1.567,2.9v2.422c.024.76.309.9,1.544.926h2.161a16.188,16.188,0,0,0,2.225-.144.834.834,0,0,1,.9,1.1c-.092.248-.173.5-.241.744a.859.859,0,0,1-.82.651h-4.934c-2.185-.024-3.254-.808-3.277-2.423v-3.133c0-.927-.261-1.354-.808-1.354a1.457,1.457,0,0,0-1,.475l-5.313,5.271A.846.846,0,0,1,329.42,300.588Zm5.858-19.126a31.768,31.768,0,0,0,5.8.667.834.834,0,0,1,.823.947c-.027.182-.048.373-.059.573a.859.859,0,0,1-.867.807,39.774,39.774,0,0,1-6.093-.6.85.85,0,0,1-.689-.9l.057-.735A.843.843,0,0,1,335.279,281.462Z" transform="translate(-280.357 -41.038)" fill="#fff"/>
        <path id="Path_590" data-name="Path 590" d="M329.465,318.453a85.71,85.71,0,0,0,7.832-6.548.847.847,0,0,0-.621-1.466c-1.569.082-3.038.179-4.575.3a.848.848,0,0,1-.911-.751l-.106-.991a.838.838,0,0,1,.938-.924,23.1,23.1,0,0,0,2.769.145h3.752a10.471,10.471,0,0,0,3.26-.5.833.833,0,0,1,.925.309l.992,1.333a.965.965,0,0,1,.166.453c0,.237-.142.355-.522.427a3.665,3.665,0,0,0-1.709.949l-4.773,4.18a10.137,10.137,0,0,1,3.182-.522c3.847,0,6.031,2.018,6.031,5.557,0,4.25-3.348,6.957-8.573,6.957-3.063,0-4.915-1.282-4.915-3.4,0-1.9,1.567-3.182,3.823-3.182,2.161,0,3.729,1.092,3.729,2.636a3.1,3.1,0,0,1-.309,1.4,4.251,4.251,0,0,0,3.562-4.322c0-2.208-1.21-3.466-3.325-3.466A12.348,12.348,0,0,0,335.6,318a13.863,13.863,0,0,0-4.308,2.785.845.845,0,0,1-1.242-.125l-.765-1.034A.841.841,0,0,1,329.465,318.453Zm8.414,5.581c0-.641-.665-1.068-1.709-1.068-.783,0-1.306.355-1.306.925,0,.665.547,1.093,1.638,1.235.191.024.927.048.927.048A1.617,1.617,0,0,0,337.878,324.034Z" transform="translate(-280.276 -36.827)" fill="#fff"/>
        <path id="Path_591" data-name="Path 591" d="M290.578,85.514h-.947a.845.845,0,0,1-.845-.845V77.264a.845.845,0,0,1,.845-.845h13.617l.759-.428,1.709,1.686a.676.676,0,0,1,.167.428.636.636,0,0,1-.167.379l-.356.451c-.229,7.326-3.129,12.313-8.849,15.236a.838.838,0,0,1-1.026-.211,6.223,6.223,0,0,0-.641-.677.831.831,0,0,1,.227-1.364c4.738-2.143,7.405-6.342,7.759-12.261a.852.852,0,0,0-.851-.891h-9.714a.845.845,0,0,0-.845.845v5.055A.845.845,0,0,1,290.578,85.514Z" transform="translate(-286.75 -74.016)" fill="#fff"/>
        <path id="Path_592" data-name="Path 592" d="M297.02,100.559v17.783a.845.845,0,0,1-.845.845h-.589a.845.845,0,0,1-.845-.845V100.559a.845.845,0,0,1,.845-.845h.589A.845.845,0,0,1,297.02,100.559Z" transform="translate(-285.794 -70.208)" fill="#fff"/>
        <path id="Path_593" data-name="Path 593" d="M292.411,131.394a28.029,28.029,0,0,1-3.007,4.382.844.844,0,0,1-1.145.11,7.826,7.826,0,0,0-.819-.541.84.84,0,0,1-.171-1.308,22.693,22.693,0,0,0,5.431-9.927.841.841,0,0,1,.99-.624l1.5.326c.286.046.428.214.428.4a.75.75,0,0,1-.262.451l-.379.4c-.274.925-.54,1.718-.791,2.389a.846.846,0,0,0,.788,1.149h10.414a.845.845,0,0,1,.845.845v.66a.845.845,0,0,1-.845.845h-3.138a.845.845,0,0,0-.833.766,13.462,13.462,0,0,1-6.6,10.493.858.858,0,0,1-1.022-.164q-.32-.319-.63-.58a.835.835,0,0,1,.149-1.381,10.429,10.429,0,0,0,5.565-8.184.842.842,0,0,0-.84-.95h-4.894A.849.849,0,0,0,292.411,131.394Z" transform="translate(-287.032 -66.395)" fill="#fff"/>
        <path id="Path_594" data-name="Path 594" d="M297.02,148.455v17.783a.845.845,0,0,1-.845.845h-.589a.845.845,0,0,1-.845-.845V148.455a.845.845,0,0,1,.845-.845h.589A.845.845,0,0,1,297.02,148.455Z" transform="translate(-285.794 -62.52)" fill="#fff"/>
        <path id="Path_595" data-name="Path 595" d="M289.507,179.086a28.946,28.946,0,0,1,3.166,1.586A.849.849,0,0,1,293,181.8l-.4.758a.844.844,0,0,1-1.17.339,28.862,28.862,0,0,0-2.933-1.527.84.84,0,0,1-.425-1.113l.331-.739A.842.842,0,0,1,289.507,179.086Zm.673,9.842a23.309,23.309,0,0,0,14.8-10.115.844.844,0,0,1,1.369-.067c.178.225.381.456.637.732l.379.379a25.72,25.72,0,0,1-15.221,11.517c-.736.713-.879.808-1.307.808-.214,0-.355-.12-.475-.356l-.8-1.714A.846.846,0,0,1,290.18,188.928Zm1.916-14.985a24.3,24.3,0,0,1,3.167,1.946.843.843,0,0,1,.2,1.14l-.44.675a.843.843,0,0,1-1.227.2,19.594,19.594,0,0,0-2.8-1.776.843.843,0,0,1-.377-1.123l.339-.679A.85.85,0,0,1,292.1,173.944Z" transform="translate(-286.876 -58.308)" fill="#fff"/>
        <path id="Path_596" data-name="Path 596" d="M294.787,208.1h6.883a.845.845,0,0,0,.845-.845v-1.113a.845.845,0,0,0-.845-.845h-6.6a.845.845,0,0,1-.845-.845v-.376a.845.845,0,0,1,.845-.845h6.6a.845.845,0,0,0,.845-.845v-1.041a.845.845,0,0,0-.845-.845h-6.859a.845.845,0,0,1-.845-.845v-.376a.845.845,0,0,1,.845-.845h9.233a.844.844,0,0,1,.845.845V210.1a.844.844,0,0,1-.845.845h-1.53v-.759h-7.728a.845.845,0,0,1-.845-.845v-.4A.845.845,0,0,1,294.787,208.1Z" transform="translate(-285.923 -54.362)" fill="#fff"/>
        <path id="Path_597" data-name="Path 597" d="M289.205,235.392a32.98,32.98,0,0,0,15.117-10,.849.849,0,0,1,1.39.133c.135.244.253.443.361.612a.846.846,0,0,1-.058,1,34.453,34.453,0,0,1-15.16,10.5l-.4.57-.261.214h-.451l-.214-.237-.816-1.618A.843.843,0,0,1,289.205,235.392Zm1.664-14.618c1.2.735,2.412,1.548,3.629,2.459a.855.855,0,0,1,.169,1.193l-.557.74a.848.848,0,0,1-1.2.145A29.052,29.052,0,0,0,289.518,223a.847.847,0,0,1-.294-1.19l.5-.768A.845.845,0,0,1,290.869,220.774Z" transform="translate(-286.777 -50.796)" fill="#fff"/>
        <path id="Path_598" data-name="Path 598" d="M293.524,250.827c.988.49,1.974,1.024,3.06,1.657a.852.852,0,0,0,1.2-.35,32.5,32.5,0,0,0,2.108-5.9.845.845,0,0,1,1.075-.6l1.707.554c.261.1.356.214.356.4a.757.757,0,0,1-.238.476l-.5.5a49.5,49.5,0,0,1-2.456,6.036.844.844,0,0,0,.281,1.065c1.072.735,2.107,1.511,3.165,2.373a.852.852,0,0,1,.044,1.275l-.74.7a.848.848,0,0,1-1.132.016c-.868-.744-1.72-1.408-2.576-2.011a.845.845,0,0,0-1.173.22,23.43,23.43,0,0,1-6.678,6.291.842.842,0,0,1-1.072-.132,7.18,7.18,0,0,0-.7-.674.833.833,0,0,1,.127-1.35,18.951,18.951,0,0,0,6.152-5.537.846.846,0,0,0-.244-1.193,31.134,31.134,0,0,0-2.936-1.646.849.849,0,0,1-.339-1.238l.436-.643A.843.843,0,0,1,293.524,250.827Z" transform="translate(-286.721 -46.793)" fill="#fff"/>
        <path id="Path_599" data-name="Path 599" d="M288.342,277.74H305.65a.845.845,0,0,1,.845.845v.685a.845.845,0,0,1-.845.845h-5.893a.848.848,0,0,0-.838.818c-.233,4.541-2.089,7.651-5.807,9.725a.863.863,0,0,1-1.068-.22c-.215-.25-.442-.489-.677-.716a.839.839,0,0,1,.2-1.362c3.015-1.505,4.471-3.783,4.686-7.369a.841.841,0,0,0-.846-.875h-7.068a.845.845,0,0,1-.845-.845v-.685A.845.845,0,0,1,288.342,277.74Zm2.992-5.771h10.349a.845.845,0,0,1,.845.845v.661a.845.845,0,0,1-.845.845H291.334a.845.845,0,0,1-.845-.845v-.661A.845.845,0,0,1,291.334,271.969Zm13.731,3.632a23.2,23.2,0,0,0-1.613-1.731.849.849,0,0,1-.012-1.224l.244-.234a.839.839,0,0,1,1.148-.027c.587.531,1.263,1.207,1.825,1.827a.842.842,0,0,1-.063,1.188l-.313.286A.844.844,0,0,1,305.065,275.6Zm1.651-2.928a17.643,17.643,0,0,0-1.383-1.472.852.852,0,0,1-.023-1.245l.238-.226a.839.839,0,0,1,1.121-.038,16.2,16.2,0,0,1,1.629,1.6.853.853,0,0,1-.053,1.2l-.305.277A.849.849,0,0,1,306.716,272.674Z" transform="translate(-286.957 -42.956)" fill="#fff"/>
        <path id="Path_600" data-name="Path 600" d="M303.875,296.872a14.59,14.59,0,0,1-1.235,1.709c-.381.475-.451.57-.666.831v8.631a.845.845,0,0,1-.845.845h-.684a.844.844,0,0,1-.845-.845V303.73a.844.844,0,0,0-1.38-.654c-.433.361-.956.774-1.636,1.3-.617.476-.689.523-1,.785a8.229,8.229,0,0,0-1.035-.891.849.849,0,0,1,.028-1.395,25.392,25.392,0,0,0,7.341-7.565.842.842,0,0,1,1.2-.266l1.294.9a.553.553,0,0,1,.261.4.424.424,0,0,1-.332.357Z" transform="translate(-285.881 -38.879)" fill="#fff"/>
        <path id="Path_601" data-name="Path 601" d="M298.48,321.517v1.307a22.047,22.047,0,0,0,2.855-2.364.845.845,0,0,0-.609-1.436H288.853a.845.845,0,0,1-.845-.845v-.661a.845.845,0,0,1,.845-.845H303.4l.949-.4,1.853,2.279a.873.873,0,0,1,.189.476.57.57,0,0,1-.427.475l-.617.214a27.512,27.512,0,0,1-5.1,4.993.849.849,0,0,1-1.161-.121c-.151-.175-.33-.384-.607-.717V326a11.363,11.363,0,0,1-4.153,8.762.835.835,0,0,1-1.083.006,9.5,9.5,0,0,0-.881-.665.84.84,0,0,1-.02-1.357,8.6,8.6,0,0,0,3.5-7.03v-3.359a.845.845,0,0,1,.845-.845Z" transform="translate(-286.875 -35.448)" fill="#fff"/>
      </g>
    </g>
  </g>
</svg>
