<svg xmlns="http://www.w3.org/2000/svg" xmlns:xlink="http://www.w3.org/1999/xlink" width="465.778" height="200.747" viewBox="0 0 465.778 200.747">
  <defs>
    <linearGradient id="linear-gradient" x1="0.5" y1="1.069" x2="0.5" y2="0.885" gradientUnits="objectBoundingBox">
      <stop offset="0" stop-color="#fff" stop-opacity="0"/>
      <stop offset="1" stop-color="#edfdff"/>
    </linearGradient>
  </defs>
  <path id="Union_2" data-name="Union 2" d="M379.247,244.747a1.392,1.392,0,0,0-1.393-1.392H322.269a1.392,1.392,0,0,0-1.393,1.392H220.433a1.393,1.393,0,0,0-1.393-1.392H14.03c-1.923-6.524-3.966-12.9-6.029-18.972,17.815-14.389,43.953-31.885,70.092-36.411,15.818-2.739,37.27,3.016,58.663,11.781h0c9.368-4.525,19.109-9.056,29-13.413q4.248-1.873,8.526-3.7c37.564-16.01,76.326-28.829,104.152-28.829,15.547,0,33.64,3.471,52.69,9.059q1.4.411,2.806.837c21.73,6.574,44.59,15.788,66.264,25.658q1.344.613,2.686,1.228c33.028,15.191,74.375,50.127,70.666,54.152ZM138.042,104.536c-2.156,8.357-6.378,17.4-14.638,22.332-4.284-15.056-.611-25.119,4.382-31.531a32.7,32.7,0,0,1,10.774-8.871c1.046-.529,1.689-.772,1.689-.772s.017.447.017,1.239c0-.792-.017-1.239-.017-1.239s-.644.242-1.689.772c-.227-.04-.751-.127-1.515-.226.763.1,1.287.187,1.514.226a32.7,32.7,0,0,0-10.774,8.87c-8.892,6.835-21.124,15.305-28.362,16.354.142-22.732,19.172-26.015,30.683-25.92-15.1-4.5-35.252-18.584-35.252-18.584s24.953-15.741,44.812,15.377a1.876,1.876,0,0,1,.66-.078c-2.3-7.411-4.889-23.894,10.616-38.484,5.347,11.547-4.274,32.869-7.836,40.035-.6,1.208-1.029,2.015-1.182,2.3.155-.287.582-1.094,1.183-2.3a16.541,16.541,0,0,1,1.345,1.456,19.186,19.186,0,0,0-2.454.974h0a19.146,19.146,0,0,1,2.454-.974c.275-.091.57-.185.888-.278,4.846-1.438,14.512-2.956,25.978,2.4,6.664,3.115,13.934,8.55,21.223,17.68-11.4,3.24-37.806-10.822-46.753-15.874,0,.127-.01.256-.015.382A27.523,27.523,0,0,0,143,87.819a27.424,27.424,0,0,1,2.77,1.987c5.467,4.388,16.874,16.08,21.709,40.027-10.148-.836-16.336-5.42-20.063-11.276a146.9,146.9,0,0,0,26.861,64.084q-4.275,1.824-8.525,3.7C145.948,152.033,139.8,122.534,138.042,104.536Zm0,0a74.279,74.279,0,0,0,2.224-17.366A74.329,74.329,0,0,1,138.042,104.536Zm4.409-14.7c.153-1.353.294-2.145.3-2.167h0C142.742,87.706,142.6,88.5,142.451,89.836Zm-.526-3.5.043.075-.043-.076q-.089-.159-.179-.316Q141.835,86.178,141.924,86.338Zm-.579-1.013Zm0,0c-.276-.668-.633-1.607-1-2.785C140.712,83.718,141.069,84.658,141.345,85.325Zm29.973,2.292c-11.465-5.36-21.131-3.841-25.978-2.4-.826-.12-1.285-.192-1.285-.192s28.73-31.672,51.968-.355c-4.185,2.291-11.684,3.039-19.71,3.039C174.664,87.705,172.989,87.673,171.318,87.617Z" transform="translate(-8 -44)" fill="url(#linear-gradient)"/>
</svg>
