<svg xmlns="http://www.w3.org/2000/svg" width="50" height="40" viewBox="0 0 50 40">
  <g id="arrow-left" transform="translate(50 40) rotate(180)">
    <g id="Rectangle_12" data-name="Rectangle 12" transform="translate(50) rotate(90)" fill="#fff" stroke="#4fbac4" stroke-width="1">
      <path d="M0,0H40a0,0,0,0,1,0,0V30A20,20,0,0,1,20,50h0A20,20,0,0,1,0,30V0A0,0,0,0,1,0,0Z" stroke="none"/>
      <path d="M.5.5h39a0,0,0,0,1,0,0V30A19.5,19.5,0,0,1,20,49.5h0A19.5,19.5,0,0,1,.5,30V.5A0,0,0,0,1,.5.5Z" fill="none"/>
    </g>
    <g id="icons_Q2" data-name="icons Q2" transform="translate(21 13)">
      <path id="Path_560" data-name="Path 560" d="M18.384,16.869l5.281-5.2a.924.924,0,0,0-.1-1.472,1.059,1.059,0,0,0-1.345.1l-5.929,5.887a.923.923,0,0,0,0,1.374l5.929,5.887a1.059,1.059,0,0,0,1.345.1.924.924,0,0,0,.1-1.472Z" transform="translate(-15.985 -10.001)" fill="#4fbac4"/>
    </g>
  </g>
</svg>
