<svg id="logo01" xmlns="http://www.w3.org/2000/svg" width="139.903" height="52" viewBox="0 0 139.903 52">
  <path id="Path_929" data-name="Path 929" d="M781.571,417.818H769.649a.812.812,0,0,0-.574,1.386l8.937,8.937a.936.936,0,0,0,1.423-.113,17.088,17.088,0,0,0,2.976-9.327A.843.843,0,0,0,781.571,417.818Z" transform="translate(-747.815 -382.573)" fill="#4fbac4"/>
  <path id="Path_930" data-name="Path 930" d="M781.361,327.768h-8.716a.922.922,0,0,0-.818,1.343,7.544,7.544,0,0,1-2.643,9.723.911.911,0,0,0,0,1.531,7.545,7.545,0,0,1,.9,11.985.838.838,0,0,0,.569,1.456h10.787a.943.943,0,0,0,.943-.943v-24.07A1.025,1.025,0,0,0,781.361,327.768Z" transform="translate(-747.768 -321.387)" fill="#4fbac4"/>
  <path id="Path_931" data-name="Path 931" d="M737.034,307.859H704.193a.936.936,0,0,0-.936.936v30.54a.943.943,0,0,0,.943.943h10.787a.838.838,0,0,0,.569-1.456,7.546,7.546,0,0,1,.9-11.985.911.911,0,0,0,0-1.531,7.553,7.553,0,0,1-3.447-6.337c0-4.165,3-7.554,7.967-7.554h16.11a.786.786,0,0,0,.786-.786V308.7A.84.84,0,0,0,737.034,307.859Z" transform="translate(-703.257 -307.859)" fill="#4fbac4"/>
  <path id="Path_932" data-name="Path 932" d="M751.961,332.5a4.729,4.729,0,1,0-4.729,4.729A4.734,4.734,0,0,0,751.961,332.5Z" transform="translate(-729.924 -321.387)" fill="#4fbac4"/>
  <path id="Path_933" data-name="Path 933" d="M734.388,423.949a1.052,1.052,0,0,0-1.488,0l-10.112,10.113a.97.97,0,0,0,.138,1.482,20.712,20.712,0,0,0,21.431,0,.97.97,0,0,0,.139-1.483Z" transform="translate(-716.336 -386.529)" fill="#4fbac4"/>
  <path id="Path_934" data-name="Path 934" d="M747.233,381.542a4.729,4.729,0,1,0-4.729-4.729A4.734,4.734,0,0,0,747.233,381.542Z" transform="translate(-729.924 -351.498)" fill="#4fbac4"/>
  <path id="Path_935" data-name="Path 935" d="M716.011,417.818H704.067a.756.756,0,0,0-.757.781,17.159,17.159,0,0,0,2.952,9.393.972.972,0,0,0,1.48.118l8.861-8.861A.839.839,0,0,0,716.011,417.818Z" transform="translate(-703.292 -382.573)" fill="#4fbac4"/>
  <path id="Path_936" data-name="Path 936" d="M846.073,369.1c0,2.561-1.429,3.841-3.662,3.841s-3.662-1.28-3.662-3.841V356h-4.7v13.488c0,5.3,3.721,8.1,8.366,8.1s8.367-2.8,8.367-8.1V356h-4.7Z" transform="translate(-792.123 -340.568)" fill="#374349"/>
  <rect id="Rectangle_46" data-name="Rectangle 46" width="8.932" height="4.079" transform="translate(61.989 25.524)" fill="#374349"/>
  <path id="Path_937" data-name="Path 937" d="M943.842,361.006a5.319,5.319,0,0,0-4.288,1.757v-8.158h-4.436v21.556h4.377v-1.667a4.773,4.773,0,0,0,4.168,1.994c4.139,0,7.057-3.245,7.057-7.771C950.72,364.282,948.129,361.006,943.842,361.006Zm-.983,11.433a3.361,3.361,0,0,1-3.365-3.692,3.3,3.3,0,0,1,3.365-3.662c1.757,0,3.334,1.161,3.334,3.662C946.194,371.219,944.616,372.44,942.859,372.44Z" transform="translate(-860.799 -339.621)" fill="#374349"/>
  <path id="Path_938" data-name="Path 938" d="M997.414,374.3a7.845,7.845,0,1,0,7.86,7.831A7.645,7.645,0,0,0,997.414,374.3Zm0,11.522a3.355,3.355,0,0,1-3.335-3.692,3.313,3.313,0,0,1,3.335-3.662c1.727,0,3.335,1.161,3.335,3.662S999.141,385.82,997.414,385.82Z" transform="translate(-897.786 -353.002)" fill="#374349"/>
  <path id="Path_939" data-name="Path 939" d="M1059.586,361.364h-5.865l-4.5,4.972V354.605H1044.7v21.556h4.526v-3.632l1.459-1.578,3.484,5.211h5.538l-5.895-8.575Z" transform="translate(-935.256 -339.622)" fill="#374349"/>
  <path id="Path_940" data-name="Path 940" d="M1109.788,387.839V375.691h-4.526v8.426a2.36,2.36,0,0,1-2.471,2.531,2.3,2.3,0,0,1-2.382-2.56v-8.4h-4.526v9.349a5.427,5.427,0,0,0,5.628,5.776,4.6,4.6,0,0,0,3.96-1.816,10.768,10.768,0,0,0,.119,1.489h4.347A23.121,23.121,0,0,1,1109.788,387.839Z" transform="translate(-970.034 -353.949)" fill="#374349"/>
</svg>
