<svg xmlns="http://www.w3.org/2000/svg" width="80.462" height="109.457" viewBox="0 0 80.462 109.457">
  <g id="Group_189" data-name="Group 189" transform="translate(-381 -6775)">
    <path id="Path_917" data-name="Path 917" d="M332.087,431.321a1.56,1.56,0,0,0,2.373-.188,28.486,28.486,0,0,0,4.964-15.553,1.407,1.407,0,0,0-1.4-1.473H318.14a1.353,1.353,0,0,0-.957,2.311Z" transform="translate(110.636 6419.668)" fill="#4fbac4"/>
    <path id="Path_918" data-name="Path 918" d="M339.382,266.914a1.708,1.708,0,0,0-1.708-1.708H323.138a1.537,1.537,0,0,0-1.363,2.239,12.581,12.581,0,0,1-4.408,16.213,1.519,1.519,0,0,0,0,2.554,12.583,12.583,0,0,1,1.5,19.987,1.4,1.4,0,0,0,.949,2.429h17.988a1.573,1.573,0,0,0,1.573-1.573Z" transform="translate(110.713 6520.436)" fill="#4fbac4"/>
    <path id="Path_919" data-name="Path 919" d="M209.92,286.349h17.988a1.4,1.4,0,0,0,.948-2.429,12.583,12.583,0,0,1,1.505-19.987,1.519,1.519,0,0,0,0-2.554,12.6,12.6,0,0,1-5.748-10.567c0-6.946,5-12.6,13.286-12.6h26.864a1.31,1.31,0,0,0,1.31-1.31v-3.22a1.4,1.4,0,0,0-1.4-1.4H209.908a1.561,1.561,0,0,0-1.561,1.561v50.929A1.573,1.573,0,0,0,209.92,286.349Z" transform="translate(184.02 6542.715)" fill="#4fbac4"/>
    <path id="Path_920" data-name="Path 920" d="M289.015,273.091a7.885,7.885,0,1,0-7.885,7.885A7.894,7.894,0,0,0,289.015,273.091Z" transform="translate(140.102 6520.436)" fill="#4fbac4"/>
    <path id="Path_921" data-name="Path 921" d="M276.847,441.105,259.991,424.25a1.755,1.755,0,0,0-2.482,0l-16.864,16.864a1.617,1.617,0,0,0,.23,2.472c4.892,3.413,11.074,4.978,17.821,4.978,6.8,0,13.008-1.568,17.917-4.986A1.616,1.616,0,0,0,276.847,441.105Z" transform="translate(162.48 6413.152)" fill="#4fbac4"/>
    <path id="Path_922" data-name="Path 922" d="M281.129,354.255a7.885,7.885,0,1,0-7.885-7.885A7.894,7.894,0,0,0,281.129,354.255Z" transform="translate(140.102 6470.845)" fill="#4fbac4"/>
    <path id="Path_923" data-name="Path 923" d="M215.826,431.272,230.6,416.5a1.4,1.4,0,0,0-.989-2.388H209.7a1.261,1.261,0,0,0-1.263,1.3,28.616,28.616,0,0,0,4.923,15.665A1.621,1.621,0,0,0,215.826,431.272Z" transform="translate(183.962 6419.668)" fill="#4fbac4"/>
    <path id="Path_924" data-name="Path 924" d="M183.06,526.813c0,2.1-1.174,3.154-3.008,3.154s-3.007-1.052-3.007-3.154V516.055h-3.863v11.076c0,4.352,3.056,6.651,6.87,6.651s6.87-2.3,6.87-6.651V516.055H183.06Z" transform="translate(207.818 6350.675)" fill="#374349"/>
    <rect id="Rectangle_45" data-name="Rectangle 45" width="7.335" height="3.35" transform="translate(397.48 6875.019)" fill="#374349"/>
    <path id="Path_925" data-name="Path 925" d="M262.649,520.178a4.367,4.367,0,0,0-3.521,1.443v-6.7h-3.643v17.7h3.594v-1.369a3.919,3.919,0,0,0,3.423,1.638c3.4,0,5.795-2.665,5.795-6.381C268.3,522.867,266.17,520.178,262.649,520.178Zm-.807,9.389a2.76,2.76,0,0,1-2.763-3.032,2.764,2.764,0,1,1,2.763,3.032Z" transform="translate(152.12 6351.442)" fill="#374349"/>
    <path id="Path_926" data-name="Path 926" d="M306.266,530.956a6.443,6.443,0,1,0,6.455,6.431A6.278,6.278,0,0,0,306.266,530.956Zm0,9.462a2.755,2.755,0,0,1-2.739-3.032,2.753,2.753,0,1,1,2.739,3.032Z" transform="translate(122.123 6340.591)" fill="#374349"/>
    <path id="Path_927" data-name="Path 927" d="M356.94,520.471h-4.816l-3.692,4.083v-9.633h-3.716v17.7h3.716V529.64l1.2-1.3,2.861,4.279h4.548l-4.841-7.042Z" transform="translate(91.734 6351.442)" fill="#374349"/>
    <path id="Path_928" data-name="Path 928" d="M397.81,542.066V532.09h-3.716v6.92a1.938,1.938,0,0,1-2.029,2.078,1.888,1.888,0,0,1-1.956-2.1v-6.9h-3.716v7.678a4.457,4.457,0,0,0,4.621,4.743,3.778,3.778,0,0,0,3.252-1.491,8.869,8.869,0,0,0,.1,1.223h3.57A19.123,19.123,0,0,1,397.81,542.066Z" transform="translate(63.529 6339.824)" fill="#374349"/>
  </g>
</svg>
