<svg xmlns="http://www.w3.org/2000/svg" width="269.06" height="125.18" viewBox="0 0 269.06 125.18">
  <g id="Group_1088" data-name="Group 1088" transform="translate(-704.642 -269.857)">
    <g id="Group_1080" data-name="Group 1080" transform="translate(706.666 269.857)">
      <g id="Group_1079" data-name="Group 1079">
        <path id="Path_976" data-name="Path 976" d="M835.554,277.263H833.82v-5.982h9.515l.5-.281,1.124,1.108a.465.465,0,0,1,.109.282.419.419,0,0,1-.109.249l-.234.3c-.157,5-2.2,8.342-6.249,10.232a4.414,4.414,0,0,0-1.39-1.343c3.828-1.328,5.9-4.436,6-9h-7.529Z" transform="translate(-833.82 -269.766)"/>
        <path id="Path_977" data-name="Path 977" d="M863.8,277.143H850.977v-1.5H863.8Z" transform="translate(-832.45 -269.395)"/>
        <path id="Path_978" data-name="Path 978" d="M873.287,275.35a18.153,18.153,0,0,1-2.484,3.56,4.735,4.735,0,0,0-1.61-.969,15.035,15.035,0,0,0,4.25-7.622l1.514.328c.188.03.281.139.281.265a.5.5,0,0,1-.171.3l-.252.266a19.518,19.518,0,0,1-.826,2.327h8.232v1.547H879.1a8.891,8.891,0,0,1-4.764,7.607,5.556,5.556,0,0,0-1.454-1.2,7.044,7.044,0,0,0,4.578-6.4Z" transform="translate(-830.995 -269.82)"/>
        <path id="Path_979" data-name="Path 979" d="M900.775,277.143H887.949v-1.5h12.826Z" transform="translate(-829.497 -269.395)"/>
        <path id="Path_980" data-name="Path 980" d="M907.343,274.261a19.8,19.8,0,0,1,3.047,1.531l-.782,1.484a18.965,18.965,0,0,0-2.936-1.515Zm.234,6.811a15.4,15.4,0,0,0,10.9-7.5,5.154,5.154,0,0,0,.858,1.155l.252.251a16.921,16.921,0,0,1-10.015,7.575c-.483.47-.578.531-.859.531-.14,0-.233-.078-.312-.234Zm1.47-10.232a16.087,16.087,0,0,1,3,1.843l-.906,1.39a12.928,12.928,0,0,0-2.812-1.8Z" transform="translate(-828.001 -269.778)"/>
        <path id="Path_981" data-name="Path 981" d="M926.4,280.785h5.639v-1.843h-5.452v-1.358h5.452v-1.8h-5.623v-1.358H933.6v8.217h-1.563v-.5H926.4Z" transform="translate(-826.426 -269.492)"/>
        <path id="Path_982" data-name="Path 982" d="M941.414,281.119a21.828,21.828,0,0,0,11.092-7.42,7.34,7.34,0,0,0,.857,1.452,22.618,22.618,0,0,1-10.246,7.248l-.266.375-.173.141h-.3l-.14-.157Zm1.25-10.091a30.84,30.84,0,0,1,3.3,2.234l-1.049,1.39a19.336,19.336,0,0,0-3.187-2.171Z" transform="translate(-825.227 -269.763)"/>
        <path id="Path_983" data-name="Path 983" d="M960.16,283.218a23.076,23.076,0,0,1-.812-5.935v-.594a22.269,22.269,0,0,1,.906-6.124l1.656.36c.156.031.248.125.248.234a.519.519,0,0,1-.124.251l-.219.312a17.679,17.679,0,0,0-.734,5.014v.609a18.762,18.762,0,0,0,.985,5.873Zm5.437-4.826a2.844,2.844,0,0,0-.626,1.64c0,.687.7,1.093,1.89,1.093h1.282a18.657,18.657,0,0,0,3.811-.469,5.409,5.409,0,0,0-.39,1.469,2.528,2.528,0,0,1-.046.3,18.053,18.053,0,0,1-3.328.267h-1.453c-2.123,0-3.481-.985-3.481-2.5a4.17,4.17,0,0,1,.812-2.343Zm1.2-5.655a17.433,17.433,0,0,0,4.375-.531,12.716,12.716,0,0,0-.205,1.609,23.25,23.25,0,0,1-4.03.485h-.686a15.976,15.976,0,0,1-2.25-.234,4.777,4.777,0,0,0-.2-1.546,14.477,14.477,0,0,0,2.56.218Z" transform="translate(-823.794 -269.8)"/>
        <path id="Path_984" data-name="Path 984" d="M983.692,270.5c.188.016.312.078.312.188a.52.52,0,0,1-.093.2l-.173.3a14.293,14.293,0,0,0-.312,2.5v.282a4.763,4.763,0,0,0,.2,1.561,40.336,40.336,0,0,1,4.264-1.218l.609,1.64a36.353,36.353,0,0,0-4.592,1.14c-2.764.921-4.045,1.8-4.045,2.811a1.2,1.2,0,0,0,.657,1.063,7.02,7.02,0,0,0,3.184.452h1.938a16.061,16.061,0,0,0,3.311-.375,5,5,0,0,0-.359,1.781c-.97.079-2.094.141-2.875.141h-2.75c-3.123,0-4.811-1.047-4.811-3.015,0-1.64,1.078-2.672,4.031-3.906a4.567,4.567,0,0,1-.515-2.093v-.266a30.737,30.737,0,0,1,.2-3.264Z" transform="translate(-822.292 -269.812)"/>
        <path id="Path_985" data-name="Path 985" d="M1001.247,270.544c.186.016.312.078.312.188a.5.5,0,0,1-.095.2l-.171.3a14.087,14.087,0,0,0-.312,2.5v.282a4.707,4.707,0,0,0,.2,1.561,40.291,40.291,0,0,1,4.265-1.218l.609,1.64a36.257,36.257,0,0,0-4.594,1.14c-2.78.921-4.045,1.8-4.045,2.827,0,1.078,1.063,1.5,3.843,1.5h1.936a16.034,16.034,0,0,0,3.311-.375,5.025,5.025,0,0,0-.358,1.781c-.969.079-2.093.141-2.875.141h-2.748c-3.124,0-4.811-1.047-4.811-3.015,0-1.64,1.078-2.672,4.03-3.906a4.556,4.556,0,0,1-.516-2.093v-.266a31.032,31.032,0,0,1,.2-3.264Zm4.076,3.312a11.655,11.655,0,0,0-1.438-1.984l1.064-.781a11.214,11.214,0,0,1,1.56,2Zm1.827-1.234a12.058,12.058,0,0,0-1.436-1.984l1.06-.781a10.571,10.571,0,0,1,1.563,2Z" transform="translate(-820.89 -269.857)"/>
        <path id="Path_986" data-name="Path 986" d="M1019.334,277.3c-.922.093-1.578.156-2.124.156-1.283,0-2.141-.672-2.141-1.671a2.035,2.035,0,0,1,.391-1.141l1.64-.14a1.733,1.733,0,0,0-.453,1.015c0,.282.234.407.688.407a15.06,15.06,0,0,0,1.953-.157l-.046-2.3c-1.829.064-3.531.094-5.157.094-.029-.452-.061-.718-.186-1.578,1.015.031,1.766.047,2.686.047.453,0,.766,0,2.609-.047l-.046-2,1.453-.048h.063c.281,0,.374.063.374.219a.272.272,0,0,1-.015.109l-.124.485.015,1.139c1.687-.046,3.357-.156,5.076-.312v1.547c-1.812.124-3.343.2-5.076.265l.046,2.234a32.314,32.314,0,0,0,3.342-.516l.064,1.609c-.969.125-1.485.188-3.375.407l.063,2.249a16.013,16.013,0,0,1,4.124,2.077,3.954,3.954,0,0,0-1.11,1.437,10.809,10.809,0,0,0-3.014-1.858v.469c0,1.14-1.187,1.858-3.108,1.858-2.064,0-3.312-.827-3.312-2.187,0-1.406,1.266-2.264,3.326-2.264a7.666,7.666,0,0,1,1.407.124Zm.078,3.233a5.3,5.3,0,0,0-1.531-.234c-1.015,0-1.624.312-1.624.828s.624.875,1.593.875c.921,0,1.563-.36,1.563-.891Z" transform="translate(-819.438 -269.85)"/>
        <path id="Path_987" data-name="Path 987" d="M1032.188,278.964a14.212,14.212,0,0,0,.811-4.748v-.328a8.985,8.985,0,0,0-.078-1.14l1.843.079c.157.015.252.078.252.187a.712.712,0,0,1-.11.282l-.173.3V274a12.968,12.968,0,0,1-.469,3.421,9.166,9.166,0,0,1,5.264-2.031,3.1,3.1,0,0,1,3.188,3.39,4.1,4.1,0,0,1-2.249,3.733c-1.625.86-2.891,1.124-5.858,1.2a5.755,5.755,0,0,0-.671-1.86c.592.031,1,.047,1.56.047,3.452,0,5.484-1.188,5.484-3.233a1.617,1.617,0,0,0-1.593-1.812c-1.7,0-3.469.952-5.763,3.124Zm3.781-8.919a8.222,8.222,0,0,1,3.655,1.609,15.7,15.7,0,0,0-1.094,1.281,7.858,7.858,0,0,0-3.531-1.563A4.773,4.773,0,0,0,1035.969,270.045Z" transform="translate(-817.977 -269.842)"/>
        <path id="Path_988" data-name="Path 988" d="M1054.3,270.948a13.387,13.387,0,0,1-.25,1.452c.624-.078,1.359-.2,2.078-.359l-.172,1.563c-.7.124-1.516.233-2.2.3a35.207,35.207,0,0,1-3.155,8.326,8.05,8.05,0,0,0-1.592-.984,27.546,27.546,0,0,0,3.014-7.185c-.969.109-1.688.157-2.4.187l-.233-1.578a28.786,28.786,0,0,0,2.981-.124c.173-1.063.312-1.952.391-2.655l1.655.218a.223.223,0,0,1,.219.219.466.466,0,0,1-.093.266Zm2.295,7.2a4.2,4.2,0,0,1-.248-1.312c0-1.046.873-1.891,2.2-2.14a15.993,15.993,0,0,0-2.248-.7,3.8,3.8,0,0,0,.578-1.2,23.418,23.418,0,0,1,4.7,1.781,5.324,5.324,0,0,0-.594,1.36,3.525,3.525,0,0,0-1.234-.266c-1.061,0-1.795.515-1.795,1.233a4.721,4.721,0,0,0,.39,1.61,8.777,8.777,0,0,1,.374,1.39,12.1,12.1,0,0,1,3.392,2.343,3.2,3.2,0,0,0-1.252,1.109,12.45,12.45,0,0,0-2.14-1.766,1.671,1.671,0,0,1-.671,1.172,3.893,3.893,0,0,1-2.328.578c-1.795,0-2.89-.781-2.89-2.061,0-1.234,1.095-2.046,2.75-2.046a4.884,4.884,0,0,1,1.453.2A8.449,8.449,0,0,0,1056.6,278.149Zm-.936,2.358c-.781,0-1.25.281-1.25.751,0,.515.438.781,1.282.781,1.046,0,1.436-.266,1.529-1.016a.248.248,0,0,1,.017-.109A3.386,3.386,0,0,0,1055.66,280.508Z" transform="translate(-816.634 -269.855)"/>
        <path id="Path_989" data-name="Path 989" d="M1069.61,271.588c.171.031.264.125.264.251a.562.562,0,0,1-.139.3l-.233.312-.032.2a10.134,10.134,0,0,0-.3,2.484v.766c0,2.358,1.078,5.108,2,5.108.421,0,.655-.562.952-2.218a6.564,6.564,0,0,0,1.171,1.657c-.421,1.827-1.06,2.717-1.968,2.717-.812,0-1.78-.812-2.514-2.093a10.849,10.849,0,0,1-1.375-5.264v-.733a13.939,13.939,0,0,1,.485-3.827Zm7.7,2.234a19.529,19.529,0,0,1,2.859,5.3,6.666,6.666,0,0,0-2,.343,16.572,16.572,0,0,0-2.436-5.093Z" transform="translate(-815.161 -269.746)"/>
      </g>
    </g>
    <g id="Group_1081" data-name="Group 1081" transform="translate(743.673 327.838)">
      <path id="Path_990" data-name="Path 990" d="M747,326.358v12.306c0,2.854.239,4.133.921,5.024.743.982,2.289,1.546,4.251,1.546s3.507-.565,4.249-1.546c.685-.891.922-2.169.922-5.024V326.358h3.329v12.306c0,4.014-.475,5.678-2.021,7.164-1.368,1.367-3.508,2.022-6.48,2.022s-5.113-.654-6.48-2.022c-1.546-1.486-2.022-3.15-2.022-7.164V326.358Z" transform="translate(-743.673 -323.326)"/>
      <path id="Path_991" data-name="Path 991" d="M771.916,334.974h10.077v2.615H771.916Z" transform="translate(-741.417 -322.638)"/>
      <path id="Path_992" data-name="Path 992" d="M796.386,326.358v7.223a7.084,7.084,0,0,1,4.19-1.248c4.251,0,7.106,3.121,7.106,7.759s-2.854,7.758-7.106,7.758a7.259,7.259,0,0,1-4.19-1.219l-1.1.951h-2.171V326.358Zm0,17A5.271,5.271,0,0,0,800.4,345.2c2.467,0,3.924-1.9,3.924-5.112,0-3.181-1.457-5.083-3.924-5.083a5.271,5.271,0,0,0-4.012,1.842Z" transform="translate(-739.724 -323.326)"/>
      <path id="Path_993" data-name="Path 993" d="M832.9,339.738a7.642,7.642,0,1,1-7.639-7.847A7.651,7.651,0,0,1,832.9,339.738Zm-11.86,0c0,2.913,1.724,4.9,4.221,4.9,2.527,0,4.22-1.991,4.22-4.993,0-2.973-1.693-4.964-4.22-4.964C822.707,334.686,821.042,336.647,821.042,339.738Z" transform="translate(-737.767 -322.884)"/>
      <path id="Path_994" data-name="Path 994" d="M857.373,347.582h-3.745l-4.429-7.461-2.557,2.646v4.815h-3.27V326.358h3.27V338.4l5.8-5.766h3.953l-4.9,5.112Z" transform="translate(-735.71 -323.326)"/>
      <path id="Path_995" data-name="Path 995" d="M876.9,347.118v-1.367a7.871,7.871,0,0,1-4.994,1.635c-3.538,0-5.291-1.754-5.291-5.321v-9.9h3.271v9.9c0,1.723.713,2.408,2.466,2.408,1.456,0,2.943-.8,4.548-2.408v-9.9h3.3v14.951Z" transform="translate(-733.854 -322.862)"/>
      <path id="Path_996" data-name="Path 996" d="M909.634,346.063c3.358-.624,4.963-1.219,6.895-2.586a7.447,7.447,0,0,0,3.3-6.272,6.919,6.919,0,0,0-3.121-6,7.85,7.85,0,0,0-3.924-1.308,59.824,59.824,0,0,1-2.2,8.114c-2.111,5.768-4.282,8.442-6.926,8.442a4.743,4.743,0,0,1-3.538-1.576,9.469,9.469,0,0,1-1.725-5.737,12.666,12.666,0,0,1,12.93-12.366,14.561,14.561,0,0,1,7.075,1.813,9.413,9.413,0,0,1,4.785,8.65,10.8,10.8,0,0,1-2.11,6.6,14.776,14.776,0,0,1-6.688,4.548c-.624.208-1.338.446-2.17.684A11.76,11.76,0,0,0,909.634,346.063Zm-3.3-15.16a9.859,9.859,0,0,0-4.638,8.234c0,2.437.714,3.924,1.933,3.924.713,0,1.486-.862,2.378-2.676,1.635-3.3,2.288-5.261,3.6-10.522A6.756,6.756,0,0,0,906.334,330.9Z" transform="translate(-731.316 -323.293)"/>
      <path id="Path_997" data-name="Path 997" d="M958.245,338.324a.565.565,0,0,1,.268.446c0,.268-.239.505-.833.744-4.727,6.539-12.633,10.582-21.848,11.206a12.453,12.453,0,0,0-2.052-2.734,35.474,35.474,0,0,0,12.842-3.122,13.126,13.126,0,0,0-2.676-2.615,34.6,34.6,0,0,1-5.5,2.378,11.542,11.542,0,0,0-2.646-2.318,26.05,26.05,0,0,0,14.328-9.245l2.467,1.457a.759.759,0,0,1,.3.475c0,.268-.356.505-1.039.684a18.34,18.34,0,0,0-1.338,1.368h4.726l.892-.268ZM954.44,327.5c.239.208.417.417.417.565,0,.3-.3.536-1.13.951-4.489,5.262-9.988,8.442-17.746,10.256a7.61,7.61,0,0,0-2.051-2.646,24.465,24.465,0,0,0,9.749-3.21,15.356,15.356,0,0,0-2.645-2.556,29.154,29.154,0,0,1-3.478,1.576,13.81,13.81,0,0,0-2.675-2.11q7.312-2.587,10.166-6.778l2.407,1.219c.268.119.388.3.388.446,0,.178-.149.356-.417.475l-.475.238-.505.417h5.172l.892-.3ZM944.1,328.812l-.714.505a18.719,18.719,0,0,1,2.853,2.586,16.461,16.461,0,0,0,3.954-3.092Zm3.864,10.671-1.664,1.248a20.524,20.524,0,0,1,3,2.586,27.833,27.833,0,0,0,4.786-3.835Z" transform="translate(-965.49 -283.55)"/>
      <path id="Path_998" data-name="Path 998" d="M968.918,337.556h6.154V334.97H978.1v2.586h5.529v2.705h-5.141a17.7,17.7,0,0,0,5.707,4.756,7.891,7.891,0,0,0-2.111,2.022,17.716,17.716,0,0,1-3.984-3.329v6.778h-3.031V343.71a17.294,17.294,0,0,1-4.9,4.7,9.141,9.141,0,0,0-2.081-2.169,18.905,18.905,0,0,0,6.183-5.975h-5.352Zm13.793-11.949a.74.74,0,0,1,.179.416c0,.267-.387.416-1.07.416a41.111,41.111,0,0,1-11.624,2.824,15.3,15.3,0,0,0-1.783-2.527c5.587-.5,8.828-1.248,12.515-2.882Zm-11.206,9.6a23.767,23.767,0,0,0-2.111-4.133l2.349-1.248a31.266,31.266,0,0,1,2.318,4.162Zm4.578-1.428A32.881,32.881,0,0,0,974,329.887l2.469-1.159a18.021,18.021,0,0,1,2.051,3.864Zm7.966-4.607a.515.515,0,0,1,.3.416c0,.207-.149.446-.537.773a41.885,41.885,0,0,1-2.734,5.2,9.888,9.888,0,0,0-2.5-1.279,22.569,22.569,0,0,0,3.031-6.243Zm10.7,11.83a.552.552,0,0,1,.268.387c0,.178-.268.356-.861.624a34.1,34.1,0,0,1-10.792,8.5,9.291,9.291,0,0,0-2.377-2.14,29.373,29.373,0,0,0,11.682-8.887Zm-1.456-15.457a.419.419,0,0,1,.238.327c0,.208-.178.446-.624.743a33.16,33.16,0,0,1-7.045,7.581,15.8,15.8,0,0,0-2.765-1.606,26.6,26.6,0,0,0,7.937-8.382Zm.98,7.4a.669.669,0,0,1,.239.446c0,.208-.178.357-.715.6a30.929,30.929,0,0,1-7.431,7.134,7.811,7.811,0,0,0-2.288-1.9,25.766,25.766,0,0,0,8.026-7.668Z" transform="translate(-962.75 -283.526)"/>
      <path id="Path_999" data-name="Path 999" d="M1014.683,325.93a25.131,25.131,0,0,1-.475,2.764c1.189-.148,2.586-.387,3.952-.684l-.327,2.973c-1.337.238-2.882.446-4.19.565a67.023,67.023,0,0,1-6.005,15.843,15.554,15.554,0,0,0-3.032-1.872,52.478,52.478,0,0,0,5.737-13.673c-1.842.208-3.211.3-4.578.356l-.446-3a54.922,54.922,0,0,0,5.677-.238c.327-2.022.6-3.716.744-5.054l3.151.417a.422.422,0,0,1,.416.416.873.873,0,0,1-.178.505Zm4.369,13.7a7.9,7.9,0,0,1-.475-2.5c0-1.992,1.665-3.6,4.192-4.072a30.6,30.6,0,0,0-4.282-1.338,7.071,7.071,0,0,0,1.1-2.289,44.325,44.325,0,0,1,8.949,3.39,10,10,0,0,0-1.13,2.585,6.692,6.692,0,0,0-2.349-.505c-2.022,0-3.419.981-3.419,2.349a8.991,8.991,0,0,0,.743,3.061,17.123,17.123,0,0,1,.715,2.646,23.03,23.03,0,0,1,6.449,4.459,6.1,6.1,0,0,0-2.378,2.111,23.8,23.8,0,0,0-4.071-3.359,3.188,3.188,0,0,1-1.279,2.229,7.4,7.4,0,0,1-4.43,1.1c-3.419,0-5.5-1.487-5.5-3.923,0-2.349,2.08-3.9,5.231-3.9a9.264,9.264,0,0,1,2.764.387A15.544,15.544,0,0,0,1019.052,339.633Zm-1.783,4.488c-1.487,0-2.378.536-2.378,1.428,0,.98.832,1.486,2.437,1.486,1.991,0,2.734-.505,2.913-1.932a.524.524,0,0,1,.029-.208A6.458,6.458,0,0,0,1017.27,344.121Z" transform="translate(-959.833 -283.521)"/>
      <path id="Path_1000" data-name="Path 1000" d="M1039.283,331.888h6.331v-3.746a44.2,44.2,0,0,1-4.756.8,8.586,8.586,0,0,0-1.754-2.766A48.26,48.26,0,0,0,1051,323.743l2.021,1.991c.268.268.268.268.268.387,0,.268-.356.417-.98.417h-.268a30.181,30.181,0,0,1-3.419.95v4.4h5.648v2.705h-5.648v.356a27.079,27.079,0,0,0,5.768,6.48,7.812,7.812,0,0,0-1.934,2.556,55.62,55.62,0,0,1-3.834-4.518v11.058h-3V340.033a25.355,25.355,0,0,1-5.8,6.806,8.892,8.892,0,0,0-1.635-2.972,24.676,24.676,0,0,0,7.431-9.274h-6.331Zm15.933-5.708h3.032v18.49h-3.032Zm4.042,24.286a7.8,7.8,0,0,0-1.366-3.21h2.853c.535,0,.683-.149.713-.684V324.219h3v22.769c-.059,2.051-.833,2.943-2.735,3.151Z" transform="translate(-957.151 -283.535)"/>
      <path id="Path_1001" data-name="Path 1001" d="M1098.714,325.257v21.878a2.553,2.553,0,0,1-2.5,2.764l-2.082.327a13.024,13.024,0,0,0-1.4-3.329h2.378c.446-.03.565-.119.565-.536v-5.38h-5.648v8.679h-3.092v-8.679h-5.827a19.931,19.931,0,0,1-4.28,9.572,11.2,11.2,0,0,0-2.586-2.289c3-3.359,4.132-6.509,4.1-11.623V325.257Zm-17.359,9.155c0,1.9-.029,2.111-.059,3.865h5.648v-3.865Zm0-6.48v3.775h5.588v-3.775Zm8.68,0v3.775h5.648v-3.775Zm0,6.48v3.865h5.648v-3.865Z" transform="translate(-954.27 -283.414)"/>
      <path id="Path_1002" data-name="Path 1002" d="M1109.7,328.718h11.445v-4.727h3.032v4.727h11.532v2.705h-11.652a26.023,26.023,0,0,1-.505,4.132h9.542v4.9c-.029,6.272-1.694,9.215-5.468,9.661l-1.428.208a8.952,8.952,0,0,0-1.07-3.092h1.842c2.023-.03,3.093-2.318,3.122-6.718v-2.23h-7.254a21.385,21.385,0,0,1-10.551,12.425,10.683,10.683,0,0,0-2.438-2.5c7.1-3.538,10.91-9.274,11.147-16.794h-11.3Z" transform="translate(-951.44 -283.515)"/>
      <path id="Path_1003" data-name="Path 1003" d="M1146.552,331.513a28.975,28.975,0,0,1,4.428,3.419l-1.932,2.259a19.224,19.224,0,0,0-4.25-3.507Zm-1.693,15.815a36.642,36.642,0,0,0,6.271-7.669,7,7,0,0,0,1.635,2.5,57.256,57.256,0,0,1-5.024,6.806c-.059.685-.268,1.041-.536,1.041a.844.844,0,0,1-.5-.268Zm3.774-23.365a24.178,24.178,0,0,1,4.37,3.359l-1.7,2.2a25.1,25.1,0,0,0-4.281-3.448Zm6.421,22.74a39.709,39.709,0,0,0,4.013-8.709h-8v-2.646h8.65v-4.013h-6.658V328.63h6.658v-4.578h3.032v4.578h6.57v2.705h-6.57v4.013h8.592v2.646h-9.1a42.02,42.02,0,0,1-3.656,8.293l6.868-.862a35.3,35.3,0,0,0-2.289-3.27l2.436-1.308a43.615,43.615,0,0,1,5.114,7.877l-2.735,1.338a22.661,22.661,0,0,0-1.16-2.437l-13.078,2.11c-.327.387-.536.505-.8.505a.633.633,0,0,1-.595-.416l-1.041-2.646Z" transform="translate(-948.636 -283.517)"/>
    </g>
    <g id="Group_1082" data-name="Group 1082" transform="translate(704.642 296.624)">
      <path id="Path_1004" data-name="Path 1004" d="M963.043,303.343h-1.08v-7.619H831.946v-1.08h131.1Z" transform="translate(-831.946 -294.644)"/>
      <rect id="Rectangle_2189" data-name="Rectangle 2189" width="133.271" height="1.08" transform="translate(135.789)"/>
    </g>
  </g>
</svg>
