<svg xmlns="http://www.w3.org/2000/svg" width="30" height="24.365" viewBox="0 0 30 24.365">
  <path id="Path_487" data-name="Path 487" d="M30.442-9.964a12.327,12.327,0,0,1-3.541.952A6.132,6.132,0,0,0,29.6-12.4a12.1,12.1,0,0,1-3.9,1.485,6.134,6.134,0,0,0-4.492-1.942,6.146,6.146,0,0,0-6.148,6.148A6.94,6.94,0,0,0,15.214-5.3,17.477,17.477,0,0,1,2.536-11.734a6.1,6.1,0,0,0-.838,3.1A6.144,6.144,0,0,0,4.439-3.511a6.193,6.193,0,0,1-2.779-.78v.076A6.149,6.149,0,0,0,6.59,1.819a6.5,6.5,0,0,1-1.618.209,7.748,7.748,0,0,1-1.161-.1A6.159,6.159,0,0,0,9.56,6.2,12.314,12.314,0,0,1,1.927,8.824,12.712,12.712,0,0,1,.442,8.748a17.374,17.374,0,0,0,9.442,2.76c11.307,0,17.494-9.365,17.494-17.494,0-.266,0-.533-.019-.8A13.218,13.218,0,0,0,30.442-9.964Z" transform="translate(-0.442 12.857)" fill="#fff"/>
</svg>
