<svg xmlns="http://www.w3.org/2000/svg" width="295.927" height="47.747" viewBox="0 0 295.927 47.747">
  <g id="Group_1109" data-name="Group 1109" transform="translate(-79.073 -80)">
    <rect id="Rectangle_52" data-name="Rectangle 52" width="188.519" height="22.227" transform="translate(186.48 80)" fill="#4fbac4"/>
    <rect id="Rectangle_53" data-name="Rectangle 53" width="295.927" height="22.227" transform="translate(79.073 105.52)" fill="#4fbac4"/>
    <g id="Group_64" data-name="Group 64" transform="translate(86.787 85.926)">
      <g id="Group_10" data-name="Group 10" transform="translate(0 0)">
        <path id="Path_602" data-name="Path 602" d="M963.638,513.641c-.085.119-.168.232-.252.343a.226.226,0,0,1-.384-.041,4.959,4.959,0,0,0-.436-.748.225.225,0,0,1,.009-.269,14.955,14.955,0,0,0,2.563-4.766.224.224,0,0,1,.281-.147l.807.252c.1.034.182.114.182.182,0,.086-.04.171-.186.332a.238.238,0,0,0-.045.073,20.634,20.634,0,0,1-.958,2.21.227.227,0,0,0-.025.1v6.96a.226.226,0,0,1-.226.226h-.695a.226.226,0,0,1-.226-.226v-4.351A.226.226,0,0,0,963.638,513.641ZM966.2,516.7h2.158a.226.226,0,0,0,.226-.226v-3.817a.226.226,0,0,0-.226-.226h-2.68a.226.226,0,0,1-.226-.226v-.561a.226.226,0,0,1,.226-.226h2.68a.226.226,0,0,0,.226-.226v-2.8a.226.226,0,0,1,.226-.226h.706a.226.226,0,0,1,.226.226v2.8a.226.226,0,0,0,.226.226h2.442a.226.226,0,0,1,.226.226v.561a.226.226,0,0,1-.226.226h-2.442a.226.226,0,0,0-.226.226v3.817a.226.226,0,0,0,.226.226h2.17a.226.226,0,0,1,.226.226v.584a.226.226,0,0,1-.226.226H966.2a.226.226,0,0,1-.226-.226v-.584A.226.226,0,0,1,966.2,516.7Z" transform="translate(-855.341 -508.003)" fill="#fff"/>
        <path id="Path_603" data-name="Path 603" d="M992.61,515.771a.226.226,0,0,1,.226-.226h3.428V515.2h-4.382a.226.226,0,0,1-.226-.226v-.493a.226.226,0,0,1,.226-.226h4.382v-.341h-3.428a.226.226,0,0,1-.226-.226V513.2a.226.226,0,0,1,.226-.226h3.428v-.364h-2.815a.226.226,0,0,1-.226-.226v-1.768a.226.226,0,0,1,.226-.226h2.815v-.364h-4.211a.226.226,0,0,1-.226-.226v-.492a.226.226,0,0,1,.226-.226h3.985a.226.226,0,0,0,.226-.226v-.391a.226.226,0,0,1,.226-.226h.661a.226.226,0,0,1,.226.226v.391a.226.226,0,0,0,.226.226h3.883a.226.226,0,0,1,.226.226v.492a.226.226,0,0,1-.226.226h-4.109v.364h2.815a.226.226,0,0,1,.226.226v1.768a.226.226,0,0,1-.226.226h-2.815v.364h2.94a.226.226,0,0,1,.226.226v.834a.225.225,0,0,0,.226.226h.944a.226.226,0,0,1,.226.226v.493a.226.226,0,0,1-.226.226h-.944a.226.226,0,0,0-.226.226v1.028a.226.226,0,0,1-.226.226h-.852v-.194H997.6a.226.226,0,0,0-.226.226v.411c-.023.854-.318,1.149-1.271,1.286l-.34.043a.225.225,0,0,1-.247-.17,3.325,3.325,0,0,0-.29-.751.227.227,0,0,1,.2-.328h.547c.193,0,.284-.091.284-.3v-.421h-3.428a.226.226,0,0,1-.226-.226Zm1.68-4.292v.037a.226.226,0,0,0,.226.226h1.522a.226.226,0,0,0,.226-.226v-.037a.226.226,0,0,0-.226-.226h-1.522A.226.226,0,0,0,994.289,511.479Zm3.087,0v.037a.226.226,0,0,0,.226.226h1.523a.226.226,0,0,0,.226-.226v-.037a.226.226,0,0,0-.226-.226H997.6A.226.226,0,0,0,997.376,511.479Zm0,2.438v.341h2.088v-.341Zm0,1.286v.341h2.088V515.2Z" transform="translate(-870.289 -508.123)" fill="#fff"/>
        <path id="Path_604" data-name="Path 604" d="M1027.714,509.168c.136.011.227.057.227.137a.375.375,0,0,1-.068.148l-.125.217a10.365,10.365,0,0,0-.227,1.821v.2a4.144,4.144,0,0,0,.079.9.225.225,0,0,0,.293.163c.739-.253,1.758-.55,2.681-.765a.225.225,0,0,1,.262.143l.282.762a.227.227,0,0,1-.168.3,24.983,24.983,0,0,0-3.077.777c-2.009.672-2.939,1.309-2.939,2.049a.876.876,0,0,0,.477.774,5.086,5.086,0,0,0,2.315.33h1.407a11.475,11.475,0,0,0,2.025-.2.226.226,0,0,1,.259.285,3.576,3.576,0,0,0-.133.738.223.223,0,0,1-.2.213c-.655.05-1.377.087-1.892.087h-2c-2.27,0-3.5-.763-3.5-2.2,0-1.153.729-1.893,2.708-2.752a.225.225,0,0,0,.124-.291,3.374,3.374,0,0,1-.278-1.328v-.193a21.507,21.507,0,0,1,.125-2.165.228.228,0,0,1,.235-.205Z" transform="translate(-886.731 -508.576)" fill="#fff"/>
        <path id="Path_605" data-name="Path 605" d="M1051.387,513.25c-.085.119-.172.234-.294.39a.228.228,0,0,1-.348.012,4.036,4.036,0,0,0-.523-.508.228.228,0,0,1-.03-.324,11.116,11.116,0,0,0,2.378-4.588.228.228,0,0,1,.292-.151l.775.274c.125.045.2.114.2.182s-.041.128-.151.207a.245.245,0,0,0-.089.119,16.167,16.167,0,0,1-.626,1.679.237.237,0,0,0-.019.09v7.48a.226.226,0,0,1-.226.226h-.706a.226.226,0,0,1-.226-.226V513.38A.226.226,0,0,0,1051.387,513.25Zm2.147-2.594h2.555a.226.226,0,0,0,.226-.226v-2.053a.226.226,0,0,1,.226-.226h.694a.226.226,0,0,1,.226.226v2.053a.226.226,0,0,0,.226.226h2.431a.226.226,0,0,1,.226.226v.573a.226.226,0,0,1-.226.226h-2.245a.227.227,0,0,0-.2.329,9.809,9.809,0,0,0,2.635,3.329.227.227,0,0,1,.05.315,3.661,3.661,0,0,0-.355.616.226.226,0,0,1-.347.076,8.956,8.956,0,0,1-1.778-2.028.226.226,0,0,0-.414.125v3.671a.226.226,0,0,1-.226.226h-.694a.226.226,0,0,1-.226-.226v-3.589a.226.226,0,0,0-.412-.128,12.134,12.134,0,0,1-1.782,1.978.227.227,0,0,1-.353-.053,3.212,3.212,0,0,0-.422-.6.228.228,0,0,1,.026-.328,9.325,9.325,0,0,0,2.7-3.394.226.226,0,0,0-.2-.324h-2.333a.226.226,0,0,1-.226-.226v-.573A.226.226,0,0,1,1053.534,510.656Z" transform="translate(-900.299 -508.037)" fill="#fff"/>
        <path id="Path_606" data-name="Path 606" d="M1083.974,509.409v7.2a.226.226,0,0,1-.226.226h-.524a.226.226,0,0,1-.226-.226v-.345a.226.226,0,0,0-.226-.226h-.321a.226.226,0,0,0-.226.226v.664a.226.226,0,0,1-.226.226h-.535a.226.226,0,0,1-.226-.226v-7.516a.226.226,0,0,1,.226-.226h2.283A.226.226,0,0,1,1083.974,509.409Zm-1.748.945v1.563a.226.226,0,0,0,.226.226h.321a.226.226,0,0,0,.226-.226v-1.563a.226.226,0,0,0-.226-.226h-.321A.226.226,0,0,0,1082.226,510.354Zm0,2.959v1.552a.226.226,0,0,0,.226.226h.321a.226.226,0,0,0,.226-.226v-1.552a.226.226,0,0,0-.226-.226h-.321A.226.226,0,0,0,1082.226,513.313Zm2.348-4.608h2.567a.226.226,0,0,1,.226.226v2.928a.226.226,0,0,1-.226.226h-1.489a.226.226,0,0,0-.226.226v.8a.226.226,0,0,0,.226.226h1.33a.226.226,0,0,1,.226.226v.493a.226.226,0,0,1-.226.226h-1.33a.226.226,0,0,0-.226.226v.8a.226.226,0,0,0,.226.226h1.33a.226.226,0,0,1,.226.226v.493a.226.226,0,0,1-.226.226h-1.33a.226.226,0,0,0-.226.226v1.734a.226.226,0,0,1-.226.226h-.626a.226.226,0,0,1-.226-.226v-9.508A.226.226,0,0,1,1084.574,508.7Zm.852,1.159v1.051a.226.226,0,0,0,.226.226h.388a.226.226,0,0,0,.226-.226v-1.051a.226.226,0,0,0-.226-.226h-.388A.226.226,0,0,0,1085.427,509.864Zm1.873,2.96a.226.226,0,0,1,.226-.226h2.419l.272-.159.772.592c.079.057.113.114.113.16,0,.079-.057.17-.227.352a7.362,7.362,0,0,1-1.078,2.767.227.227,0,0,0,.033.287,4.562,4.562,0,0,0,1.2.9.227.227,0,0,1,.068.354,2.775,2.775,0,0,0-.4.536.228.228,0,0,1-.325.071,5.135,5.135,0,0,1-1.213-1.078.227.227,0,0,0-.318-.024,6.052,6.052,0,0,1-2.082,1.244.227.227,0,0,1-.262-.1,1.978,1.978,0,0,0-.384-.48.226.226,0,0,1,.085-.376,5.126,5.126,0,0,0,2.078-1.157.224.224,0,0,0,.044-.27,8.089,8.089,0,0,1-.814-2.673h-.2Zm.68-1.683h1.489a.226.226,0,0,0,.226-.226v-1.051a.226.226,0,0,0-.226-.226h-1.489a.226.226,0,0,1-.226-.226v-.481a.226.226,0,0,1,.226-.226h2.567a.226.226,0,0,1,.226.226v2.928a.226.226,0,0,1-.226.226h-2.567a.226.226,0,0,1-.226-.226v-.493A.226.226,0,0,1,1087.979,511.141Zm.493,2.672a5.577,5.577,0,0,0,.4,1.348.227.227,0,0,0,.405.021,4.232,4.232,0,0,0,.476-1.37.228.228,0,0,0-.222-.27h-.838A.228.228,0,0,0,1088.472,513.813Z" transform="translate(-916.258 -508.363)" fill="#fff"/>
        <path id="Path_607" data-name="Path 607" d="M1112.274,513.584a4.567,4.567,0,0,0,2.505-1.854.226.226,0,0,0-.207-.346c-.454.03-.945.046-1.518.055a.232.232,0,0,1-.23-.2,3.18,3.18,0,0,0-.172-.656.226.226,0,0,1,.221-.308c.51.026.759.026,1.124.026.481,0,.835-.009,1.165-.04a.226.226,0,0,0,.195-.164,6.754,6.754,0,0,0,.205-1.07.226.226,0,0,1,.261-.2l1.045.176c.1.022.17.079.17.148a.2.2,0,0,1-.1.159l-.182.136a2.786,2.786,0,0,1-.073.376.226.226,0,0,0,.246.279,14.411,14.411,0,0,0,1.743-.341.225.225,0,0,1,.283.206,6.163,6.163,0,0,0,.067.7.228.228,0,0,1-.185.256c-.87.16-1.651.26-2.436.333a.228.228,0,0,0-.186.137,4.58,4.58,0,0,1-.306.594.227.227,0,0,0,.23.344,2.43,2.43,0,0,1,.356-.027,1.084,1.084,0,0,1,1.1.849.225.225,0,0,0,.293.144,10.171,10.171,0,0,0,2.046-.963.227.227,0,0,1,.321.08l.518.937a.217.217,0,0,1,.034.114c0,.1-.091.159-.227.159h-.25c-.477.171-.556.193-.908.318-.181.069-.454.171-.805.308l-.613.228-.284.113v1.625a.227.227,0,0,1-.22.226c-.291.01-.52.028-.713.054a.227.227,0,0,1-.258-.223v-.961a.227.227,0,0,0-.313-.209c-1.4.566-1.843.941-1.843,1.515,0,.455.533.683,1.623.683h.647a16.451,16.451,0,0,0,2.849-.293.225.225,0,0,1,.248.3,4.373,4.373,0,0,0-.2.776.225.225,0,0,1-.193.2,24.363,24.363,0,0,1-2.847.149h-.919c-1.566,0-2.463-.615-2.463-1.707a2.114,2.114,0,0,1,.885-1.685,8.343,8.343,0,0,1,2.248-1.15.222.222,0,0,0,.128-.3.487.487,0,0,0-.492-.269c-.682,0-1.342.331-3.2,1.634a.226.226,0,0,1-.351-.14l-.2-.974A.227.227,0,0,1,1112.274,513.584Z" transform="translate(-932.106 -508.426)" fill="#fff"/>
        <path id="Path_608" data-name="Path 608" d="M1139.639,515.465a23.58,23.58,0,0,0,.97-3.545.227.227,0,0,0-.221-.273h-.677a.226.226,0,0,1-.226-.226v-.572a.226.226,0,0,1,.226-.226h.891a.227.227,0,0,0,.224-.2c.122-.965.161-1.4.191-2.005a.226.226,0,0,1,.254-.213l.836.106c.147.023.238.08.238.171s-.049.153-.159.258a.236.236,0,0,0-.075.151l-.073.969-.046.517a.226.226,0,0,0,.225.246h.457l.159-.171.863.216c.216.057.34.148.34.239,0,.064-.051.128-.164.2a.238.238,0,0,0-.108.174,12.134,12.134,0,0,1-.879,4.074.227.227,0,0,0,.064.271c.381.307.664.552,1.115.982a.227.227,0,0,1,.018.31l-.475.566a.227.227,0,0,1-.346,0,6.915,6.915,0,0,0-.822-.831.228.228,0,0,0-.338.044,7.072,7.072,0,0,1-1.54,1.623.228.228,0,0,1-.323-.048,2.017,2.017,0,0,0-.475-.461.226.226,0,0,1,.006-.364,5.752,5.752,0,0,0,1.436-1.408.223.223,0,0,0-.078-.313l-.062-.035a.225.225,0,0,0-.318.131l-.027.082a.226.226,0,0,1-.306.136l-.656-.291A.226.226,0,0,1,1139.639,515.465Zm2.15-3.632a26.054,26.054,0,0,1-.594,2.587.227.227,0,0,0,.134.269,2.68,2.68,0,0,1,.3.138.225.225,0,0,0,.315-.108,10.789,10.789,0,0,0,.652-2.818.227.227,0,0,0-.224-.255h-.362A.228.228,0,0,0,1141.789,511.833Zm3.35,6.375a3.679,3.679,0,0,0-.257-.633.226.226,0,0,1,.2-.328h.666c.193,0,.227-.035.227-.262v-2.62a.226.226,0,0,0-.226-.226h-1.875a.226.226,0,0,1-.226-.226v-.584a.226.226,0,0,1,.226-.226h1.875a.226.226,0,0,0,.226-.226v-1.654a.226.226,0,0,1,.267-.222l.411.076a.228.228,0,0,0,.214-.077,7.9,7.9,0,0,0,.559-.72.226.226,0,0,0-.188-.352h-3.272a.226.226,0,0,1-.226-.226v-.561a.226.226,0,0,1,.226-.226h4.076a.226.226,0,0,0,.065-.01l.309-.093.692.535c.125.1.182.17.182.216,0,.074-.068.148-.249.258a.238.238,0,0,0-.074.071,11.092,11.092,0,0,1-1.752,2.143.229.229,0,0,0-.07.163v.68a.226.226,0,0,0,.226.226h2.1a.226.226,0,0,1,.226.226v.584a.226.226,0,0,1-.226.226h-2.1a.226.226,0,0,0-.226.226v2.847c-.023.66-.227.911-.851,1.014l-.905.14A.226.226,0,0,1,1145.14,518.208Z" transform="translate(-946.147 -508.106)" fill="#fff"/>
        <path id="Path_609" data-name="Path 609" d="M1171.126,512.375a31.931,31.931,0,0,0,3.566-.438.227.227,0,0,0,.161-.321c-.092-.193-.174-.377-.238-.535a.221.221,0,0,0-.243-.136c-.755.124-1.724.227-2.376.267a.224.224,0,0,1-.225-.15l-.23-.65a.226.226,0,0,1,.2-.3c.782-.051,1.569-.128,2.17-.214a.226.226,0,0,0,.183-.293c-.087-.27-.155-.51-.215-.753a.227.227,0,0,1,.168-.276l.9-.21a.5.5,0,0,1,.125-.012c.1,0,.147.045.147.148a.358.358,0,0,1-.023.091l-.057.182c.051.214.134.492.206.7a.226.226,0,0,0,.259.147,16.852,16.852,0,0,0,1.775-.443.225.225,0,0,1,.29.164l.158.686a.225.225,0,0,1-.158.268c-.5.137-1.108.275-1.619.37a.226.226,0,0,0-.16.322c.079.162.167.33.266.492a.232.232,0,0,0,.244.1,23.906,23.906,0,0,0,2.539-.668.223.223,0,0,1,.271.114l.32.648a.225.225,0,0,1-.131.315c-.683.218-1.5.438-2.274.621a.226.226,0,0,0-.138.346,12.44,12.44,0,0,0,1.243,1.568.225.225,0,0,1,.026.276l-.442.681a.228.228,0,0,1-.268.087,8.3,8.3,0,0,0-2.916-.563c-1.317,0-2.054.4-2.054,1.1,0,.683.59,1.07,1.645,1.07h1.464a10.662,10.662,0,0,0,1.819-.174.224.224,0,0,1,.241.318,3.55,3.55,0,0,0-.276.725.229.229,0,0,1-.2.171c-.609.057-1.18.087-1.837.087h-1.215c-1.8,0-2.984-.842-2.984-2.14,0-1.331,1.237-2.231,3.053-2.231a8.755,8.755,0,0,1,1.515.133.225.225,0,0,0,.22-.353c-.152-.214-.289-.425-.416-.64a.222.222,0,0,0-.239-.106,35.883,35.883,0,0,1-3.9.554.225.225,0,0,1-.228-.136l-.306-.7A.225.225,0,0,1,1171.126,512.375Z" transform="translate(-962.275 -508.183)" fill="#fff"/>
        <path id="Path_610" data-name="Path 610" d="M1203.116,509.041c-.031.277-.072.523-.116.748a.225.225,0,0,0,.255.267c.281-.041.582-.093.885-.154a.227.227,0,0,1,.271.246l-.073.659a.224.224,0,0,1-.185.2c-.416.07-.87.131-1.278.172a.221.221,0,0,0-.193.169,25.592,25.592,0,0,1-2.129,5.668.226.226,0,0,1-.333.083,6.315,6.315,0,0,0-.742-.448.227.227,0,0,1-.093-.312,20.41,20.41,0,0,0,2-4.717.227.227,0,0,0-.245-.28c-.462.047-.847.074-1.22.093a.226.226,0,0,1-.234-.193l-.1-.69a.227.227,0,0,1,.224-.258c.63,0,1.2-.025,1.732-.074a.228.228,0,0,0,.2-.193c.094-.59.175-1.1.228-1.533a.225.225,0,0,1,.254-.2l.976.129a.162.162,0,0,1,.159.16.333.333,0,0,1-.068.193Zm1.668,5.247a3.03,3.03,0,0,1-.182-.956,1.532,1.532,0,0,1,1-1.371.225.225,0,0,0-.025-.417c-.22-.072-.454-.142-.7-.207a.225.225,0,0,1-.14-.33,2.712,2.712,0,0,0,.191-.425.231.231,0,0,1,.279-.14,16.849,16.849,0,0,1,2.989,1.134.227.227,0,0,1,.1.308,4,4,0,0,0-.257.573.222.222,0,0,1-.276.142,2.224,2.224,0,0,0-.684-.12c-.772,0-1.3.376-1.3.9a3.449,3.449,0,0,0,.283,1.172,6.541,6.541,0,0,1,.252.906.226.226,0,0,0,.121.157,8.776,8.776,0,0,1,2.149,1.453.223.223,0,0,1-.031.349,2.288,2.288,0,0,0-.521.465.222.222,0,0,1-.328.013,9.185,9.185,0,0,0-1.106-.923.225.225,0,0,0-.34.114,1.076,1.076,0,0,1-.411.562,2.82,2.82,0,0,1-1.69.421c-1.306,0-2.1-.569-2.1-1.5,0-.9.794-1.492,2-1.492a4.069,4.069,0,0,1,.7.059.224.224,0,0,0,.25-.293C1204.939,514.68,1204.869,514.491,1204.784,514.288Zm-.681,1.719c-.568,0-.908.205-.908.546,0,.376.318.569.931.569.76,0,1.044-.193,1.112-.74a.2.2,0,0,1,.011-.079A2.453,2.453,0,0,0,1204.1,516.007Z" transform="translate(-976.869 -508.153)" fill="#fff"/>
        <path id="Path_611" data-name="Path 611" d="M1229.242,514.414v-2.509a.226.226,0,0,0-.226-.226h-.932a.226.226,0,0,1-.226-.226v-.573a.226.226,0,0,1,.226-.226h.932a.226.226,0,0,0,.226-.226V508.65a.226.226,0,0,1,.226-.226h.706a.226.226,0,0,1,.226.226v1.779a.226.226,0,0,0,.226.226h.91a.226.226,0,0,1,.226.226v.573a.226.226,0,0,1-.226.226h-.91a.226.226,0,0,0-.226.226v2.052a.226.226,0,0,0,.292.216l.654-.2a.225.225,0,0,1,.292.228c-.008.135-.018.3-.028.493a.229.229,0,0,1-.146.2l-2.91,1.094a.24.24,0,0,0-.072.044c-.178.158-.233.2-.319.2-.056,0-.125-.08-.147-.171l-.225-.812a.226.226,0,0,1,.152-.277l1.137-.343A.226.226,0,0,0,1229.242,514.414Zm3.372,1.013a8.833,8.833,0,0,1-1.439,1.108.227.227,0,0,1-.294-.046,2.317,2.317,0,0,0-.444-.425.225.225,0,0,1,.021-.377,7.073,7.073,0,0,0,1.946-1.513.227.227,0,0,0-.17-.377h-.678a.226.226,0,0,1-.226-.226v-.6a.226.226,0,0,1,.226-.226h6.289a.226.226,0,0,1,.227.226v.6a.226.226,0,0,1-.227.226h-3.739a.226.226,0,0,0-.177.086l-.1.128a.226.226,0,0,0,.177.367h3.61a.227.227,0,0,1,.226.23c-.01.669-.021,1.252-.03,1.477-.023,1.559-.386,2.163-1.43,2.368l-.386.059a.226.226,0,0,1-.252-.165,3.671,3.671,0,0,0-.236-.647.226.226,0,0,1,.206-.319h.248c.626-.043.79-.374.815-1.785a.227.227,0,0,0-.226-.23h-.313a.223.223,0,0,0-.206.14,6.929,6.929,0,0,1-2.609,3.061.231.231,0,0,1-.282-.021,2.85,2.85,0,0,0-.456-.354.225.225,0,0,1,0-.384,6.336,6.336,0,0,0,2.132-2.1.227.227,0,0,0-.2-.344h-.166a.228.228,0,0,0-.191.107,6.79,6.79,0,0,1-2.582,2.423.23.23,0,0,1-.29-.045,2.7,2.7,0,0,0-.388-.375.226.226,0,0,1,.038-.377,5.065,5.065,0,0,0,2.143-1.732h-.413A.231.231,0,0,0,1232.614,515.427Zm.145-6.9h4.087a.226.226,0,0,1,.226.226v3.429a.226.226,0,0,1-.226.226h-4.087a.226.226,0,0,1-.226-.226v-3.429A.226.226,0,0,1,1232.759,508.527Zm.863,1.17v.083a.226.226,0,0,0,.226.226h1.92a.226.226,0,0,0,.226-.226V509.7a.226.226,0,0,0-.226-.226h-1.92A.226.226,0,0,0,1233.623,509.7Zm0,1.4v.14a.226.226,0,0,0,.226.226h1.92a.226.226,0,0,0,.226-.226v-.14a.226.226,0,0,0-.226-.226h-1.92A.226.226,0,0,0,1233.623,511.1Z" transform="translate(-991.456 -508.219)" fill="#fff"/>
        <path id="Path_612" data-name="Path 612" d="M1263.142,511.175v3.338a.226.226,0,0,1-.226.226H1262v-.273h-1.455a.228.228,0,0,0-.224.2,9.038,9.038,0,0,1-.94,3.335.228.228,0,0,1-.353.063,2.82,2.82,0,0,0-.624-.426.227.227,0,0,1-.093-.315,6.49,6.49,0,0,0,.886-3.34v-2.813a.226.226,0,0,1,.226-.226h3.5A.226.226,0,0,1,1263.142,511.175Zm-4.382-2.309h4.292a.226.226,0,0,1,.226.226v.584a.226.226,0,0,1-.226.226h-4.292a.226.226,0,0,1-.226-.226v-.584A.226.226,0,0,1,1258.76,508.866Zm1.6,3.334v1.028a.225.225,0,0,0,.226.226h1.182a.226.226,0,0,0,.226-.226V512.2a.226.226,0,0,0-.226-.226h-1.182A.226.226,0,0,0,1260.362,512.2Zm4.362-2.751a12.97,12.97,0,0,0,2.665-.79.229.229,0,0,1,.239.041l.656.6a.224.224,0,0,1,.068.159c0,.1-.079.136-.386.159a13.6,13.6,0,0,1-2.922.727.226.226,0,0,0-.2.223v1.055a.226.226,0,0,0,.226.226h3.225a.226.226,0,0,1,.226.226v.584a.226.226,0,0,1-.226.226h-.694a.226.226,0,0,0-.226.226v5.331a.226.226,0,0,1-.226.226h-.694a.226.226,0,0,1-.226-.226V513.11a.226.226,0,0,0-.226-.226h-.973a.225.225,0,0,0-.223.208,7.622,7.622,0,0,1-2.6,5.305.23.23,0,0,1-.312-.006,3.663,3.663,0,0,0-.6-.48.226.226,0,0,1-.014-.368,5.944,5.944,0,0,0,2.407-5.093v-2.945a.226.226,0,0,1,.279-.22l.66.16A.24.24,0,0,0,1264.724,509.449Z" transform="translate(-1007.104 -508.331)" fill="#fff"/>
        <path id="Path_613" data-name="Path 613" d="M1289.511,510.807a78.486,78.486,0,0,0,8.239-.591.226.226,0,0,1,.229.122l.439.871a.3.3,0,0,1,.034.126c0,.091-.079.136-.227.136a.471.471,0,0,1-.125-.011l-.5-.085a.226.226,0,0,0-.075,0,6.674,6.674,0,0,0-3.117,1.053,3.408,3.408,0,0,0-1.555,2.823,2.03,2.03,0,0,0,1.419,2.049,6.543,6.543,0,0,0,2.272.437.226.226,0,0,1,.2.3,6.784,6.784,0,0,0-.217.87.229.229,0,0,1-.243.184,6.238,6.238,0,0,1-3.086-.882,3.11,3.11,0,0,1-1.611-2.789,4.19,4.19,0,0,1,.6-2.128,3.831,3.831,0,0,1,.991-1.137.226.226,0,0,0-.157-.406c-.977.1-1.954.2-3.369.358a.228.228,0,0,1-.251-.2l-.11-.851A.225.225,0,0,1,1289.511,510.807Zm7.4,3.534a7.069,7.069,0,0,0-.569-1.142.226.226,0,0,1,.089-.325l.443-.219a.228.228,0,0,1,.294.086,8.949,8.949,0,0,1,.619,1.217.227.227,0,0,1-.112.294l-.458.215A.226.226,0,0,1,1296.913,514.34Zm1.386-.676a7.037,7.037,0,0,0-.564-1.14.226.226,0,0,1,.089-.322l.435-.218a.226.226,0,0,1,.293.078,8.919,8.919,0,0,1,.632,1.21.228.228,0,0,1-.111.3l-.465.222A.227.227,0,0,1,1298.3,513.664Z" transform="translate(-1023.018 -509.138)" fill="#fff"/>
        <path id="Path_614" data-name="Path 614" d="M1320.943,525.768a.276.276,0,0,1-.06.059,1.535,1.535,0,0,1-2.566-1.147,1.5,1.5,0,0,1,1.5-1.48A1.544,1.544,0,0,1,1320.943,525.768Zm-2.058-1.054a.944.944,0,0,0,1.685.563.283.283,0,0,0,.045-.064.95.95,0,0,0-.812-1.444A.929.929,0,0,0,1318.885,524.715Z" transform="translate(-1037.913 -515.802)" fill="#fff"/>
        <path id="Path_615" data-name="Path 615" d="M741.453,563.855v-.583a.226.226,0,0,1,.226-.226h.819a.226.226,0,0,0,.223-.258l-.14-.983a.226.226,0,0,0-.224-.194h-.418a.226.226,0,0,1-.226-.226v-.561a.226.226,0,0,1,.226-.226h1.568a.226.226,0,0,0,.226-.226v-.686a.226.226,0,0,1,.226-.226h.694a.226.226,0,0,1,.226.226v.686a.226.226,0,0,0,.226.226h1.386a.226.226,0,0,1,.226.226v.561a.226.226,0,0,1-.226.226h-.317a.226.226,0,0,0-.224.192l-.147.982a.226.226,0,0,0,.223.26h.635a.226.226,0,0,1,.226.226v.583a.226.226,0,0,1-.226.226h-1.545a.225.225,0,0,0-.226.226v.447a.226.226,0,0,0,.226.226h1.239a.226.226,0,0,1,.226.226v.584a.226.226,0,0,1-.226.226h-.888a.226.226,0,0,0-.163.384,5.061,5.061,0,0,0,.827.667.229.229,0,0,1,.054.325,3.752,3.752,0,0,0-.319.482.228.228,0,0,1-.356.054c-.091-.088-.161-.159-.228-.232a.226.226,0,0,0-.391.154v1.584a.226.226,0,0,1-.226.226h-.694a.226.226,0,0,1-.226-.226v-1.6a.226.226,0,0,0-.39-.154,6.423,6.423,0,0,1-1.118.943.226.226,0,0,1-.335-.083,2.122,2.122,0,0,0-.381-.552.226.226,0,0,1,.059-.347,5.385,5.385,0,0,0,1.651-1.249.227.227,0,0,0-.169-.377H741.94a.226.226,0,0,1-.226-.226v-.584a.226.226,0,0,1,.226-.226h1.579a.226.226,0,0,0,.226-.226v-.447a.225.225,0,0,0-.226-.226h-1.84A.226.226,0,0,1,741.453,563.855Zm2.209-1.982.155.982a.226.226,0,0,0,.224.19h.45a.226.226,0,0,0,.224-.194l.14-.983a.226.226,0,0,0-.223-.258h-.746A.226.226,0,0,0,743.662,561.873Zm4.436-1.5a7.69,7.69,0,0,0,2.244-.767.23.23,0,0,1,.261.036l.587.56a.3.3,0,0,1,.1.182c0,.119-.132.186-.388.193a.231.231,0,0,0-.083.017,11.465,11.465,0,0,1-2.369.764.228.228,0,0,0-.179.221v1.163a.226.226,0,0,0,.226.226h2.975a.226.226,0,0,1,.226.226v.584a.226.226,0,0,1-.226.226h-.728a.226.226,0,0,0-.226.226v5.24a.226.226,0,0,1-.226.226H749.6a.226.226,0,0,1-.226-.226v-5.24a.226.226,0,0,0-.226-.226h-.675a.227.227,0,0,0-.224.214,9.853,9.853,0,0,1-1.516,5.052.229.229,0,0,1-.333.058,2.165,2.165,0,0,0-.6-.347.227.227,0,0,1-.106-.349,7.823,7.823,0,0,0,1.427-4.82V560.45a.226.226,0,0,1,.277-.22l.6.141A.239.239,0,0,0,748.1,560.371Z" transform="translate(-741.453 -534.408)" fill="#fff"/>
        <path id="Path_616" data-name="Path 616" d="M775.667,561.134c.159.022.25.091.25.182a.379.379,0,0,1-.057.171l-.143.258a.23.23,0,0,0-.028.107c-.045,2.842-.067,4.308-.067,5.213v.557c0,.877.239,1.2.9,1.2a6.151,6.151,0,0,0,1.918-.375,7.711,7.711,0,0,0,2.086-1,.228.228,0,0,1,.337.1,4.053,4.053,0,0,0,.358.643.227.227,0,0,1-.066.311,9.667,9.667,0,0,1-4.724,1.512,2.079,2.079,0,0,1-1.566-.558,2.968,2.968,0,0,1-.5-1.833v-.671c0-1.92.021-4.036.062-5.719a.225.225,0,0,1,.253-.217Z" transform="translate(-758.34 -535.205)" fill="#fff"/>
        <path id="Path_617" data-name="Path 617" d="M800.773,562c.125.023.193.091.193.182a.415.415,0,0,1-.1.217l-.17.227-.022.148a7.357,7.357,0,0,0-.216,1.81v.557c0,1.719.783,3.722,1.453,3.722.25,0,.409-.272.576-1.026a.225.225,0,0,1,.406-.081,5.742,5.742,0,0,0,.48.609.231.231,0,0,1,.053.208c-.307,1.251-.763,1.861-1.4,1.861-.59,0-1.294-.592-1.827-1.525a7.919,7.919,0,0,1-1-3.836v-.535a10.245,10.245,0,0,1,.3-2.578.227.227,0,0,1,.266-.167Zm5.7,1.763a14.209,14.209,0,0,1,1.872,3.435.228.228,0,0,1-.192.306,4.8,4.8,0,0,0-.945.164.23.23,0,0,1-.279-.158,12.088,12.088,0,0,0-1.532-3.242.225.225,0,0,1,.111-.34l.706-.246A.23.23,0,0,1,806.469,563.759Z" transform="translate(-771.083 -535.601)" fill="#fff"/>
        <path id="Path_618" data-name="Path 618" d="M829.547,565.684v-2.509a.226.226,0,0,0-.226-.226h-.932a.226.226,0,0,1-.226-.226v-.573a.226.226,0,0,1,.226-.226h.932a.225.225,0,0,0,.226-.226V559.92a.226.226,0,0,1,.226-.226h.706a.226.226,0,0,1,.226.226V561.7a.226.226,0,0,0,.226.226h.91a.226.226,0,0,1,.226.226v.573a.226.226,0,0,1-.226.226h-.91a.226.226,0,0,0-.226.226v2.052a.226.226,0,0,0,.293.216l.654-.2a.225.225,0,0,1,.292.228c-.009.135-.018.3-.028.493a.228.228,0,0,1-.146.2l-2.909,1.094a.252.252,0,0,0-.073.044c-.177.158-.233.2-.318.2-.057,0-.125-.08-.148-.171l-.224-.812a.225.225,0,0,1,.152-.277l1.137-.343A.225.225,0,0,0,829.547,565.684Zm3.372,1.013a8.793,8.793,0,0,1-1.439,1.108.226.226,0,0,1-.294-.046,2.339,2.339,0,0,0-.444-.425.225.225,0,0,1,.02-.377,7.068,7.068,0,0,0,1.946-1.513.227.227,0,0,0-.17-.377h-.678a.226.226,0,0,1-.226-.226v-.6a.226.226,0,0,1,.226-.226h6.289a.226.226,0,0,1,.226.226v.6a.226.226,0,0,1-.226.226h-3.739a.226.226,0,0,0-.178.086l-.1.128a.226.226,0,0,0,.177.367h3.61a.227.227,0,0,1,.226.23c-.01.669-.021,1.252-.031,1.477-.023,1.559-.386,2.163-1.43,2.368l-.387.059a.225.225,0,0,1-.252-.164,3.721,3.721,0,0,0-.236-.647.226.226,0,0,1,.206-.319h.248c.626-.043.79-.374.815-1.784a.227.227,0,0,0-.226-.23h-.313a.224.224,0,0,0-.206.14,6.929,6.929,0,0,1-2.609,3.061.232.232,0,0,1-.282-.021,2.814,2.814,0,0,0-.456-.354.224.224,0,0,1,0-.384,6.338,6.338,0,0,0,2.132-2.1.227.227,0,0,0-.2-.344h-.165a.228.228,0,0,0-.191.107,6.789,6.789,0,0,1-2.581,2.422.231.231,0,0,1-.291-.045,2.67,2.67,0,0,0-.388-.375.226.226,0,0,1,.038-.377,5.061,5.061,0,0,0,2.142-1.732h-.413A.235.235,0,0,0,832.919,566.7Zm.145-6.9h4.087a.225.225,0,0,1,.226.226v3.429a.225.225,0,0,1-.226.226h-4.087a.226.226,0,0,1-.226-.226v-3.429A.226.226,0,0,1,833.065,559.8Zm.863,1.17v.083a.226.226,0,0,0,.226.226h1.92a.226.226,0,0,0,.226-.226v-.083a.226.226,0,0,0-.226-.226h-1.92A.226.226,0,0,0,833.928,560.967Zm0,1.4v.14a.226.226,0,0,0,.226.226h1.92a.226.226,0,0,0,.226-.226v-.14a.226.226,0,0,0-.226-.226h-1.92A.226.226,0,0,0,833.928,562.367Z" transform="translate(-785.91 -534.528)" fill="#fff"/>
        <path id="Path_619" data-name="Path 619" d="M863.447,562.445v3.338a.226.226,0,0,1-.226.226H862.3v-.273h-1.455a.227.227,0,0,0-.223.2,9.036,9.036,0,0,1-.941,3.335.228.228,0,0,1-.353.063,2.8,2.8,0,0,0-.623-.426.226.226,0,0,1-.093-.315,6.488,6.488,0,0,0,.886-3.34v-2.813a.226.226,0,0,1,.226-.226h3.5A.226.226,0,0,1,863.447,562.445Zm-4.382-2.309h4.292a.226.226,0,0,1,.226.226v.584a.226.226,0,0,1-.226.226h-4.292a.226.226,0,0,1-.226-.226v-.584A.226.226,0,0,1,859.065,560.136Zm1.6,3.333V564.5a.226.226,0,0,0,.226.226h1.182a.226.226,0,0,0,.226-.226v-1.028a.226.226,0,0,0-.226-.226h-1.182A.226.226,0,0,0,860.667,563.469Zm4.362-2.751a12.956,12.956,0,0,0,2.665-.79.23.23,0,0,1,.239.041l.656.6a.224.224,0,0,1,.068.159c0,.1-.079.136-.386.159a13.59,13.59,0,0,1-2.922.727.226.226,0,0,0-.2.223v1.055a.226.226,0,0,0,.226.226H868.6a.226.226,0,0,1,.226.226v.584a.226.226,0,0,1-.226.226h-.694a.226.226,0,0,0-.226.226v5.331a.226.226,0,0,1-.226.226h-.695a.226.226,0,0,1-.226-.226V564.38a.226.226,0,0,0-.226-.226h-.973a.225.225,0,0,0-.223.208,7.622,7.622,0,0,1-2.6,5.305.23.23,0,0,1-.312-.006,3.627,3.627,0,0,0-.6-.48.226.226,0,0,1-.014-.367,5.945,5.945,0,0,0,2.407-5.093v-2.946a.226.226,0,0,1,.279-.22l.66.16A.241.241,0,0,0,865.029,560.719Z" transform="translate(-801.557 -534.639)" fill="#fff"/>
        <path id="Path_620" data-name="Path 620" d="M890.741,569.869a.23.23,0,0,1-.222-.173,16.717,16.717,0,0,1-.546-4.153v-.432a16.137,16.137,0,0,1,.6-4.254.228.228,0,0,1,.268-.163l.993.216c.113.023.182.091.182.171a.379.379,0,0,1-.091.182l-.159.228a12.892,12.892,0,0,0-.534,3.654v.444a13.531,13.531,0,0,0,.623,3.987.225.225,0,0,1-.213.293Zm3.5-3.613a.225.225,0,0,1,.118.326,1.87,1.87,0,0,0-.3.965c0,.5.511.8,1.373.8h.931a12.514,12.514,0,0,0,2.373-.262.226.226,0,0,1,.261.286,6.4,6.4,0,0,0-.148.7,1.884,1.884,0,0,1-.034.216,13.158,13.158,0,0,1-2.417.193h-1.056c-1.544,0-2.531-.717-2.531-1.821a2.906,2.906,0,0,1,.492-1.553.227.227,0,0,1,.27-.094Zm1.142-4.024a12.587,12.587,0,0,0,2.845-.309.225.225,0,0,1,.275.252c-.035.23-.06.46-.077.672a.223.223,0,0,1-.179.2,16.479,16.479,0,0,1-2.761.319h-.5a12.333,12.333,0,0,1-1.449-.136.224.224,0,0,1-.187-.216,3.358,3.358,0,0,0-.064-.625.226.226,0,0,1,.257-.267,10.512,10.512,0,0,0,1.523.106Z" transform="translate(-817.666 -535.039)" fill="#fff"/>
        <path id="Path_621" data-name="Path 621" d="M919.856,565.03h.706a.226.226,0,0,1,.226.226v2.451a.226.226,0,0,0,.226.226h2.135a.226.226,0,0,0,.226-.226v-3.293a.226.226,0,0,0-.226-.226h-2.134v.375h-.92a.226.226,0,0,1-.226-.226V560.35a.226.226,0,0,1,.226-.226h.694a.226.226,0,0,1,.226.226v2.576a.226.226,0,0,0,.226.226h1.908a.226.226,0,0,0,.226-.226v-3.1a.226.226,0,0,1,.226-.226h.695a.226.226,0,0,1,.226.226v3.1a.226.226,0,0,0,.226.226h1.92a.226.226,0,0,0,.226-.226V560.35a.226.226,0,0,1,.226-.226h.694a.226.226,0,0,1,.226.226v3.987a.226.226,0,0,1-.226.226h-.92v-.375h-2.146a.226.226,0,0,0-.226.226v3.293a.226.226,0,0,0,.226.226h2.147a.226.226,0,0,0,.226-.226v-2.451a.226.226,0,0,1,.226-.226h.706a.226.226,0,0,1,.226.226v4.215a.226.226,0,0,1-.226.226h-.706a.226.226,0,0,1-.226-.226v-.288a.226.226,0,0,0-.226-.226h-5.881a.226.226,0,0,0-.226.226v.288a.226.226,0,0,1-.226.226h-.706a.226.226,0,0,1-.226-.226v-4.215A.226.226,0,0,1,919.856,565.03Z" transform="translate(-832.884 -534.48)" fill="#fff"/>
        <path id="Path_622" data-name="Path 622" d="M953.437,559.477c.113.034.193.091.193.171s-.056.148-.215.239a11.18,11.18,0,0,0,4.357,3.449.224.224,0,0,1,.067.368,3.729,3.729,0,0,0-.486.536.227.227,0,0,1-.294.066,11.08,11.08,0,0,1-1.289-.792.227.227,0,0,0-.358.183v.05a.226.226,0,0,1-.226.226h-4.6a.226.226,0,0,1-.226-.226v-.366a12.029,12.029,0,0,1-1.728,1.244.227.227,0,0,1-.3-.057,3.942,3.942,0,0,0-.466-.534.224.224,0,0,1,.053-.359,10.381,10.381,0,0,0,4.416-4.284.223.223,0,0,1,.248-.114Zm-2.96,8.565.86-1.584a.226.226,0,0,0-.2-.334h-2.811a.226.226,0,0,1-.226-.226v-.584a.226.226,0,0,1,.226-.226h9.059a.226.226,0,0,1,.226.226v.584a.226.226,0,0,1-.226.226h-4.4a.226.226,0,0,0-.2.113l-.845,1.464a.226.226,0,0,0,.212.338l2.226-.162a.227.227,0,0,0,.148-.381c-.161-.171-.278-.288-.478-.473a.227.227,0,0,1,.014-.346l.477-.369a.229.229,0,0,1,.292.013,16.146,16.146,0,0,1,2.141,2.274.228.228,0,0,1-.026.312l-.586.517a.227.227,0,0,1-.338-.046c-.15-.226-.23-.337-.425-.591a.227.227,0,0,0-.206-.087l-5.661.67a.239.239,0,0,0-.135.067.352.352,0,0,1-.228.124c-.068,0-.148-.079-.2-.2l-.354-.786a.226.226,0,0,1,.189-.318l1.29-.093A.226.226,0,0,0,950.477,568.043Zm4.035-5.5a9.014,9.014,0,0,1-1.5-1.628.227.227,0,0,0-.365,0,12.67,12.67,0,0,1-1.388,1.639.226.226,0,0,0,.161.384h2.948A.226.226,0,0,0,954.513,562.541Z" transform="translate(-847.338 -534.311)" fill="#fff"/>
        <path id="Path_623" data-name="Path 623" d="M978.562,569.077a3.063,3.063,0,0,0-.512-.516.223.223,0,0,1-.016-.338l4.619-4.415a.225.225,0,0,0-.181-.387,31.5,31.5,0,0,1-3.235.208.227.227,0,0,1-.229-.2l-.07-.718a.226.226,0,0,1,.225-.247,38.391,38.391,0,0,0,4.8-.268.232.232,0,0,0,.06-.017l.312-.135.76.808a.272.272,0,0,1,.057.16.262.262,0,0,1-.182.239l-.261.114-2.145,2.083a.953.953,0,0,1,.283-.046c.477,0,.749.512.749,1.389v1.161c.011.364.147.432.737.444h1.033a7.559,7.559,0,0,0,1.352-.114.225.225,0,0,1,.245.314,4.62,4.62,0,0,0-.255.75.227.227,0,0,1-.22.177H984c-1.044-.011-1.555-.387-1.566-1.161v-1.5c0-.444-.125-.649-.386-.649a.693.693,0,0,0-.477.228l-2.675,2.662A.224.224,0,0,1,978.562,569.077Zm2.48-9.356a15.187,15.187,0,0,0,3.181.369.225.225,0,0,1,.217.276,3.066,3.066,0,0,0-.068.621.227.227,0,0,1-.232.218,18.952,18.952,0,0,1-3.246-.322.228.228,0,0,1-.183-.241l.056-.72A.224.224,0,0,1,981.042,559.721Z" transform="translate(-862.818 -534.538)" fill="#fff"/>
        <path id="Path_624" data-name="Path 624" d="M1006.066,565.872a41.109,41.109,0,0,0,4.24-3.582.228.228,0,0,0-.172-.389c-1,.048-1.885.1-2.837.182a.226.226,0,0,1-.244-.2l-.093-.873a.224.224,0,0,1,.256-.247,10.238,10.238,0,0,0,1.54.1h1.793a4.887,4.887,0,0,0,1.655-.276.227.227,0,0,1,.265.075l.555.748a.46.46,0,0,1,.079.216c0,.114-.068.171-.25.205a1.758,1.758,0,0,0-.817.456l-1.6,1.408a.225.225,0,0,0,.18.392,4.536,4.536,0,0,1,.663-.047c1.838,0,2.883.968,2.883,2.664,0,2.037-1.6,3.335-4.1,3.335-1.464,0-2.349-.615-2.349-1.628,0-.911.749-1.525,1.827-1.525,1.033,0,1.781.524,1.781,1.263a1.683,1.683,0,0,1-.022.282.227.227,0,0,0,.31.243,1.966,1.966,0,0,0,1.267-1.926,1.479,1.479,0,0,0-1.589-1.662,5.885,5.885,0,0,0-2.145.467,6.8,6.8,0,0,0-2.2,1.463.227.227,0,0,1-.338-.029l-.589-.8A.225.225,0,0,1,1006.066,565.872Zm4.164,2.569c0-.307-.318-.512-.817-.512-.374,0-.624.171-.624.444,0,.319.261.524.783.592.057.007.218.014.33.018a.214.214,0,0,0,.185-.084A.767.767,0,0,0,1010.23,568.441Z" transform="translate(-877.19 -534.977)" fill="#fff"/>
        <path id="Path_625" data-name="Path 625" d="M1036.249,564.847h-.808a.226.226,0,0,1-.226-.226v-3.908a.226.226,0,0,1,.226-.226h6.626a.225.225,0,0,0,.111-.029l.163-.092a.226.226,0,0,1,.27.036l.7.688a.326.326,0,0,1,.08.2.308.308,0,0,1-.08.182l-.17.216c-.112,3.568-1.541,5.979-4.362,7.37a.232.232,0,0,1-.287-.076,3.081,3.081,0,0,0-.566-.578.224.224,0,0,1,.049-.384c2.472-1.012,3.84-3.134,3.967-6.176a.228.228,0,0,0-.228-.236H1036.7a.226.226,0,0,0-.226.226v2.78A.226.226,0,0,1,1036.249,564.847Z" transform="translate(-891.667 -534.389)" fill="#fff"/>
        <path id="Path_626" data-name="Path 626" d="M1070.316,568.823h-8.865a.226.226,0,0,1-.226-.226v-.641a.226.226,0,0,1,.226-.226h8.865a.226.226,0,0,1,.226.226v.641A.226.226,0,0,1,1070.316,568.823Z" transform="translate(-905.014 -538.182)" fill="#fff"/>
        <path id="Path_627" data-name="Path 627" d="M1092.071,562.952a13.353,13.353,0,0,1-1.6,2.318.225.225,0,0,1-.308.027,3.532,3.532,0,0,0-.7-.453.224.224,0,0,1-.064-.361,10.918,10.918,0,0,0,2.8-5.1.225.225,0,0,1,.265-.169l.886.192c.136.023.2.1.2.194a.36.36,0,0,1-.125.216l-.182.193c-.165.56-.325,1.019-.472,1.388a.224.224,0,0,0,.21.308h5.416a.226.226,0,0,1,.226.226v.675a.226.226,0,0,1-.226.226h-1.837a.224.224,0,0,0-.222.206,6.465,6.465,0,0,1-3.292,5.257.23.23,0,0,1-.272-.048,4.739,4.739,0,0,0-.6-.537.224.224,0,0,1,.038-.38,5.052,5.052,0,0,0,2.923-4.245.228.228,0,0,0-.226-.254h-2.645A.228.228,0,0,0,1092.071,562.952Z" transform="translate(-919.439 -533.811)" fill="#fff"/>
        <path id="Path_628" data-name="Path 628" d="M1126.008,568.823h-8.865a.226.226,0,0,1-.226-.226v-.641a.226.226,0,0,1,.226-.226h8.865a.225.225,0,0,1,.226.226v.641A.226.226,0,0,1,1126.008,568.823Z" transform="translate(-933.592 -538.182)" fill="#fff"/>
        <path id="Path_629" data-name="Path 629" d="M1146.239,562.627a14.031,14.031,0,0,1,1.825.919.227.227,0,0,1,.083.3l-.357.681a.228.228,0,0,1-.318.088,13.671,13.671,0,0,0-1.711-.891.227.227,0,0,1-.12-.3l.3-.678A.227.227,0,0,1,1146.239,562.627Zm.255,4.829a11.159,11.159,0,0,0,7.438-5.107.225.225,0,0,1,.376-.007,4.341,4.341,0,0,0,.442.54l.182.182a12.3,12.3,0,0,1-7.219,5.506.236.236,0,0,0-.1.056c-.314.3-.386.346-.581.346-.1,0-.17-.057-.227-.171l-.478-1.031A.224.224,0,0,1,1146.494,567.456Zm.982-7.307a11.6,11.6,0,0,1,1.808,1.114.228.228,0,0,1,.052.3l-.407.626a.224.224,0,0,1-.33.051,9.336,9.336,0,0,0-1.647-1.049.225.225,0,0,1-.1-.3l.321-.643A.229.229,0,0,1,1147.475,560.149Z" transform="translate(-948.321 -534.28)" fill="#fff"/>
        <path id="Path_630" data-name="Path 630" d="M1173.09,570.4h3.645a.226.226,0,0,0,.226-.226v-.891a.226.226,0,0,0-.226-.226h-3.509a.226.226,0,0,1-.226-.226v-.538a.226.226,0,0,1,.226-.226h3.509a.226.226,0,0,0,.226-.226v-.857a.226.226,0,0,0-.226-.226H1173.1a.226.226,0,0,1-.226-.226v-.538a.226.226,0,0,1,.226-.226h4.768a.226.226,0,0,1,.226.226v5.536a.226.226,0,0,1-.226.226h-.909v-.364h-3.871a.226.226,0,0,1-.226-.226v-.538A.226.226,0,0,1,1173.09,570.4Z" transform="translate(-962.301 -537.175)" fill="#fff"/>
        <path id="Path_631" data-name="Path 631" d="M1195.714,567.63a15.8,15.8,0,0,0,7.589-5.06.225.225,0,0,1,.374.038,5.49,5.49,0,0,0,.363.621.227.227,0,0,1-.01.274,16.434,16.434,0,0,1-7.266,5.116.221.221,0,0,0-.1.08l-.153.217-.125.1h-.216l-.1-.114-.483-.96A.224.224,0,0,1,1195.714,567.63Zm.844-7.162a22.2,22.2,0,0,1,2.027,1.378.229.229,0,0,1,.044.318l-.484.645a.226.226,0,0,1-.323.038,14.022,14.022,0,0,0-1.923-1.315.225.225,0,0,1-.08-.318l.432-.673A.227.227,0,0,1,1196.557,560.467Z" transform="translate(-973.945 -534.439)" fill="#fff"/>
        <path id="Path_632" data-name="Path 632" d="M1223.9,562.567c.569.277,1.13.583,1.768.961a.229.229,0,0,0,.321-.092,15.631,15.631,0,0,0,1.138-3.187.226.226,0,0,1,.288-.163l.995.324c.125.045.17.1.17.193a.365.365,0,0,1-.114.228l-.2.2a.22.22,0,0,0-.053.087,23.974,23.974,0,0,1-1.225,2.983.226.226,0,0,0,.076.286c.611.413,1.194.853,1.8,1.353a.229.229,0,0,1,.012.341l-.618.584a.227.227,0,0,1-.3,0,16.453,16.453,0,0,0-1.5-1.17.226.226,0,0,0-.314.061,11.27,11.27,0,0,1-3.422,3.244.231.231,0,0,1-.3-.05,3.44,3.44,0,0,0-.6-.563.225.225,0,0,1,.025-.38,9.134,9.134,0,0,0,3.263-2.93.231.231,0,0,0-.066-.32,14.992,14.992,0,0,0-1.746-.979.225.225,0,0,1-.092-.33l.412-.61A.226.226,0,0,1,1223.9,562.567Z" transform="translate(-987.376 -534.254)" fill="#fff"/>
        <path id="Path_633" data-name="Path 633" d="M1247.377,561.913H1256a.226.226,0,0,1,.226.226v.686a.226.226,0,0,1-.226.226h-3.164a.226.226,0,0,0-.224.221,5.248,5.248,0,0,1-2.912,4.9.229.229,0,0,1-.285-.062,5.151,5.151,0,0,0-.606-.632.223.223,0,0,1,.054-.37,3.888,3.888,0,0,0,2.479-3.827.229.229,0,0,0-.228-.234h-3.741a.226.226,0,0,1-.226-.226v-.686A.226.226,0,0,1,1247.377,561.913Zm1.43-2.766h5.3a.226.226,0,0,1,.226.226v.675a.226.226,0,0,1-.226.226h-5.3a.226.226,0,0,1-.226-.226v-.675A.226.226,0,0,1,1248.807,559.147Zm6.857,1.883a10.67,10.67,0,0,0-1.024-1.1.223.223,0,0,1,0-.327l.37-.358a.225.225,0,0,1,.306-.009,12.8,12.8,0,0,1,1.116,1.12.226.226,0,0,1-.017.316l-.419.382A.225.225,0,0,1,1255.664,561.029Zm.792-1.4a8.379,8.379,0,0,0-.923-.981.224.224,0,0,1-.008-.331l.369-.352a.228.228,0,0,1,.3-.011,7.879,7.879,0,0,1,1.022,1.014.228.228,0,0,1-.022.313l-.412.375A.225.225,0,0,1,1256.455,559.628Z" transform="translate(-1000.421 -533.139)" fill="#fff"/>
        <path id="Path_634" data-name="Path 634" d="M1279.536,566.345a6.9,6.9,0,0,1-.59.819c-.152.19-.2.254-.272.349a.225.225,0,0,0-.046.136v4.229a.226.226,0,0,1-.226.226h-.683a.226.226,0,0,1-.226-.226v-2.635a.225.225,0,0,0-.377-.167c-.258.231-.577.488-1.065.866-.172.133-.256.2-.324.251a.223.223,0,0,1-.29-.009,4.741,4.741,0,0,0-.571-.437.224.224,0,0,1,0-.375,12.055,12.055,0,0,0,3.829-3.938.224.224,0,0,1,.323-.074l.774.541a.289.289,0,0,1,.125.194.192.192,0,0,1-.159.17Z" transform="translate(-1014.592 -536.945)" fill="#fff"/>
        <path id="Path_635" data-name="Path 635" d="M1300.278,562.722a.226.226,0,0,1,.226.226v.4a9.6,9.6,0,0,0,1.66-1.449.226.226,0,0,0-.173-.372h-6.266a.226.226,0,0,1-.226-.226v-.675a.226.226,0,0,1,.226-.226h7.082a.23.23,0,0,0,.089-.018l.255-.109a.225.225,0,0,1,.264.066l.778.96a.417.417,0,0,1,.091.228.272.272,0,0,1-.2.227l-.295.1a13.321,13.321,0,0,1-2.57,2.5.229.229,0,0,1-.313-.036c-.1-.122-.195-.226-.4-.469v1.025a5.484,5.484,0,0,1-2.1,4.3.231.231,0,0,1-.3-.01,4.606,4.606,0,0,0-.715-.53.223.223,0,0,1-.02-.372,4.167,4.167,0,0,0,1.88-3.524v-1.789a.226.226,0,0,1,.226-.226Z" transform="translate(-1025.231 -534.346)" fill="#fff"/>
      </g>
    </g>
  </g>
</svg>
