<svg xmlns="http://www.w3.org/2000/svg" width="219.16" height="31.433" viewBox="0 0 219.16 31.433">
  <g id="Group_41" data-name="Group 41" transform="translate(-83.128 -481.217)">
    <g id="Group_40" data-name="Group 40" transform="translate(84.888 481.217)">
      <g id="Group_39" data-name="Group 39">
        <path id="Path_678" data-name="Path 678" d="M86.506,483.038a.64.64,0,0,1,.639.639v6.812c0,1.728.144,2.5.559,3.042a4.005,4.005,0,0,0,5.147,0c.414-.54.559-1.314.559-3.042v-6.812a.639.639,0,0,1,.639-.639h.737a.64.64,0,0,1,.639.639v6.812c0,2.429-.289,3.437-1.224,4.337a5.345,5.345,0,0,1-3.924,1.224,5.344,5.344,0,0,1-3.923-1.224c-.936-.9-1.224-1.908-1.224-4.337v-6.812a.64.64,0,0,1,.639-.639Z" transform="translate(-85.129 -481.436)" fill="#374349"/>
        <path id="Path_679" data-name="Path 679" d="M105.587,489.443h4.823a.64.64,0,0,1,.639.639v.3a.639.639,0,0,1-.639.639h-4.823a.639.639,0,0,1-.639-.639v-.3A.64.64,0,0,1,105.587,489.443Z" transform="translate(-87.515 -482.207)" fill="#374349"/>
        <path id="Path_680" data-name="Path 680" d="M121.5,483.677v2.68a.632.632,0,0,0,.854.6,4.337,4.337,0,0,1,1.684-.3c2.574,0,4.3,1.89,4.3,4.7s-1.728,4.7-4.3,4.7a4.4,4.4,0,0,1-2.538-.738l-.666.576h-.675a.639.639,0,0,1-.639-.639V483.677a.64.64,0,0,1,.639-.639h.7A.64.64,0,0,1,121.5,483.677Zm0,9.376a.647.647,0,0,0,.206.475,3.065,3.065,0,0,0,2.224.921c1.494,0,2.376-1.152,2.376-3.1,0-1.925-.882-3.078-2.376-3.078a3.067,3.067,0,0,0-2.224.919.65.65,0,0,0-.206.476Z" transform="translate(-89.27 -481.436)" fill="#374349"/>
        <path id="Path_681" data-name="Path 681" d="M145.811,491.9a4.627,4.627,0,1,1-4.626-4.752A4.632,4.632,0,0,1,145.811,491.9Zm-7.182,0c0,1.764,1.045,2.97,2.556,2.97,1.531,0,2.556-1.206,2.556-3.024,0-1.8-1.026-3.006-2.556-3.006C139.638,488.842,138.629,490.031,138.629,491.9Z" transform="translate(-91.322 -481.931)" fill="#374349"/>
        <path id="Path_682" data-name="Path 682" d="M161.864,495.889h-.777a.64.64,0,0,1-.55-.312l-2.069-3.485a.639.639,0,0,0-1.009-.118l-.786.814a.637.637,0,0,0-.179.444v2.018a.639.639,0,0,1-.639.639h-.7a.639.639,0,0,1-.639-.639V483.677a.639.639,0,0,1,.639-.639h.7a.64.64,0,0,1,.639.639v5.111a.639.639,0,0,0,1.09.454l2.232-2.221a.642.642,0,0,1,.451-.186h.631a.64.64,0,0,1,.461,1.083l-1.593,1.662a.639.639,0,0,0-.088.771l2.734,4.571A.639.639,0,0,1,161.864,495.889Z" transform="translate(-93.483 -481.436)" fill="#374349"/>
        <path id="Path_683" data-name="Path 683" d="M176.841,496.409v-.828a4.764,4.764,0,0,1-3.023.99c-2.142,0-3.2-1.062-3.2-3.221v-5.355a.64.64,0,0,1,.639-.639h.7a.639.639,0,0,1,.639.639v5.355c0,1.043.432,1.457,1.494,1.457a3.836,3.836,0,0,0,2.552-1.26.659.659,0,0,0,.2-.474v-5.078a.64.64,0,0,1,.639-.639h.72a.64.64,0,0,1,.639.639v7.775a.639.639,0,0,1-.639.639Z" transform="translate(-95.422 -481.956)" fill="#374349"/>
        <path id="Path_684" data-name="Path 684" d="M203.406,483.865c-.516.67-.851,1.094-1.915,2.354a.656.656,0,0,0-.156.417v9.747a.64.64,0,0,1-.639.639h-.719a.639.639,0,0,1-.639-.639v-6.368a.637.637,0,0,0-1.067-.471,39.091,39.091,0,0,1-3.017,2.506.656.656,0,0,1-.861-.082,7.42,7.42,0,0,0-.629-.572.634.634,0,0,1,.042-1.017,32.918,32.918,0,0,0,8.118-7.981.633.633,0,0,1,.89-.153l1.15.829a.486.486,0,0,1,.2.342c0,.18-.144.305-.341.36Z" transform="translate(-98.181 -481.326)" fill="#374349"/>
        <path id="Path_685" data-name="Path 685" d="M214.852,488.216h5.417a.639.639,0,0,0,.639-.639v-1.251a.638.638,0,0,0-.8-.619c-.8.2-1.627.388-2.671.606a.669.669,0,0,1-.712-.344,4.183,4.183,0,0,0-.275-.423.634.634,0,0,1,.44-.982,42.371,42.371,0,0,0,8.028-2.136.64.64,0,0,1,.643.116l1.085.955a.433.433,0,0,1,.161.306c0,.18-.161.288-.414.288h-.521c-.811.29-1.621.543-2.5.788a.643.643,0,0,0-.471.616v2.079a.639.639,0,0,0,.639.639h4.966a.639.639,0,0,1,.639.639v.521a.639.639,0,0,1-.639.639h-5.024a.647.647,0,0,0-.637.6,8.037,8.037,0,0,1-4.264,6.134.631.631,0,0,1-.782-.135,7.512,7.512,0,0,0-.593-.6.635.635,0,0,1,.143-1.046,5.845,5.845,0,0,0,3.45-4.178.65.65,0,0,0-.632-.771h-5.32a.639.639,0,0,1-.639-.639v-.521A.639.639,0,0,1,214.852,488.216Z" transform="translate(-100.671 -481.358)" fill="#374349"/>
        <path id="Path_686" data-name="Path 686" d="M239.569,485.288h6.37a.639.639,0,0,0,.639-.639v-2.014a.639.639,0,0,1,.639-.639h.736a.64.64,0,0,1,.639.639v2.014a.639.639,0,0,0,.639.639H253.1a.64.64,0,0,1,.639.639v.5a.64.64,0,0,1-.639.639h-3.869a.639.639,0,0,0-.639.639v7.208c-.035,1.17-.486,1.71-1.53,1.835l-1.118.11a.649.649,0,0,1-.677-.471,5.929,5.929,0,0,0-.706-1.51h1.584c.341-.018.432-.109.432-.45v-3.119a.637.637,0,0,0-1.166-.356,21.266,21.266,0,0,1-4.3,4.5.653.653,0,0,1-.8-.018,7.223,7.223,0,0,0-.657-.453.638.638,0,0,1-.067-1.063,18.933,18.933,0,0,0,5.4-5.877.644.644,0,0,0-.548-.975h-4.871a.64.64,0,0,1-.639-.639v-.5A.639.639,0,0,1,239.569,485.288Z" transform="translate(-103.647 -481.311)" fill="#374349"/>
        <path id="Path_687" data-name="Path 687" d="M265.3,486.782a21.966,21.966,0,0,1,2.4,1.2.644.644,0,0,1,.25.855l-.3.576a.639.639,0,0,1-.885.256,21.815,21.815,0,0,0-2.224-1.158.636.636,0,0,1-.322-.843l.252-.561A.637.637,0,0,1,265.3,486.782Zm.51,7.461a17.665,17.665,0,0,0,11.216-7.668.639.639,0,0,1,1.037-.051c.135.171.289.347.484.556l.288.288A19.5,19.5,0,0,1,267.3,496.1c-.557.54-.665.612-.99.612a.393.393,0,0,1-.36-.27l-.6-1.3A.64.64,0,0,1,265.814,494.243Zm1.452-11.358a18.409,18.409,0,0,1,2.4,1.476.639.639,0,0,1,.15.863l-.335.513a.636.636,0,0,1-.927.149,14.842,14.842,0,0,0-2.127-1.348.638.638,0,0,1-.285-.85l.259-.516A.642.642,0,0,1,267.266,482.884Z" transform="translate(-106.686 -481.409)" fill="#374349"/>
        <path id="Path_688" data-name="Path 688" d="M288.326,483.908h6.352a.639.639,0,0,1,.639.639v.358a.639.639,0,0,1-.639.639h-6.352a.639.639,0,0,1-.639-.639v-.358A.639.639,0,0,1,288.326,483.908Zm1.026,7.541h4.228a.639.639,0,0,1,.639.639v4.5a.639.639,0,0,1-.639.639h-1.215v-.684H290.53v.81h-1.178a.639.639,0,0,1-.639-.639v-4.625A.639.639,0,0,1,289.352,491.449Zm.162-5.094h4.013a.64.64,0,0,1,.639.639v.324a.64.64,0,0,1-.639.639h-4.013a.64.64,0,0,1-.639-.639v-.324A.64.64,0,0,1,289.514,486.355Zm0,2.61h4.013a.64.64,0,0,1,.639.639v.359a.639.639,0,0,1-.639.639h-4.013a.639.639,0,0,1-.639-.639V489.6A.64.64,0,0,1,289.514,488.965Zm.126-7.523h4.012a.639.639,0,0,1,.639.639v.341a.639.639,0,0,1-.639.639H289.64a.639.639,0,0,1-.639-.639v-.341A.64.64,0,0,1,289.64,481.442Zm.89,12.285v.538a.639.639,0,0,0,.639.639h.557a.639.639,0,0,0,.639-.639v-.538a.639.639,0,0,0-.639-.639h-.557A.639.639,0,0,0,290.53,493.727Zm10.709-6.769v-2.572a.639.639,0,0,0-.639-.639h-4.427a.64.64,0,0,1-.639-.639v-.341a.639.639,0,0,1,.639-.639h6.264a.64.64,0,0,1,.639.639v6.191a.64.64,0,0,1-.639.639h-1.2v-.342h-3.123a.64.64,0,0,0-.639.639v5.012c-.018.522,0,.539.541.575H300.9c.5-.028.759-.247,1.034-1.046a.635.635,0,0,1,.909-.343,5.687,5.687,0,0,0,.553.277.646.646,0,0,1,.341.807,2.424,2.424,0,0,1-2.5,1.925H297.28c-1.134-.018-1.6-.522-1.639-1.764v-7.1a.64.64,0,0,1,.639-.639H300.6A.639.639,0,0,0,301.239,486.958Z" transform="translate(-109.518 -481.244)" fill="#374349"/>
        <path id="Path_689" data-name="Path 689" d="M314.3,493.412a.639.639,0,0,1,.639-.639H320.1v-.54h-6.668a.639.639,0,0,1-.639-.639v-.215a.639.639,0,0,1,.639-.639H320.1v-.54h-5.156a.64.64,0,0,1-.639-.639v-.215a.639.639,0,0,1,.639-.639H320.1v-.576h-4.184a.639.639,0,0,1-.639-.639v-2.23a.639.639,0,0,1,.639-.639H320.1v-.576h-6.4a.639.639,0,0,1-.639-.639v-.215a.639.639,0,0,1,.639-.639h5.759a.639.639,0,0,0,.639-.639v-.053a.639.639,0,0,1,.639-.639h.484a.639.639,0,0,1,.639.639v.053a.639.639,0,0,0,.639.639h5.6a.64.64,0,0,1,.639.639v.215a.64.64,0,0,1-.639.639h-6.236v.576h4.185a.639.639,0,0,1,.639.639v2.23a.639.639,0,0,1-.639.639h-4.185v.576h4.382a.639.639,0,0,1,.639.639v.756a.639.639,0,0,0,.639.639h.936a.639.639,0,0,1,.639.639v.215a.639.639,0,0,1-.639.639h-.936a.64.64,0,0,0-.639.639v1.061a.639.639,0,0,1-.639.639h-1.07v-.306h-3.313v1.008c-.036,1.349-.5,1.818-2.015,2.034l-.864.107a5.879,5.879,0,0,0-.81-2.015h1.476c.306,0,.45-.144.45-.468v-.667h-5.156a.639.639,0,0,1-.639-.639Zm2.663-7.425v.774H320.1v-.774Zm4.895,0v.774h3.132v-.774Zm0,4.211v.54h3.313v-.54Zm0,2.034v.54h3.313v-.54Z" transform="translate(-112.541 -481.217)" fill="#374349"/>
      </g>
    </g>
    <path id="Path_690" data-name="Path 690" d="M189.912,515.983h-.88v-6.206H83.128v-.88H189.912Z" transform="translate(0 -3.333)" fill="#374349"/>
    <rect id="Rectangle_36" data-name="Rectangle 36" width="108.554" height="0.88" transform="translate(193.734 505.565)" fill="#374349"/>
  </g>
</svg>
