<svg xmlns="http://www.w3.org/2000/svg" width="106.141" height="20.725" viewBox="0 0 106.141 20.725">
  <g id="Group_1109" data-name="Group 1109" transform="translate(-42.859 -353.723)">
    <g id="Group_65" data-name="Group 65" transform="translate(42 360.131)">
      <g id="Group_40" data-name="Group 40" transform="translate(0.859)">
        <g id="Group_39" data-name="Group 39">
          <path id="Path_678" data-name="Path 678" d="M85.8,483.038a.313.313,0,0,1,.312.312v3.326a2.392,2.392,0,0,0,.273,1.485,1.955,1.955,0,0,0,2.513,0,2.392,2.392,0,0,0,.273-1.485V483.35a.312.312,0,0,1,.312-.312h.36a.312.312,0,0,1,.312.312v3.326c0,1.186-.141,1.678-.6,2.118a3.37,3.37,0,0,1-3.831,0c-.457-.439-.6-.931-.6-2.118V483.35a.312.312,0,0,1,.312-.312Z" transform="translate(-85.129 -482.256)" fill="#374349"/>
          <path id="Path_679" data-name="Path 679" d="M105.26,489.443h2.355a.312.312,0,0,1,.312.312v.149a.312.312,0,0,1-.312.312H105.26a.312.312,0,0,1-.312-.312v-.149A.312.312,0,0,1,105.26,489.443Z" transform="translate(-96.437 -485.91)" fill="#374349"/>
          <path id="Path_680" data-name="Path 680" d="M120.491,483.35v1.309a.309.309,0,0,0,.417.293,2.117,2.117,0,0,1,.822-.147,2.3,2.3,0,0,1,0,4.587,2.148,2.148,0,0,1-1.239-.36l-.325.281h-.329a.312.312,0,0,1-.312-.312v-5.65a.313.313,0,0,1,.312-.312h.342A.312.312,0,0,1,120.491,483.35Zm0,4.578a.316.316,0,0,0,.1.232,1.5,1.5,0,0,0,1.086.45c.729,0,1.16-.563,1.16-1.512s-.431-1.5-1.16-1.5a1.5,1.5,0,0,0-1.086.449.317.317,0,0,0-.1.232Z" transform="translate(-104.753 -482.256)" fill="#374349"/>
          <path id="Path_681" data-name="Path 681" d="M141.076,489.471a2.259,2.259,0,1,1-2.258-2.32A2.262,2.262,0,0,1,141.076,489.471Zm-3.506,0a1.3,1.3,0,0,0,1.248,1.45c.747,0,1.248-.589,1.248-1.476a1.3,1.3,0,0,0-1.248-1.468C138.063,487.977,137.57,488.557,137.57,489.471Z" transform="translate(-114.473 -484.603)" fill="#374349"/>
          <path id="Path_682" data-name="Path 682" d="M158.1,489.312h-.379a.313.313,0,0,1-.268-.152l-1.01-1.7a.312.312,0,0,0-.493-.058l-.384.4a.311.311,0,0,0-.088.217V489a.312.312,0,0,1-.312.312h-.342a.312.312,0,0,1-.312-.312v-5.65a.312.312,0,0,1,.312-.312h.342a.313.313,0,0,1,.312.312v2.5a.312.312,0,0,0,.532.222l1.09-1.084a.313.313,0,0,1,.22-.091h.308a.312.312,0,0,1,.225.529l-.778.811a.312.312,0,0,0-.043.376l1.335,2.232A.312.312,0,0,1,158.1,489.312Z" transform="translate(-124.718 -482.256)" fill="#374349"/>
          <path id="Path_683" data-name="Path 683" d="M173.654,491.775v-.4a2.326,2.326,0,0,1-1.476.483,1.383,1.383,0,0,1-1.564-1.573v-2.615a.312.312,0,0,1,.312-.312h.342a.312.312,0,0,1,.312.312v2.615c0,.509.211.712.729.712a1.873,1.873,0,0,0,1.246-.615.322.322,0,0,0,.1-.232v-2.479a.312.312,0,0,1,.312-.312h.351a.312.312,0,0,1,.312.312v3.8a.312.312,0,0,1-.312.312Z" transform="translate(-133.903 -484.719)" fill="#374349"/>
          <path id="Path_684" data-name="Path 684" d="M198.351,482.974c-.252.327-.416.534-.935,1.149a.32.32,0,0,0-.076.2v4.759a.312.312,0,0,1-.312.312h-.351a.312.312,0,0,1-.312-.312v-3.109a.311.311,0,0,0-.521-.23,19.085,19.085,0,0,1-1.473,1.223.32.32,0,0,1-.42-.04,3.617,3.617,0,0,0-.307-.279.309.309,0,0,1,.021-.5,16.072,16.072,0,0,0,3.963-3.9.309.309,0,0,1,.435-.075l.561.4a.238.238,0,0,1,.1.167c0,.088-.07.149-.167.176Z" transform="translate(-146.977 -481.735)" fill="#374349"/>
          <path id="Path_685" data-name="Path 685" d="M214.525,485.234h2.645a.312.312,0,0,0,.312-.312v-.611a.312.312,0,0,0-.388-.3c-.39.1-.794.189-1.3.3a.327.327,0,0,1-.347-.168,2.039,2.039,0,0,0-.134-.207.31.31,0,0,1,.215-.479,20.685,20.685,0,0,0,3.92-1.043.313.313,0,0,1,.314.057l.53.466a.211.211,0,0,1,.079.149c0,.088-.079.14-.2.14h-.254c-.4.142-.791.265-1.22.385a.314.314,0,0,0-.23.3v1.015a.312.312,0,0,0,.312.312h2.425a.312.312,0,0,1,.312.312v.254a.312.312,0,0,1-.312.312h-2.453a.316.316,0,0,0-.311.292,3.924,3.924,0,0,1-2.082,2.995.308.308,0,0,1-.382-.066,3.672,3.672,0,0,0-.289-.294.31.31,0,0,1,.07-.511,2.853,2.853,0,0,0,1.684-2.04.317.317,0,0,0-.309-.376h-2.6a.312.312,0,0,1-.312-.312v-.254A.312.312,0,0,1,214.525,485.234Z" transform="translate(-158.779 -481.885)" fill="#374349"/>
          <path id="Path_686" data-name="Path 686" d="M239.242,483.6h3.11a.312.312,0,0,0,.312-.312v-.983a.312.312,0,0,1,.312-.312h.359a.312.312,0,0,1,.312.312v.983a.312.312,0,0,0,.312.312h1.889a.312.312,0,0,1,.312.312v.246a.313.313,0,0,1-.312.312H243.96a.312.312,0,0,0-.312.312V488.3c-.017.571-.237.835-.747.9l-.546.054a.317.317,0,0,1-.331-.23,2.9,2.9,0,0,0-.345-.737h.773c.167-.009.211-.053.211-.22v-1.523a.311.311,0,0,0-.569-.174,10.384,10.384,0,0,1-2.1,2.2.319.319,0,0,1-.39-.009,3.525,3.525,0,0,0-.321-.221.312.312,0,0,1-.033-.519,9.244,9.244,0,0,0,2.634-2.869.314.314,0,0,0-.268-.476h-2.378a.312.312,0,0,1-.312-.312v-.246A.312.312,0,0,1,239.242,483.6Z" transform="translate(-172.881 -481.661)" fill="#374349"/>
          <path id="Path_687" data-name="Path 687" d="M264.721,484.752a10.722,10.722,0,0,1,1.172.587.314.314,0,0,1,.122.417l-.148.281a.312.312,0,0,1-.432.125,10.652,10.652,0,0,0-1.086-.566.31.31,0,0,1-.157-.411l.123-.274A.311.311,0,0,1,264.721,484.752Zm.249,3.643a8.625,8.625,0,0,0,5.476-3.744.312.312,0,0,1,.506-.025c.066.083.141.169.236.271l.14.14A9.518,9.518,0,0,1,265.7,489.3c-.272.264-.325.3-.483.3a.192.192,0,0,1-.176-.132l-.3-.635A.312.312,0,0,1,264.97,488.394Zm.709-5.545a8.986,8.986,0,0,1,1.173.721.312.312,0,0,1,.073.421l-.164.25a.311.311,0,0,1-.453.073,7.246,7.246,0,0,0-1.038-.658.312.312,0,0,1-.139-.415l.126-.252A.314.314,0,0,1,265.679,482.849Z" transform="translate(-187.279 -482.129)" fill="#374349"/>
          <path id="Path_688" data-name="Path 688" d="M288,482.646h3.1a.312.312,0,0,1,.312.312v.175a.312.312,0,0,1-.312.312H288a.312.312,0,0,1-.312-.312v-.175A.312.312,0,0,1,288,482.646Zm.5,3.682h2.064a.312.312,0,0,1,.312.312v2.2a.312.312,0,0,1-.312.312h-.593v-.334h-.9v.4H288.5a.312.312,0,0,1-.312-.312V486.64A.312.312,0,0,1,288.5,486.328Zm.079-2.487h1.959a.313.313,0,0,1,.312.312v.158a.313.313,0,0,1-.312.312h-1.959a.312.312,0,0,1-.312-.312v-.158A.313.313,0,0,1,288.579,483.841Zm0,1.274h1.959a.313.313,0,0,1,.312.312v.175a.312.312,0,0,1-.312.312h-1.959a.312.312,0,0,1-.312-.312v-.175A.312.312,0,0,1,288.579,485.115Zm.061-3.673H290.6a.312.312,0,0,1,.312.312v.167a.312.312,0,0,1-.312.312H288.64a.312.312,0,0,1-.312-.312v-.167A.312.312,0,0,1,288.64,481.442Zm.435,6v.263a.312.312,0,0,0,.312.312h.272a.312.312,0,0,0,.312-.312v-.263a.312.312,0,0,0-.312-.312h-.272A.312.312,0,0,0,289.075,487.44Zm5.228-3.3v-1.256a.312.312,0,0,0-.312-.312H291.83a.312.312,0,0,1-.312-.312v-.167a.312.312,0,0,1,.312-.312h3.058a.312.312,0,0,1,.312.312v3.022a.313.313,0,0,1-.312.312H294.3v-.167h-1.525a.313.313,0,0,0-.312.312v2.447c-.009.255,0,.263.264.281h1.406c.243-.014.371-.121.5-.511a.31.31,0,0,1,.444-.167,2.777,2.777,0,0,0,.27.135.316.316,0,0,1,.167.394,1.184,1.184,0,0,1-1.218.94H292.37c-.554-.009-.782-.255-.8-.861v-3.466a.312.312,0,0,1,.312-.312h2.109A.312.312,0,0,0,294.3,484.135Z" transform="translate(-200.7 -481.345)" fill="#374349"/>
          <path id="Path_689" data-name="Path 689" d="M313.53,487.171a.312.312,0,0,1,.312-.312h2.517v-.264H313.1a.312.312,0,0,1-.312-.312v-.1a.312.312,0,0,1,.312-.312h3.256V485.6h-2.517a.312.312,0,0,1-.312-.312v-.105a.312.312,0,0,1,.312-.312h2.517v-.281h-2.043a.312.312,0,0,1-.312-.312V483.19a.312.312,0,0,1,.312-.312h2.043V482.6h-3.124a.312.312,0,0,1-.312-.312v-.105a.312.312,0,0,1,.312-.312h2.812a.312.312,0,0,0,.312-.312v-.026a.312.312,0,0,1,.312-.312h.236a.312.312,0,0,1,.312.312v.026a.312.312,0,0,0,.312.312h2.733a.312.312,0,0,1,.312.312v.105a.312.312,0,0,1-.312.312H317.22v.281h2.043a.312.312,0,0,1,.312.312v1.089a.312.312,0,0,1-.312.312H317.22v.281h2.139a.312.312,0,0,1,.312.312v.369a.312.312,0,0,0,.312.312h.457a.312.312,0,0,1,.312.312v.1a.312.312,0,0,1-.312.312h-.457a.313.313,0,0,0-.312.312v.518a.312.312,0,0,1-.312.312h-.522v-.149H317.22v.492c-.018.659-.246.888-.984.993l-.422.052a2.871,2.871,0,0,0-.4-.984h.721c.149,0,.22-.07.22-.228v-.326h-2.517a.312.312,0,0,1-.312-.312Zm1.3-3.625v.378h1.529v-.378Zm2.39,0v.378h1.529v-.378Zm0,2.056v.264h1.617V485.6Zm0,.993v.264h1.617v-.264Z" transform="translate(-215.024 -481.217)" fill="#374349"/>
        </g>
      </g>
    </g>
    <rect id="Rectangle_58" data-name="Rectangle 58" width="106.141" height="0.429" transform="translate(42.859 374.018)" fill="#374349"/>
    <rect id="Rectangle_59" data-name="Rectangle 59" width="106.141" height="0.429" transform="translate(42.859 353.723)" fill="#374349"/>
  </g>
</svg>
