<?xml version="1.0" encoding="utf-8"?>
<!-- Generator: Adobe Illustrator 25.0.0, SVG Export Plug-In . SVG Version: 6.00 Build 0)  -->
<svg version="1.1" id="Layer_1" xmlns="http://www.w3.org/2000/svg" xmlns:xlink="http://www.w3.org/1999/xlink" x="0px" y="0px"
	 viewBox="0 0 166 582" style="enable-background:new 0 0 166 582;" xml:space="preserve">
<style type="text/css">
	.st0{enable-background:new    ;}
	.st1{fill:#EDFDFF;}
</style>
<g id="Group_1111" transform="translate(-1706 -2682)">
	<g class="st0">
		<path class="st1" d="M1738,2689.8h90.7v32.8h-6.6v-24.2h-34v19.7h-6.3v-19.7h-37.4v24.4h-6.4V2689.8z"/>
		<path class="st1" d="M1738,2739.3l47.3,19.6l43.5-19.4v8l-36.2,16.2l36.2,15.6v8.2l-44.5-20l-46.3,20.7v-8.2l38.3-17.2l-38.3-15.2
			V2739.3z"/>
		<path class="st1" d="M1738,2808.8h90.7v21.7c0,5.4-1,9.7-3,12.9c-2,3.1-4.8,5.4-8.4,6.7c-3.6,1.3-7.8,2-12.7,2
			c-4.3,0-8.2-0.7-11.8-2.1c-3.6-1.4-6.5-3.7-8.7-6.8c-2.2-3.2-3.2-7.3-3.2-12.5v-13.3H1738V2808.8z M1787.3,2817.3v10.9
			c0,3.7,0.5,6.6,1.6,8.9c1.1,2.3,2.9,3.9,5.4,5c2.5,1,6,1.6,10.3,1.6c4.6,0,8.2-0.4,10.8-1.3s4.4-2.4,5.4-4.6
			c1-2.2,1.5-5.3,1.5-9.4v-11H1787.3z"/>
		<path class="st1" d="M1738,2874h90.7v32.8h-6.6v-24.2h-34v19.7h-6.3v-19.7h-37.4v24.4h-6.4V2874z"/>
		<path class="st1" d="M1738,2929.9h90.7v20.5c0,5.7-0.9,10.1-2.7,13.4c-1.8,3.2-4.5,5.6-8,7c-3.5,1.4-7.6,2.1-12.4,2.1
			c-3.4,0-6.5-0.4-9.5-1.1c-3-0.7-5.5-2-7.6-3.8c-2.1-1.8-3.5-4.3-4.1-7.6l-46.4,13.9v-8.3l44.6-13.3v-14.2H1738V2929.9z
			 M1788.8,2938.4v11.5c0,3.8,0.6,6.8,1.9,8.8c1.3,2.1,3.1,3.6,5.6,4.5c2.5,0.9,5.6,1.3,9.3,1.3c5.6,0,9.8-1,12.5-2.9
			c2.8-1.9,4.1-5.8,4.1-11.5v-11.8H1788.8z"/>
		<path class="st1" d="M1738,2998.6h90.7v8.5H1738V2998.6z"/>
		<path class="st1" d="M1738,3034.3h90.7v32.8h-6.6V3043h-34v19.7h-6.3V3043h-37.4v24.4h-6.4V3034.3z"/>
		<path class="st1" d="M1738,3090.2h90.7v6.2l-70.4,28.9h70.4v7.4H1738v-6l71.2-29H1738V3090.2z"/>
		<path class="st1" d="M1736.9,3180.7c0-6.1,1.3-10.8,3.8-14.2c2.5-3.3,6-5.6,10.2-6.9c4.3-1.3,9.1-1.9,14.3-1.9h36.1
			c5.6,0,10.5,0.7,14.8,2c4.3,1.3,7.6,3.6,10,7c2.4,3.4,3.6,8,3.6,14c0,5.4-1,9.7-3.1,12.8c-2.1,3.1-5.1,5.3-8.9,6.7
			c-3.8,1.3-8.4,2-13.7,2h-5.5v-8.1h5.3c4,0,7.4-0.3,10.2-1c2.8-0.6,5-1.9,6.6-3.9c1.6-1.9,2.4-4.8,2.4-8.5c0-4.1-0.8-7.2-2.5-9.2
			c-1.7-2.1-4.1-3.4-7.1-4.1c-3.1-0.7-6.6-1.1-10.6-1.1h-38.6c-4.5,0-8.2,0.4-11.2,1.3c-3,0.9-5.2,2.3-6.7,4.4
			c-1.5,2.1-2.2,5-2.2,8.7c0,3.8,0.8,6.7,2.5,8.6c1.6,1.9,3.9,3.2,6.9,3.8c2.9,0.6,6.4,1,10.4,1h5.9v8.1h-5.4
			c-5.3,0-10-0.6-14.1-1.8c-4.1-1.2-7.3-3.4-9.6-6.5C1738,3190.8,1736.9,3186.4,1736.9,3180.7z"/>
		<path class="st1" d="M1738,3226.6h90.7v32.8h-6.6v-24.2h-34v19.7h-6.3v-19.7h-37.4v24.4h-6.4V3226.6z"/>
	</g>
</g>
</svg>
