<svg xmlns="http://www.w3.org/2000/svg" width="674" height="754.656" viewBox="0 0 674 754.656">
  <g id="Group_1110" data-name="Group 1110" transform="translate(-623 -1760.344)">
    <circle id="Ellipse_1" data-name="Ellipse 1" cx="337" cy="337" r="337" transform="translate(623 1841)" fill="#edfdff"/>
    <g id="Group_60" data-name="Group 60" transform="translate(-340.853 1757.257)">
      <path id="Path_910" data-name="Path 910" d="M1370.847,607.507l-7.375,7.375h-9.56v8.467l-9.56,9.56v13.93h8.467V635.367l22.943-22.943Z" transform="translate(35.208 55.927)" fill="#7279a4"/>
      <path id="Path_911" data-name="Path 911" d="M1292.1,684.547v-54.08l64.459-64.459h77.023" transform="translate(30.373 52.087)" fill="none" stroke="#ccc" stroke-miterlimit="10" stroke-width="1"/>
      <path id="鹿児島" d="M1028.061,663.4V651.506h-6.9v-9.75l-13.109-13.109v-4.355l-15.318.076-5.7-5.7-6.928,6.928V661.1l9.833,9.833,8.467-8.467V643.075h11.2v38.785Z" transform="translate(1.504 56.96)" fill="#46a879"/>
      <path id="宮崎" d="M1055.27,597.274v-6.44h-17.408l-13.353,13.138v16.776L1018.8,626.8l-12.112.06v3.908l13.109,13.109v9.109h6.9v11.894l11.585-11.585V638l11.2-11.2V611.235l13.961-13.961Z" transform="translate(3.963 54.384)" fill="#46a879"/>
      <path id="熊本" d="M992.532,627.529l27.6-.137,5.094-5.4v-16.8l13.656-13.435v-12.7l-5.4-5.4h-6.759V584.03l-7.7-7.7v-3.648h-8.829l-4.338,4.337v7.919l-2.361,2.607v18.272l-16.335,16.335Z" transform="translate(2.156 52.704)" fill="#46a879"/>
      <path id="長崎" d="M990.121,590.446l-15.293-15.294V562.732l-4.709-4.709-6.265,6.265v22.67l12.974,12.974h18.528v-9.486Z" transform="translate(0 51.348)" fill="#46a879"/>
      <path id="佐賀" d="M998.38,570.84l6.209-6.209v-7.047H986.881v-5.076H975.548l-5.254,5.254,5.029,5.029v12.419l14.427,14.428V572.446l8.629,8.629Z" transform="translate(0.596 50.838)" fill="#46a879"/>
      <path id="大分" d="M1053.683,577.867v-13.11l4.643-4.643-10.106-10.106h-10.551v6.427H1025.39l-8.074,8.074v13.463l5.52,5.519v-8.83h8.3l6.061,6.061v12.8h18.178v6.44h8.168l5.841-5.841V577.867Z" transform="translate(4.947 50.607)" fill="#46a879"/>
      <path id="福岡" d="M1004.185,566.61l-6.209,6.209v10.875l5.574,5.574v.039l1.268-1.4v-7.951l4.978-4.977h9.282v-9.627l8.715-8.715h11.639v-5.517l-14.3-15.113h-17.207l-18.027,18.027h-3.416v3.984h17.709Z" transform="translate(2.093 49.311)" fill="#46a879"/>
      <path id="高知" d="M1148.424,544.824h-29.556l-19.637,19.637v17.947h-9.177v16.917l4.014,4.014h13.52V587.36l24.855-24.855h8.194l18.3,18.3V569.06l6.861-6.861Z" transform="translate(11.677 50.127)" fill="#9fd3a4"/>
      <path id="愛媛" d="M1090.09,599.648V582.732h9.177V565.425l20.277-20.277H1140.2v-6.355h-4.533l-.546-.546h-15.479l-10.379-8.74-31.41,31.41v1.093l4.916,4.916v25.4Z" transform="translate(10.548 48.71)" fill="#9fd3a4"/>
      <path id="徳島" d="M1167.094,529.007v3.942h-25.6l-5.57,5.57v6.675h8.712l17.695,17.7,16.4-16.4v-17.48Z" transform="translate(15.921 48.663)" fill="#9fd3a4"/>
      <path id="香川" d="M1131.2,538.65h4.4l5.89-5.89h24.963v-2.85H1162.8l-10.652-10.652h-12.291l-8.877,8.877v10.289Z" transform="translate(15.464 47.761)" fill="#9fd3a4"/>
      <path id="山口" d="M1076.309,521.284v-9.942l-6.985,6.985h-8.639v-14.6h-8.922l-4.356,4.356h-23.3V534.26h38.6L1074,545.549l8.376-8.376v-9.826Z" transform="translate(5.575 46.324)" fill="#a3b4ea"/>
      <path id="島根" d="M1058.587,521.31h7.094l20.758-20.758h9.4l15.186-15.186h7.382v-9.943h6.87l9.226-9.559h-2.148l-6.191-6.191h-20.03l-47.543,47.584Z" transform="translate(8.766 42.248)" fill="#a3b4ea"/>
      <path id="広島" d="M1131.337,504.956l-5.244-5.244V484.191H1110.15l-15.186,15.186h-9.4l-12.681,12.681V522.64l4.97,4.97v-4.653h12.073v3.733h38.912V514.945h2.495Z" transform="translate(10.089 44.517)" fill="#a3b4ea"/>
      <path id="岡山" d="M1162.865,493.136l4.661-4.661v-5.869H1160.8l-7.807-7.807h-16.036l-10.26,10.261h-4.105v15.069l5.244,5.244v10.441h30.645V504.889h4.389Z" transform="translate(14.688 43.648)" fill="#a3b4ea"/>
      <path id="鳥取" d="M1173.126,465.34h-42.267l-10.281,10.652h-6.241v8.85H1127l10.26-10.261H1154.2l7.807,7.807h6.6l4.516-4.516Z" transform="translate(13.924 42.772)" fill="#a3b4ea"/>
      <g id="兵庫" transform="translate(1178.645 501.922)">
        <path id="Path_912" data-name="Path 912" d="M1175.887,523.767l5.553,5.553h6.2v-8.007l5.94-5.94-4.649-4.649Z" transform="translate(-1159.025 -454.95)" fill="#57aca6"/>
        <path id="Path_913" data-name="Path 913" d="M1188.385,473.611V459.674H1175.6l-5.645,5.645v13.53l-4.836,4.836v6.642l-4.661,4.661v11.3h19.137l6.828,6.828h18.354l4.261,4.261h0V494.26Z" transform="translate(-1160.453 -459.674)" fill="#57aca6"/>
      </g>
      <path id="和歌山" d="M1223.377,549.453h-12.338V537.828l5.754-5.754V523.13l-4.69,4.69h-19v25.9l21.4,21.168,17.158-17.158Z" transform="translate(21.213 48.12)" fill="#57aca6"/>
      <path id="大阪" d="M1193.1,529.273h18.547l5.143-5.143V507.67l4.581-4.58-7.465-7.466h-6.8v19.521h-1.056L1193.1,528.09Z" transform="translate(21.213 45.575)" fill="#57aca6"/>
      <path id="奈良" d="M1240.383,515.127h-9V509.01h-11.4v-5.345l-3.714,3.714v26.949l-5.754,5.754v10.08h11.246l12.644-12.645v-16.2h5.973Z" transform="translate(22.824 46.319)" fill="#57aca6"/>
      <path id="京都" d="M1227.48,502.272V482.1l-4.123-4.123h-5.973l-7.33-7.331v-.226h-7.284V459.674h-15.75v13.485l20.649,20.648v4.05h7.255l8.332,8.333v5.8h10.306v-3.634Z" transform="translate(20.65 42.248)" fill="#57aca6"/>
      <path id="滋賀" d="M1249.592,466.548l-4.924-4.925h-7.851l-15.623,15.624,4.216,4.216v20.176l5.536,5.536,6.092-6.092h6.173l6.381-6.381Zm-18.477,22.935-2.925-2.926,7.578-7.578-2.526-2.526v-3.723h5.052l4.786,4.786Z" transform="translate(23.812 42.428)" fill="#57aca6"/>
      <path id="三重" d="M1254.914,495.758h8.03v-4.963l-7.837-7.838h-4.472V493.18l-7.021,7.022h-6.173l-6,6v9.752h9v8.376h-5.973v15.558l-12.738,12.739,8.053,8.053,11.659-11.659V534h25.128V521.615l-11.654-11.654Z" transform="translate(23.861 44.402)" fill="#57aca6"/>
      <path id="福井" d="M1215.774,479.5h5.52l16.169-16.17h7.983v-7.574h22.506V442.2h-15.413l-10.776-10.776-11.195,11.195v16.206l-14.2,14.2h-7.057Z" transform="translate(22.712 39.634)" fill="#f4d966"/>
      <path id="石川" d="M1250.179,446.979h14.96V407.531l9.231-9.232V387.309l10.561-10.561-8.74-8.74-17.845,17.845V417.9l-18.624,18.624Z" transform="translate(25.526 33.766)" fill="#f4d966"/>
      <path id="愛知" d="M1292.422,510.578V505.89l12.455-12.454v-10.59h-28.523l-6.555-6.555h-13.212v10.444l4.224,4.225v5.415h3.988v14.2Z" transform="translate(27.087 43.786)" fill="#f4d966"/>
      <path id="岐阜" d="M1278.028,486.509h18.237V466.523l-9.841-9.84,12.244-12.244V424.891h-16.052l-7.648,7.648h-9.075v24.909h-22.506v6.8l5.244,5.245v17.743h4.924l3.16,3.16V479.954h14.757Z" transform="translate(25.865 39.03)" fill="#f4d966"/>
      <path id="富山" d="M1272.126,397.616l-8.139,8.139v28.726h8.623l7.648-7.648h16.825l6.344-6.345v-28.4h-4.352l-16.16,16.16h-10.789Z" transform="translate(27.771 35.995)" fill="#f4d966"/>
      <g id="新潟" transform="translate(1332.291 351.065)">
        <path id="Path_914" data-name="Path 914" d="M1316.827,350.4l16.388-16.388v6.737l-5.918,5.918H1337.4l-21.259,21.259v-9.15l3.8-3.8Z" transform="translate(-1299.693 -320.445)" fill="#f4d966"/>
        <path id="Path_915" data-name="Path 915" d="M1301.086,412.161h21.086V402.11h13.766v11.071H1350v-8.449h8.158V380.259h13.183v-8.638l8.23-8.231V343.547h5.273v-6.579h-5.273v-9.107l-6.267-6.268-6.1,6.1v16.57l-54.353,54.353h-11.763Z" transform="translate(-1301.086 -321.594)" fill="#f4d966"/>
      </g>
      <path id="長野" d="M1302.868,489.155h8.95l5.361-5.361V454.62H1339.9v-7.2H1335.1V428.193h-8.3v-14.2h9.615v-17.7h-11.581v10.052H1302.65v14.21l-6.665,6.665v20.321l-11.792,11.792,9.388,9.388v20.438Z" transform="translate(29.641 36.383)" fill="#f4d966"/>
      <path id="山梨" d="M1345.225,471.571h9.633v-6.633L1340.6,450.68h-25.214v13.777h6.119v22.724h8.084V476.256h15.636Z" transform="translate(32.527 41.416)" fill="#f4d966"/>
      <path id="静岡" d="M1350.039,484.291v-8.2h-17.044v10.925h-10.269V464.29H1317.7v13.664l-6,6h-8.857V495l-12.455,12.454v4.235h24.454l18.937-18.937h9.469v21.122h8.012l7.284-7.283v-13.8Z" transform="translate(30.214 42.675)" fill="#f4d966"/>
      <path id="群馬" d="M1348.95,398.691v8.449H1333.8v7.72h-9.615v12.018h8.3v19.228h7.677l10.925-10.925h10.969v4.079h13.183v-4.68h-4.924l-3.816-3.816V417.919h-4.37V398.691Z" transform="translate(33.342 36.605)" fill="#6a98b1"/>
      <path id="栃木" d="M1374.88,440.08l7.666-7.666h5.061l9.058-9.057V396.751l-6.928-6.927h-8.652l-9.687,9.688h-11.48v18.136h4.37v13.485l3.176,3.176h5.564v5.772Z" transform="translate(36.648 35.785)" fill="#6a98b1"/>
      <path id="茨城" d="M1421.48,403.772h-11.208l-6.054,6.053-7.793-7.794V422.68l-9.7,9.7h-5.062l-7.346,7.346v5.969h4.3l7.325,7.324h20.311l9.988,9.987h5.364l-14.021-14.02V417.665Z" transform="translate(37.981 36.914)" fill="#6a98b1"/>
      <path id="埼玉" d="M1359.858,437.169V433.09h-9.424l-10.925,10.925h-3.322v7.2h2.942l4.6,4.6,3.818-3.819h10.607l5.3,5.3h19.078v-7.93l-5.772-5.772v-6.422Z" transform="translate(34.452 39.788)" fill="#6a98b1"/>
      <path id="千葉" d="M1415.726,460.306l-9.987-9.987h-20.311l-7.326-7.324h-3.075l5,5v14.133l6.737,6.737L1376.2,479.426v20.539l2.84,2.841,22.288-22.288,20.212-20.212Z" transform="translate(38.046 40.705)" fill="#6a98b1"/>
      <path id="神奈川" d="M1372.156,464.024h-18.825v7.405H1343.7v3.592h2.5v8.842l7.411,7.411v-8.7h18.209V470.2l3.255-3.255Z" transform="translate(35.147 42.651)" fill="#6a98b1"/>
      <path id="東京" d="M1381.824,456.692h-19.53l-5.3-5.3h-9.7l-3.5,3.5L1353,464.1h19.6l3.238,3.238,5.987-5.987Z" transform="translate(35.156 41.482)" fill="#6a98b1"/>
      <path id="青森" d="M1422.385,241.928v12.346h3.27l5.573-5.572h11l5.667-5.667-6.879-6.879V200.1l-12.928-12.928h-12.928v16.57h10.925v18.937h-18.937V206.657h-12.382v16.752l-15.66,15.66v2.859Z" transform="translate(38.423 17.034)" fill="#bfc67c"/>
      <path id="秋田" d="M1393.368,303.77l11.515,11.515h7.233v-30.57l4.953-4.953V249.544h4.224V238.291H1379.1v2.968l3.369,3.369v8.631l-3.369,3.369v9.76l5.444,5.445v17.917l-5.444,5.444v8.576Z" transform="translate(38.423 21.763)" fill="#bfc67c"/>
      <path id="岩手" d="M1458.154,251.389l-12.378-12.378L1439.789,245h-11l-5.573,5.572h-7.947v29.578l-4.953,4.953v30.117h15.564v7.808h11.6V311.071h11.97l8.7-8.7Z" transform="translate(41.312 21.83)" fill="#bfc67c"/>
      <path id="山形" d="M1374.477,329.479v8.467h5.273v8.764h-5.273V365.14h21.487V352.612h8.74V340.988l5.827-5.827V315.8l-16.578-16.578h-13.812v11.417l-12.251,12.251Z" transform="translate(37.386 27.402)" fill="#bfc67c"/>
      <path id="宮城" d="M1440.035,305.968v11.956h-13.788v-7.808h-21.7l4.609,4.61v20.263l-5.826,5.828v12.265h-8.74v4.151h14.858v7.675H1417l5.5-5.5V341.664l6.155-6.155h14.931V312.2l6.234-6.234Z" transform="translate(39.856 28.026)" fill="#bfc67c"/>
      <path id="福島" d="M1421.181,361.565h-9.1v-7.675h-13.766v7.284h-22.9l-7.91,7.911v9.278H1354.32v23.381h17.145l9.687-9.688h9.556l7.568,7.568v5.316l7.793,7.794,5.6-5.6h12.753l7.958-7.958V361.9l-5.769-5.769Z" transform="translate(36.13 32.46)" fill="#bfc67c"/>
      <path id="Path_916" data-name="Path 916" d="M1580.838,103.439V84.211l6.518-6.518V59.811l-17.48,17.48h-36.113L1459.417,3.087l-11.577,7.2V27.4l6.555,6.555v42.7L1440.647,90.4V110.8l-13.7,13.7-18.254-18.254-10.2,10.2,7.83,7.83L1380.1,150.491v16.024l12.018,12.018V188l-11.654,11.654,10.925,10.925,16.388-16.388H1428.9v-6.919l-14.931-14.931h-12.928V152.676h14.021l9.287,9.287,10.2-10.2h25.583l17.936,17.936H1489.9l20.348,20.348V165.058l34.528-34.529h21.782l8.592-8.592h24.184Z" transform="translate(38.516)" fill="#76bfe0"/>
    </g>
  </g>
</svg>
