<svg xmlns="http://www.w3.org/2000/svg" width="163.719" height="222.716" viewBox="0 0 163.719 222.716">
  <g id="Group_162" data-name="Group 162" transform="translate(-21 -6630)">
    <path id="Path_917" data-name="Path 917" d="M347.921,449.134a3.174,3.174,0,0,0,4.828-.383c5.922-8.341,9.562-18.926,10.1-31.646a2.862,2.862,0,0,0-2.85-3H319.543a2.754,2.754,0,0,0-1.947,4.7Z" transform="translate(-201.331 6335.484)" fill="#fff"/>
    <path id="Path_918" data-name="Path 918" d="M362.882,268.682a3.476,3.476,0,0,0-3.476-3.476H329.831a3.127,3.127,0,0,0-2.774,4.556,25.6,25.6,0,0,1-8.969,32.99,3.09,3.09,0,0,0,0,5.2,25.6,25.6,0,0,1,3.062,40.667,2.844,2.844,0,0,0,1.931,4.942h36.6a3.2,3.2,0,0,0,3.2-3.2Z" transform="translate(-201.292 6386.448)" fill="#fff"/>
    <path id="Path_919" data-name="Path 919" d="M211.548,342.29h36.6a2.844,2.844,0,0,0,1.93-4.942,25.6,25.6,0,0,1,3.062-40.667,3.091,3.091,0,0,0,0-5.2,25.629,25.629,0,0,1-11.7-21.5c0-14.133,10.177-25.631,27.034-25.631h54.661a2.666,2.666,0,0,0,2.666-2.666v-6.552a2.849,2.849,0,0,0-2.85-2.849H211.524a3.176,3.176,0,0,0-3.177,3.177V339.089A3.2,3.2,0,0,0,211.548,342.29Z" transform="translate(-164.218 6397.715)" fill="#fff"/>
    <path id="Path_920" data-name="Path 920" d="M305.333,281.251a16.045,16.045,0,1,0-16.045,16.044A16.063,16.063,0,0,0,305.333,281.251Z" transform="translate(-186.429 6386.448)" fill="#fff"/>
    <path id="Path_921" data-name="Path 921" d="M314.792,459.078l-34.3-34.3a3.572,3.572,0,0,0-5.049,0l-34.313,34.314a3.29,3.29,0,0,0,.469,5.029c9.955,6.944,22.532,10.13,36.261,10.13,13.83,0,26.468-3.191,36.457-10.145A3.289,3.289,0,0,0,314.792,459.078Z" transform="translate(-175.111 6332.189)" fill="#fff"/>
    <path id="Path_922" data-name="Path 922" d="M289.288,370.574a16.044,16.044,0,1,0-16.044-16.044A16.062,16.062,0,0,0,289.288,370.574Z" transform="translate(-186.429 6361.367)" fill="#fff"/>
    <path id="Path_923" data-name="Path 923" d="M223.476,449.034l30.067-30.067a2.846,2.846,0,0,0-2.013-4.859H211a2.566,2.566,0,0,0-2.57,2.651c.483,12.814,4.1,23.476,10.017,31.874A3.3,3.3,0,0,0,223.476,449.034Z" transform="translate(-164.247 6335.484)" fill="#fff"/>
    <path id="Path_924" data-name="Path 924" d="M193.281,537.945c0,4.279-2.388,6.418-6.12,6.418s-6.119-2.14-6.119-6.418v-21.89h-7.861v22.537c0,8.856,6.219,13.532,13.98,13.532s13.98-4.676,13.98-13.532V516.055h-7.86Z" transform="translate(-152.182 6300.592)" fill="#fff"/>
    <rect id="Rectangle_45" data-name="Rectangle 45" width="14.925" height="6.816" transform="translate(54.532 6833.512)" fill="#fff"/>
    <path id="Path_925" data-name="Path 925" d="M270.062,525.617c-3.383,0-6.12,1.393-7.164,2.935V514.921h-7.413V550.94H262.8v-2.786c1.144,1.89,3.681,3.333,6.965,3.333,6.915,0,11.791-5.422,11.791-12.984C281.554,531.09,277.225,525.617,270.062,525.617Zm-1.642,19.1c-2.935,0-5.622-2.09-5.622-6.169,0-4.179,2.686-6.12,5.622-6.12s5.572,1.941,5.572,6.12C273.992,542.681,271.356,544.721,268.42,544.721Z" transform="translate(-180.351 6300.979)" fill="#fff"/>
    <path id="Path_926" data-name="Path 926" d="M312.945,530.956a13.109,13.109,0,1,0,13.134,13.084A12.775,12.775,0,0,0,312.945,530.956Zm0,19.253c-2.836,0-5.572-2.04-5.572-6.169,0-4.179,2.737-6.12,5.572-6.12,2.885,0,5.572,1.941,5.572,6.12S315.83,550.209,312.945,550.209Z" transform="translate(-195.522 6295.492)" fill="#fff"/>
    <path id="Path_927" data-name="Path 927" d="M369.589,526.214h-9.8l-7.512,8.308v-19.6h-7.562V550.94h7.562v-6.069l2.437-2.637,5.821,8.706h9.253l-9.85-14.328Z" transform="translate(-210.891 6300.979)" fill="#fff"/>
    <path id="Path_928" data-name="Path 928" d="M409.625,552.388v-20.3h-7.562v14.08a3.943,3.943,0,0,1-4.129,4.228c-2.686,0-3.98-1.89-3.98-4.279V532.09h-7.562v15.622c0,5.274,3.383,9.651,9.4,9.651,2.488,0,5.323-.9,6.617-3.035a18.048,18.048,0,0,0,.2,2.488h7.263A38.906,38.906,0,0,1,409.625,552.388Z" transform="translate(-225.155 6295.104)" fill="#fff"/>
  </g>
</svg>
