<svg id="logo01" xmlns="http://www.w3.org/2000/svg" width="83.171" height="31" viewBox="0 0 83.171 31">
  <path id="Path_929" data-name="Path 929" d="M776.407,417.818h-7.088a.484.484,0,0,0-.341.826l5.313,5.328a.555.555,0,0,0,.846-.067,10.206,10.206,0,0,0,1.77-5.56A.5.5,0,0,0,776.407,417.818Z" transform="translate(-756.339 -396.806)" fill="#fff"/>
  <path id="Path_930" data-name="Path 930" d="M776.254,327.768h-5.182a.549.549,0,0,0-.486.8,4.506,4.506,0,0,1-1.571,5.8.544.544,0,0,0,0,.913,4.506,4.506,0,0,1,.537,7.145.5.5,0,0,0,.338.868H776.3a.562.562,0,0,0,.561-.562v-14.35A.61.61,0,0,0,776.254,327.768Z" transform="translate(-756.283 -323.964)" fill="#fff"/>
  <path id="Path_931" data-name="Path 931" d="M723.337,307.859H703.814a.557.557,0,0,0-.557.558v18.207a.562.562,0,0,0,.561.562h6.413a.5.5,0,0,0,.338-.868,4.506,4.506,0,0,1,.536-7.145.544.544,0,0,0,0-.913,4.506,4.506,0,0,1-2.049-3.778,4.426,4.426,0,0,1,4.736-4.5h9.577a.468.468,0,0,0,.467-.468V308.36A.5.5,0,0,0,723.337,307.859Z" transform="translate(-703.257 -307.859)" fill="#fff"/>
  <path id="Path_932" data-name="Path 932" d="M748.126,330.587a2.811,2.811,0,1,0-2.811,2.819A2.818,2.818,0,0,0,748.126,330.587Z" transform="translate(-735.025 -323.964)" fill="#fff"/>
  <path id="Path_933" data-name="Path 933" d="M729.57,423.824a.624.624,0,0,0-.885,0l-6.012,6.029a.579.579,0,0,0,.082.884,12.283,12.283,0,0,0,12.741,0,.579.579,0,0,0,.083-.884Z" transform="translate(-718.838 -401.516)" fill="#fff"/>
  <path id="Path_934" data-name="Path 934" d="M745.315,377.723A2.819,2.819,0,1,0,742.5,374.9,2.818,2.818,0,0,0,745.315,377.723Z" transform="translate(-735.025 -359.812)" fill="#fff"/>
  <path id="Path_935" data-name="Path 935" d="M710.86,417.818h-7.1a.45.45,0,0,0-.45.466,10.249,10.249,0,0,0,1.755,5.6.577.577,0,0,0,.88.071l5.268-5.283A.5.5,0,0,0,710.86,417.818Z" transform="translate(-703.299 -396.806)" fill="#fff"/>
  <path id="Path_936" data-name="Path 936" d="M841.2,363.808a2.18,2.18,0,1,1-4.355,0V356h-2.8v8.041c0,3.16,2.212,4.828,4.974,4.828s4.974-1.668,4.974-4.828V356h-2.8Z" transform="translate(-809.122 -346.799)" fill="#fff"/>
  <rect id="Rectangle_46" data-name="Rectangle 46" width="5.31" height="2.432" transform="translate(36.852 15.216)" fill="#fff"/>
  <path id="Path_937" data-name="Path 937" d="M940.3,358.421a3.158,3.158,0,0,0-2.549,1.047v-4.864h-2.637v12.851h2.6v-.994a2.835,2.835,0,0,0,2.478,1.189c2.46,0,4.2-1.935,4.2-4.633C944.393,360.374,942.853,358.421,940.3,358.421Zm-.584,6.816a2,2,0,0,1-2-2.2,2,2,0,1,1,2,2.2Z" transform="translate(-890.936 -345.672)" fill="#fff"/>
  <path id="Path_938" data-name="Path 938" d="M994.227,374.3a4.677,4.677,0,1,0,4.673,4.668A4.551,4.551,0,0,0,994.227,374.3Zm0,6.869a2,2,0,0,1-1.982-2.2,1.993,1.993,0,1,1,1.982,2.2Z" transform="translate(-934.999 -361.602)" fill="#fff"/>
  <path id="Path_939" data-name="Path 939" d="M1053.55,358.634h-3.487l-2.673,2.964v-6.993h-2.69v12.851h2.69v-2.165l.867-.941,2.071,3.106h3.292l-3.5-5.112Z" transform="translate(-979.636 -345.673)" fill="#fff"/>
  <path id="Path_940" data-name="Path 940" d="M1104.149,382.933v-7.242h-2.69v5.023a1.4,1.4,0,0,1-1.469,1.509,1.369,1.369,0,0,1-1.416-1.526v-5.005h-2.691v5.574a3.231,3.231,0,0,0,3.346,3.443,2.732,2.732,0,0,0,2.354-1.083,6.46,6.46,0,0,0,.071.888h2.584A13.828,13.828,0,0,1,1104.149,382.933Z" transform="translate(-1021.067 -362.729)" fill="#fff"/>
</svg>
