<svg xmlns="http://www.w3.org/2000/svg" width="244.524" height="46.676" viewBox="0 0 244.524 46.676">
  <g id="Group_1084" data-name="Group 1084" transform="translate(0 -0.01)">
    <g id="Group_1074" data-name="Group 1074" transform="translate(1.48 28.125)">
      <path id="Path_625" data-name="Path 625" d="M1037.06,568.388h-1.442a.4.4,0,0,1-.4-.4v-6.976a.4.4,0,0,1,.4-.4h11.829a.4.4,0,0,0,.2-.051l.291-.164a.4.4,0,0,1,.482.064l1.242,1.229a.582.582,0,0,1,.143.366.549.549,0,0,1-.143.325l-.3.386c-.2,6.37-2.75,10.673-7.788,13.158a.414.414,0,0,1-.513-.136,5.514,5.514,0,0,0-1.01-1.033.4.4,0,0,1,.087-.685c4.414-1.806,6.856-5.6,7.083-11.025a.408.408,0,0,0-.407-.422h-8.942a.4.4,0,0,0-.4.4v4.964A.4.4,0,0,1,1037.06,568.388Z" transform="translate(-1035.215 -558.22)" fill="#4fbac4"/>
      <path id="Path_626" data-name="Path 626" d="M1077.455,569.68h-15.827a.4.4,0,0,1-.4-.4v-1.144a.4.4,0,0,1,.4-.4h15.827a.4.4,0,0,1,.4.4v1.144A.4.4,0,0,1,1077.455,569.68Z" transform="translate(-1038.618 -559.187)" fill="#4fbac4"/>
      <path id="Path_627" data-name="Path 627" d="M1094.22,565.89a23.851,23.851,0,0,1-2.85,4.139.4.4,0,0,1-.551.049,6.293,6.293,0,0,0-1.254-.809.4.4,0,0,1-.115-.644,19.5,19.5,0,0,0,5-9.1.4.4,0,0,1,.474-.3l1.581.343c.242.041.364.183.364.346a.646.646,0,0,1-.223.386l-.324.345c-.3,1-.58,1.82-.842,2.478a.4.4,0,0,0,.374.549h9.669a.4.4,0,0,1,.4.4v1.2a.4.4,0,0,1-.4.4h-3.28a.4.4,0,0,0-.4.369,11.542,11.542,0,0,1-5.877,9.385.411.411,0,0,1-.487-.085,8.529,8.529,0,0,0-1.07-.959.4.4,0,0,1,.068-.679,9.019,9.019,0,0,0,5.218-7.578.407.407,0,0,0-.4-.453h-4.721A.407.407,0,0,0,1094.22,565.89Z" transform="translate(-1042.295 -558.073)" fill="#4fbac4"/>
      <path id="Path_628" data-name="Path 628" d="M1133.147,569.68H1117.32a.4.4,0,0,1-.4-.4v-1.144a.4.4,0,0,1,.4-.4h15.827a.4.4,0,0,1,.4.4v1.144A.4.4,0,0,1,1133.147,569.68Z" transform="translate(-1045.904 -559.187)" fill="#4fbac4"/>
      <path id="Path_629" data-name="Path 629" d="M1146.724,564.592a25.031,25.031,0,0,1,3.259,1.641.4.4,0,0,1,.148.534l-.637,1.215a.407.407,0,0,1-.569.156,24.419,24.419,0,0,0-3.055-1.591.4.4,0,0,1-.215-.538l.541-1.211A.406.406,0,0,1,1146.724,564.592Zm.455,8.621a19.92,19.92,0,0,0,13.278-9.117.4.4,0,0,1,.671-.012,7.749,7.749,0,0,0,.788.964l.324.325a21.966,21.966,0,0,1-12.888,9.83.419.419,0,0,0-.176.1c-.562.542-.688.617-1.038.617-.182,0-.3-.1-.405-.305l-.853-1.84A.4.4,0,0,1,1147.179,573.213Zm1.753-13.045a20.728,20.728,0,0,1,3.228,1.99.407.407,0,0,1,.092.544l-.727,1.118a.4.4,0,0,1-.59.09,16.685,16.685,0,0,0-2.939-1.873.4.4,0,0,1-.183-.538l.573-1.148A.409.409,0,0,1,1148.932,560.168Z" transform="translate(-1049.659 -558.193)" fill="#4fbac4"/>
      <path id="Path_630" data-name="Path 630" d="M1173.267,574.037h6.507a.4.4,0,0,0,.4-.4v-1.592a.4.4,0,0,0-.4-.4h-6.264a.4.4,0,0,1-.4-.4v-.96a.4.4,0,0,1,.4-.4h6.264a.4.4,0,0,0,.4-.4v-1.531a.4.4,0,0,0-.4-.4h-6.486a.4.4,0,0,1-.4-.4v-.961a.4.4,0,0,1,.4-.4h8.512a.4.4,0,0,1,.4.4v9.882a.4.4,0,0,1-.4.4h-1.623v-.65h-6.911a.4.4,0,0,1-.4-.4v-.961A.4.4,0,0,1,1173.267,574.037Z" transform="translate(-1053.223 -558.931)" fill="#4fbac4"/>
      <path id="Path_631" data-name="Path 631" d="M1195.838,573.279a28.2,28.2,0,0,0,13.548-9.033.4.4,0,0,1,.668.068,9.7,9.7,0,0,0,.648,1.109.4.4,0,0,1-.018.488,29.338,29.338,0,0,1-12.972,9.133.393.393,0,0,0-.186.143l-.274.388-.223.183h-.385l-.183-.2-.862-1.714A.4.4,0,0,1,1195.838,573.279Zm1.507-12.786a39.632,39.632,0,0,1,3.618,2.46.409.409,0,0,1,.079.568l-.864,1.152a.4.4,0,0,1-.577.068,25.031,25.031,0,0,0-3.434-2.349.4.4,0,0,1-.142-.567l.772-1.2A.406.406,0,0,1,1197.344,560.492Z" transform="translate(-1056.192 -558.233)" fill="#4fbac4"/>
      <path id="Path_632" data-name="Path 632" d="M1225.612,564.523c1.015.5,2.018,1.04,3.156,1.715a.409.409,0,0,0,.574-.163,27.888,27.888,0,0,0,2.032-5.69.4.4,0,0,1,.515-.29l1.776.578c.222.081.3.183.3.345a.652.652,0,0,1-.2.407l-.359.36a.4.4,0,0,0-.094.156,42.739,42.739,0,0,1-2.187,5.325.4.4,0,0,0,.135.51c1.091.738,2.132,1.524,3.207,2.416a.408.408,0,0,1,.021.608l-1.1,1.042a.406.406,0,0,1-.543.006,29.372,29.372,0,0,0-2.672-2.089.4.4,0,0,0-.561.109,20.117,20.117,0,0,1-6.11,5.791.412.412,0,0,1-.533-.089,6.16,6.16,0,0,0-1.07-1.006.4.4,0,0,1,.045-.678,16.313,16.313,0,0,0,5.825-5.231.413.413,0,0,0-.118-.571,26.791,26.791,0,0,0-3.118-1.749.4.4,0,0,1-.163-.588l.735-1.088A.4.4,0,0,1,1225.612,564.523Z" transform="translate(-1059.616 -558.186)" fill="#4fbac4"/>
      <path id="Path_633" data-name="Path 633" d="M1247.554,565.062h15.4a.4.4,0,0,1,.4.4v1.226a.4.4,0,0,1-.4.4h-5.649a.4.4,0,0,0-.4.395c-.133,4.149-1.787,6.937-5.2,8.756a.409.409,0,0,1-.508-.111,9.147,9.147,0,0,0-1.082-1.128.4.4,0,0,1,.1-.661c2.947-1.327,4.307-3.409,4.425-6.833a.408.408,0,0,0-.407-.418h-6.679a.4.4,0,0,1-.4-.4v-1.226A.4.4,0,0,1,1247.554,565.062Zm2.553-4.938h9.466a.4.4,0,0,1,.4.4v1.2a.4.4,0,0,1-.4.4h-9.466a.4.4,0,0,1-.4-.4v-1.2A.4.4,0,0,1,1250.107,560.124Zm12.241,3.361a19.06,19.06,0,0,0-1.829-1.965.4.4,0,0,1-.006-.583l.66-.64a.4.4,0,0,1,.546-.016,22.905,22.905,0,0,1,1.992,2,.4.4,0,0,1-.031.565l-.747.682A.4.4,0,0,1,1262.349,563.486Zm1.413-2.5a14.964,14.964,0,0,0-1.648-1.751.4.4,0,0,1-.015-.592l.658-.628a.407.407,0,0,1,.538-.019,14.08,14.08,0,0,1,1.825,1.81.407.407,0,0,1-.039.559l-.734.67A.4.4,0,0,1,1263.762,560.984Z" transform="translate(-1062.942 -557.902)" fill="#4fbac4"/>
      <path id="Path_634" data-name="Path 634" d="M1283.281,567.151a12.407,12.407,0,0,1-1.053,1.463c-.271.34-.358.453-.486.623a.4.4,0,0,0-.082.242v7.551a.4.4,0,0,1-.4.4h-1.219a.4.4,0,0,1-.4-.4v-4.7a.4.4,0,0,0-.672-.3c-.46.412-1.03.872-1.9,1.546-.307.237-.456.35-.579.448a.4.4,0,0,1-.517-.016,8.491,8.491,0,0,0-1.019-.78.4.4,0,0,1,.007-.67,21.526,21.526,0,0,0,6.836-7.031.4.4,0,0,1,.577-.131l1.381.967a.518.518,0,0,1,.223.346.343.343,0,0,1-.284.3Z" transform="translate(-1066.555 -558.872)" fill="#4fbac4"/>
      <path id="Path_635" data-name="Path 635" d="M1304.031,564.659a.4.4,0,0,1,.4.4v.714a17.145,17.145,0,0,0,2.964-2.587.4.4,0,0,0-.309-.665H1295.9a.4.4,0,0,1-.4-.4v-1.206a.4.4,0,0,1,.4-.4h12.643a.411.411,0,0,0,.158-.032l.454-.194a.4.4,0,0,1,.471.117l1.389,1.714a.744.744,0,0,1,.162.407.486.486,0,0,1-.365.406l-.526.182a23.788,23.788,0,0,1-4.588,4.458.41.41,0,0,1-.56-.063c-.182-.217-.348-.4-.707-.838v1.83a9.79,9.79,0,0,1-3.752,7.676.412.412,0,0,1-.54-.018,8.216,8.216,0,0,0-1.277-.947.4.4,0,0,1-.036-.664,7.439,7.439,0,0,0,3.356-6.291v-3.193a.4.4,0,0,1,.4-.4Z" transform="translate(-1069.267 -558.209)" fill="#4fbac4"/>
    </g>
    <g id="Group_1075" data-name="Group 1075" transform="translate(0 0.01)">
      <path id="Path_615" data-name="Path 615" d="M741.453,567.307v-1.041a.4.4,0,0,1,.4-.4h1.462a.4.4,0,0,0,.4-.46l-.25-1.754a.4.4,0,0,0-.4-.347h-.746a.4.4,0,0,1-.4-.4v-1a.4.4,0,0,1,.4-.4h2.8a.4.4,0,0,0,.4-.4v-1.225a.4.4,0,0,1,.4-.4h1.239a.4.4,0,0,1,.4.4v1.225a.4.4,0,0,0,.4.4h2.475a.4.4,0,0,1,.4.4v1a.4.4,0,0,1-.4.4h-.566a.4.4,0,0,0-.4.343l-.263,1.754a.4.4,0,0,0,.4.463h1.134a.4.4,0,0,1,.4.4v1.041a.4.4,0,0,1-.4.4H748a.4.4,0,0,0-.4.4v.8a.4.4,0,0,0,.4.4h2.212a.4.4,0,0,1,.4.4v1.042a.4.4,0,0,1-.4.4h-1.585a.4.4,0,0,0-.29.685,9.046,9.046,0,0,0,1.476,1.191.408.408,0,0,1,.1.581,6.694,6.694,0,0,0-.57.86.406.406,0,0,1-.635.1c-.162-.156-.288-.283-.407-.415a.4.4,0,0,0-.7.275v2.827a.4.4,0,0,1-.4.4h-1.239a.4.4,0,0,1-.4-.4v-2.852a.4.4,0,0,0-.7-.276,11.464,11.464,0,0,1-2,1.683.4.4,0,0,1-.6-.149,3.788,3.788,0,0,0-.681-.985.4.4,0,0,1,.105-.619,9.612,9.612,0,0,0,2.947-2.23.406.406,0,0,0-.3-.673h-2a.4.4,0,0,1-.4-.4V569.72a.4.4,0,0,1,.4-.4h2.82a.4.4,0,0,0,.4-.4v-.8a.4.4,0,0,0-.4-.4h-3.286A.4.4,0,0,1,741.453,567.307Zm3.943-3.539.277,1.754a.4.4,0,0,0,.4.34h.8a.4.4,0,0,0,.4-.346l.249-1.755a.4.4,0,0,0-.4-.46h-1.333A.4.4,0,0,0,745.4,563.768Zm7.919-2.681a13.724,13.724,0,0,0,4.006-1.37.41.41,0,0,1,.467.064l1.048,1a.535.535,0,0,1,.183.325c0,.212-.236.333-.693.345a.411.411,0,0,0-.148.03,20.465,20.465,0,0,1-4.229,1.364.407.407,0,0,0-.32.394v2.077a.4.4,0,0,0,.4.4h5.311a.4.4,0,0,1,.4.4v1.043a.4.4,0,0,1-.4.4h-1.3a.4.4,0,0,0-.4.4v9.354a.4.4,0,0,1-.4.4H756a.4.4,0,0,1-.4-.4v-9.354a.4.4,0,0,0-.4-.4h-1.2a.406.406,0,0,0-.4.382,17.59,17.59,0,0,1-2.707,9.019.408.408,0,0,1-.6.1,3.862,3.862,0,0,0-1.079-.62.406.406,0,0,1-.19-.624,13.965,13.965,0,0,0,2.549-8.606v-6a.4.4,0,0,1,.494-.393l1.079.251A.421.421,0,0,0,753.315,561.087Z" transform="translate(-741.453 -559.297)" fill="#4fbac4"/>
      <path id="Path_616" data-name="Path 616" d="M776.692,561.229c.283.04.446.163.446.324a.681.681,0,0,1-.1.306l-.255.46a.407.407,0,0,0-.05.191c-.08,5.074-.12,7.691-.12,9.306v1c0,1.565.426,2.134,1.6,2.134a10.986,10.986,0,0,0,3.425-.67,13.768,13.768,0,0,0,3.724-1.779.406.406,0,0,1,.6.183,7.249,7.249,0,0,0,.64,1.147.4.4,0,0,1-.118.555,17.254,17.254,0,0,1-8.434,2.7,3.71,3.71,0,0,1-2.8-1,5.3,5.3,0,0,1-.892-3.273v-1.2c0-3.427.037-7.206.111-10.209a.4.4,0,0,1,.452-.387Z" transform="translate(-745.758 -559.5)" fill="#4fbac4"/>
      <path id="Path_617" data-name="Path 617" d="M802.012,562.162c.222.041.344.162.344.325a.741.741,0,0,1-.182.387l-.3.406-.04.264a13.134,13.134,0,0,0-.385,3.232v1c0,3.068,1.4,6.646,2.594,6.646.446,0,.73-.486,1.028-1.831a.4.4,0,0,1,.726-.145,10.2,10.2,0,0,0,.856,1.086.414.414,0,0,1,.095.371c-.548,2.234-1.363,3.323-2.5,3.323-1.053,0-2.31-1.057-3.262-2.723a14.137,14.137,0,0,1-1.783-6.848v-.955a18.286,18.286,0,0,1,.531-4.6.406.406,0,0,1,.475-.3Zm10.167,3.148a25.371,25.371,0,0,1,3.341,6.133.407.407,0,0,1-.343.546,8.587,8.587,0,0,0-1.688.293.41.41,0,0,1-.5-.281,21.582,21.582,0,0,0-2.734-5.787.4.4,0,0,1,.2-.607l1.261-.439A.41.41,0,0,1,812.18,565.31Z" transform="translate(-749.007 -559.601)" fill="#4fbac4"/>
      <path id="Path_618" data-name="Path 618" d="M830.692,570.388v-4.479a.4.4,0,0,0-.4-.4h-1.664a.4.4,0,0,1-.4-.4v-1.022a.4.4,0,0,1,.4-.4h1.664a.4.4,0,0,0,.4-.4V560.1a.4.4,0,0,1,.4-.4h1.259a.4.4,0,0,1,.4.4v3.175a.4.4,0,0,0,.4.4h1.625a.4.4,0,0,1,.4.4V565.1a.4.4,0,0,1-.4.4h-1.625a.4.4,0,0,0-.4.4v3.664a.4.4,0,0,0,.522.386l1.167-.359a.4.4,0,0,1,.522.408c-.016.241-.032.534-.05.881a.407.407,0,0,1-.261.361l-5.193,1.953a.454.454,0,0,0-.13.079c-.316.282-.415.354-.568.354-.1,0-.223-.142-.263-.305l-.4-1.449a.4.4,0,0,1,.272-.494l2.029-.613A.4.4,0,0,0,830.692,570.388Zm6.021,1.809a15.7,15.7,0,0,1-2.569,1.978.4.4,0,0,1-.524-.083,4.175,4.175,0,0,0-.792-.759.4.4,0,0,1,.036-.674,12.622,12.622,0,0,0,3.474-2.7.406.406,0,0,0-.3-.673h-1.21a.4.4,0,0,1-.4-.4V567.82a.4.4,0,0,1,.4-.4h11.228a.4.4,0,0,1,.4.4v1.063a.4.4,0,0,1-.4.4h-6.674a.4.4,0,0,0-.317.154c-.07.088-.128.161-.18.228a.4.4,0,0,0,.315.654h6.445a.405.405,0,0,1,.4.411c-.018,1.194-.036,2.235-.055,2.637-.041,2.784-.688,3.861-2.553,4.228l-.69.106a.4.4,0,0,1-.45-.294,6.629,6.629,0,0,0-.421-1.154.4.4,0,0,1,.368-.569h.442c1.117-.076,1.411-.667,1.454-3.185a.405.405,0,0,0-.4-.411h-.559a.4.4,0,0,0-.368.249,12.372,12.372,0,0,1-4.658,5.465.413.413,0,0,1-.5-.036,5.018,5.018,0,0,0-.814-.632.4.4,0,0,1-.007-.685,11.317,11.317,0,0,0,3.807-3.748.406.406,0,0,0-.349-.614h-.3a.408.408,0,0,0-.341.191,12.122,12.122,0,0,1-4.608,4.324.411.411,0,0,1-.519-.08,4.763,4.763,0,0,0-.693-.67.4.4,0,0,1,.069-.674,9.036,9.036,0,0,0,3.824-3.092h-.737A.42.42,0,0,0,836.713,572.2Zm.259-12.32h7.3a.4.4,0,0,1,.4.4V566.4a.4.4,0,0,1-.4.4h-7.3a.4.4,0,0,1-.4-.4v-6.123A.4.4,0,0,1,836.972,559.877Zm1.541,2.089v.149a.4.4,0,0,0,.4.4h3.428a.4.4,0,0,0,.4-.4v-.149a.4.4,0,0,0-.4-.4h-3.428A.4.4,0,0,0,838.513,561.967Zm0,2.5v.25a.4.4,0,0,0,.4.4h3.428a.4.4,0,0,0,.4-.4v-.25a.4.4,0,0,0-.4-.4h-3.428A.4.4,0,0,0,838.513,564.467Z" transform="translate(-752.787 -559.327)" fill="#4fbac4"/>
      <path id="Path_619" data-name="Path 619" d="M867.268,564.434v5.96a.4.4,0,0,1-.4.4h-1.643v-.488h-2.6a.406.406,0,0,0-.4.363,16.128,16.128,0,0,1-1.679,5.955.407.407,0,0,1-.631.113,5,5,0,0,0-1.113-.76.4.4,0,0,1-.166-.562,11.582,11.582,0,0,0,1.581-5.963v-5.022a.4.4,0,0,1,.4-.4h6.244A.4.4,0,0,1,867.268,564.434Zm-7.823-4.122h7.662a.4.4,0,0,1,.4.4v1.043a.4.4,0,0,1-.4.4h-7.662a.4.4,0,0,1-.4-.4v-1.043A.4.4,0,0,1,859.445,560.312Zm2.859,5.951V568.1a.4.4,0,0,0,.4.4h2.11a.4.4,0,0,0,.4-.4v-1.835a.4.4,0,0,0-.4-.4h-2.11A.4.4,0,0,0,862.3,566.263Zm7.788-4.911a23.137,23.137,0,0,0,4.757-1.411.41.41,0,0,1,.427.074l1.171,1.069a.4.4,0,0,1,.121.284c0,.183-.142.243-.689.284a24.266,24.266,0,0,1-5.217,1.3.4.4,0,0,0-.354.4v1.884a.4.4,0,0,0,.4.4h5.757a.4.4,0,0,1,.4.4v1.043a.4.4,0,0,1-.4.4h-1.239a.4.4,0,0,0-.4.4v9.517a.4.4,0,0,1-.4.4h-1.24a.4.4,0,0,1-.4-.4v-9.517a.4.4,0,0,0-.4-.4h-1.737a.4.4,0,0,0-.4.372,13.607,13.607,0,0,1-4.65,9.471.411.411,0,0,1-.558-.011,6.486,6.486,0,0,0-1.064-.856.4.4,0,0,1-.024-.655,10.615,10.615,0,0,0,4.3-9.093v-5.258a.4.4,0,0,1,.5-.392l1.178.285A.43.43,0,0,0,870.092,561.352Z" transform="translate(-756.777 -559.356)" fill="#4fbac4"/>
      <path id="Path_620" data-name="Path 620" d="M891.344,577.077a.41.41,0,0,1-.4-.309,29.843,29.843,0,0,1-.974-7.414v-.772a28.819,28.819,0,0,1,1.072-7.594.408.408,0,0,1,.479-.29l1.772.386c.2.041.324.162.324.305a.676.676,0,0,1-.163.324l-.283.407a23.011,23.011,0,0,0-.953,6.523v.793a24.154,24.154,0,0,0,1.113,7.119.4.4,0,0,1-.381.522Zm6.255-6.451a.4.4,0,0,1,.21.582,3.342,3.342,0,0,0-.541,1.724c0,.893.912,1.422,2.451,1.422h1.662a22.334,22.334,0,0,0,4.236-.468.4.4,0,0,1,.466.511,11.419,11.419,0,0,0-.265,1.258,3.31,3.31,0,0,1-.061.386,23.475,23.475,0,0,1-4.315.345h-1.884c-2.756,0-4.518-1.28-4.518-3.251a5.19,5.19,0,0,1,.878-2.772.406.406,0,0,1,.481-.168Zm2.039-7.185a22.473,22.473,0,0,0,5.08-.551.4.4,0,0,1,.49.449c-.063.411-.107.821-.138,1.2a.4.4,0,0,1-.32.364,29.418,29.418,0,0,1-4.929.57h-.892a22.021,22.021,0,0,1-2.587-.243.4.4,0,0,1-.334-.385,5.986,5.986,0,0,0-.115-1.116.4.4,0,0,1,.459-.476,18.782,18.782,0,0,0,2.72.189Z" transform="translate(-760.884 -559.457)" fill="#4fbac4"/>
      <path id="Path_621" data-name="Path 621" d="M920.033,569.294h1.259a.4.4,0,0,1,.4.4v4.375a.4.4,0,0,0,.4.4h3.812a.4.4,0,0,0,.4-.4v-5.879a.4.4,0,0,0-.4-.4H922.1v.67h-1.643a.4.4,0,0,1-.4-.4v-7.119a.4.4,0,0,1,.4-.4h1.24a.4.4,0,0,1,.4.4v4.6a.4.4,0,0,0,.4.4h3.407a.4.4,0,0,0,.4-.4V560a.4.4,0,0,1,.4-.4h1.24a.4.4,0,0,1,.4.4v5.533a.4.4,0,0,0,.4.4h3.428a.4.4,0,0,0,.4-.4v-4.6a.4.4,0,0,1,.4-.4h1.24a.4.4,0,0,1,.4.4v7.119a.4.4,0,0,1-.4.4H932.6v-.67h-3.831a.4.4,0,0,0-.4.4v5.879a.4.4,0,0,0,.4.4H932.6a.4.4,0,0,0,.4-.4V569.7a.4.4,0,0,1,.4-.4h1.26a.4.4,0,0,1,.4.4v7.525a.4.4,0,0,1-.4.4h-1.26a.4.4,0,0,1-.4-.4v-.515a.4.4,0,0,0-.4-.4H922.1a.4.4,0,0,0-.4.4v.515a.4.4,0,0,1-.4.4h-1.259a.4.4,0,0,1-.4-.4V569.7A.4.4,0,0,1,920.033,569.294Z" transform="translate(-764.763 -559.315)" fill="#4fbac4"/>
      <path id="Path_622" data-name="Path 622" d="M957.864,559.639c.2.061.344.163.344.305s-.1.264-.384.427a19.961,19.961,0,0,0,7.779,6.157.4.4,0,0,1,.119.657,6.637,6.637,0,0,0-.867.957.405.405,0,0,1-.525.118,19.744,19.744,0,0,1-2.3-1.414.4.4,0,0,0-.64.327v.09a.4.4,0,0,1-.4.4h-8.209a.4.4,0,0,1-.4-.4v-.654a21.479,21.479,0,0,1-3.085,2.221.406.406,0,0,1-.538-.1,7.065,7.065,0,0,0-.831-.953.4.4,0,0,1,.095-.641,18.532,18.532,0,0,0,7.883-7.648.4.4,0,0,1,.443-.2ZM952.58,574.93l1.536-2.827a.4.4,0,0,0-.354-.6h-5.018a.4.4,0,0,1-.4-.4v-1.042a.4.4,0,0,1,.4-.4h16.172a.4.4,0,0,1,.4.4V571.1a.4.4,0,0,1-.4.4h-7.853a.4.4,0,0,0-.349.2l-1.509,2.613a.4.4,0,0,0,.379.6l3.974-.289a.4.4,0,0,0,.263-.68c-.288-.306-.5-.514-.853-.845a.405.405,0,0,1,.025-.617l.852-.659a.409.409,0,0,1,.521.023,28.806,28.806,0,0,1,3.822,4.06.406.406,0,0,1-.047.556l-1.045.923a.4.4,0,0,1-.6-.082c-.268-.4-.41-.6-.759-1.054a.405.405,0,0,0-.368-.156l-10.106,1.2a.424.424,0,0,0-.241.12.629.629,0,0,1-.407.222c-.122,0-.263-.142-.365-.366l-.633-1.4a.4.4,0,0,1,.338-.568l2.3-.166A.4.4,0,0,0,952.58,574.93Zm7.2-9.822A16.09,16.09,0,0,1,957.1,562.2a.406.406,0,0,0-.652,0,22.59,22.59,0,0,1-2.477,2.925.4.4,0,0,0,.288.686h5.264A.4.4,0,0,0,959.784,565.109Z" transform="translate(-768.449 -559.272)" fill="#4fbac4"/>
      <path id="Path_623" data-name="Path 623" d="M979.031,576.429a5.459,5.459,0,0,0-.914-.921.4.4,0,0,1-.028-.6l8.247-7.883a.4.4,0,0,0-.323-.691,56.225,56.225,0,0,1-5.776.372.405.405,0,0,1-.409-.366l-.124-1.282a.4.4,0,0,1,.4-.442,68.548,68.548,0,0,0,8.577-.479.406.406,0,0,0,.107-.03l.556-.242,1.358,1.443a.486.486,0,0,1,.1.285.468.468,0,0,1-.324.426l-.466.2-3.829,3.719a1.7,1.7,0,0,1,.506-.082c.851,0,1.338.914,1.338,2.48v2.073c.02.65.263.772,1.317.792h1.843a13.5,13.5,0,0,0,2.415-.2.4.4,0,0,1,.437.561,8.255,8.255,0,0,0-.454,1.339.4.4,0,0,1-.392.316h-4.457c-1.864-.02-2.775-.691-2.8-2.073v-2.682c0-.793-.223-1.159-.688-1.159a1.236,1.236,0,0,0-.851.407l-4.776,4.752A.4.4,0,0,1,979.031,576.429Zm4.428-16.7a27.118,27.118,0,0,0,5.68.659.4.4,0,0,1,.387.492,5.483,5.483,0,0,0-.122,1.109.405.405,0,0,1-.414.388,33.832,33.832,0,0,1-5.795-.575.408.408,0,0,1-.327-.431l.1-1.285A.4.4,0,0,1,983.459,559.725Z" transform="translate(-772.395 -559.33)" fill="#4fbac4"/>
      <path id="Path_624" data-name="Path 624" d="M1006.138,570.036a73.36,73.36,0,0,0,7.569-6.394.407.407,0,0,0-.307-.7c-1.777.085-3.365.187-5.065.325a.4.4,0,0,1-.435-.359l-.166-1.559a.4.4,0,0,1,.456-.441,18.269,18.269,0,0,0,2.749.176h3.2a8.724,8.724,0,0,0,2.954-.493.406.406,0,0,1,.473.134l.99,1.335a.819.819,0,0,1,.142.385c0,.2-.122.306-.446.366a3.14,3.14,0,0,0-1.459.814l-2.862,2.514a.4.4,0,0,0,.321.7,8.11,8.11,0,0,1,1.183-.084c3.282,0,5.146,1.728,5.146,4.755,0,3.637-2.857,5.955-7.314,5.955-2.614,0-4.194-1.1-4.194-2.906,0-1.625,1.337-2.723,3.262-2.723,1.844,0,3.18.935,3.18,2.256a3,3,0,0,1-.04.5.406.406,0,0,0,.554.435,3.511,3.511,0,0,0,2.262-3.439,2.641,2.641,0,0,0-2.837-2.966,10.508,10.508,0,0,0-3.829.833,12.135,12.135,0,0,0-3.923,2.611.406.406,0,0,1-.6-.051l-1.051-1.424A.4.4,0,0,1,1006.138,570.036Zm7.435,4.587c0-.548-.568-.914-1.459-.914-.668,0-1.114.305-1.114.793,0,.569.466.935,1.4,1.057.1.013.389.025.589.033a.383.383,0,0,0,.329-.15A1.371,1.371,0,0,0,1013.573,574.623Z" transform="translate(-776.059 -559.442)" fill="#4fbac4"/>
    </g>
  </g>
</svg>
