<svg xmlns="http://www.w3.org/2000/svg" width="125.207" height="439" viewBox="0 0 125.207 439">
  <g id="Group_1112" data-name="Group 1112" transform="translate(-135 -3419)">
    <text id="HOTEL_FACTORY" data-name="HOTEL&amp;FACTORY" transform="translate(152 3419) rotate(90)" fill="#374349" font-size="60" font-family="Oswald-Light, Oswald" font-weight="300" letter-spacing="0.1em"><tspan x="0" y="0">HOTEL&amp;FACTORY</tspan></text>
    <g id="Group_22" data-name="Group 22" transform="translate(235.896 3422.06)">
      <g id="Group_21" data-name="Group 21" transform="translate(0 0)">
        <path id="Path_658" data-name="Path 658" d="M574.922,455.384h-2.939V445.24h16.128l.848-.476,1.906,1.881a.753.753,0,0,1,.185.476.706.706,0,0,1-.185.423l-.4.5c-.264,8.475-3.734,14.143-10.592,17.346a7.5,7.5,0,0,0-2.358-2.278c6.488-2.251,10.011-7.52,10.17-15.254H574.922Z" transform="translate(-568.831 -444.764)" fill="#374349"/>
        <path id="Path_659" data-name="Path 659" d="M580.48,469.938v19.546h-2.543V469.938Z" transform="translate(-567.079 -437.356)" fill="#374349"/>
        <path id="Path_660" data-name="Path 660" d="M576.651,501.371a30.767,30.767,0,0,1-4.212,6.039,7.92,7.92,0,0,0-2.728-1.642,25.494,25.494,0,0,0,7.2-12.923l2.569.555c.318.052.476.238.476.45a.844.844,0,0,1-.291.5l-.423.449a33.22,33.22,0,0,1-1.4,3.946H591.8v2.622h-5.3c-.371,5.774-3.364,10.54-8.079,12.9a9.416,9.416,0,0,0-2.462-2.04c4.74-1.958,7.256-5.481,7.759-10.858Z" transform="translate(-569.5 -430.615)" fill="#374349"/>
        <path id="Path_661" data-name="Path 661" d="M580.48,518.979v19.547h-2.543V518.979Z" transform="translate(-567.079 -422.925)" fill="#374349"/>
        <path id="Path_662" data-name="Path 662" d="M572.1,548.422a33.521,33.521,0,0,1,5.164,2.595l-1.324,2.516a32.279,32.279,0,0,0-4.979-2.569Zm.4,11.546a26.107,26.107,0,0,0,18.486-12.712,8.666,8.666,0,0,0,1.457,1.961l.423.423a28.69,28.69,0,0,1-16.976,12.844c-.822.795-.98.9-1.457.9-.238,0-.4-.132-.529-.4Zm2.49-17.347a27.2,27.2,0,0,1,5.085,3.126l-1.536,2.357a21.893,21.893,0,0,0-4.767-3.045Z" transform="translate(-569.133 -415.968)" fill="#374349"/>
        <path id="Path_663" data-name="Path 663" d="M577.139,579.456H586.7v-3.124h-9.242v-2.3H586.7v-3.047h-9.534v-2.3h12.182v13.957H586.7v-.848h-9.561Z" transform="translate(-567.314 -408.3)" fill="#374349"/>
        <path id="Path_664" data-name="Path 664" d="M571.512,606.111a36.991,36.991,0,0,0,18.8-12.579,12.486,12.486,0,0,0,1.456,2.462A38.36,38.36,0,0,1,574.4,608.282l-.45.637-.293.237h-.5l-.238-.264ZM573.631,589a52.059,52.059,0,0,1,5.589,3.787l-1.774,2.357a33.108,33.108,0,0,0-5.4-3.682Z" transform="translate(-568.97 -402.319)" fill="#374349"/>
        <path id="Path_665" data-name="Path 665" d="M569.733,621.4v-2.41h4.025v-4.237H576.3v4.237h3.654v2.41h-4.369v2.966h3.867v6.965c0,4.476-.795,6.436-2.834,6.913l-1.377.343a9.023,9.023,0,0,0-1.456-2.753h1.4c1.245-.027,1.7-1.244,1.721-4.635v-4.45h-1.4c-.212,4.847-1.483,8.713-3.84,11.707a6.2,6.2,0,0,0-2.119-1.668c2.489-3.073,3.549-6.6,3.549-11.76V621.4Zm11.627,2.516a9.628,9.628,0,0,0-2.3-1.06,20.777,20.777,0,0,0,3.813-8.21l2.649.742c.238.079.37.185.37.318,0,.185-.159.37-.529.688a24.911,24.911,0,0,1-1.033,2.621H593.3v2.411h-10.09a12.605,12.605,0,0,1-1.165,2.038h1.827v3.073l1.509-.371v-3.893h2.49v3.259l2.912-.769.716-.4,1.377,1.271a1.1,1.1,0,0,1,.317.5c0,.08-.079.212-.5.663-.027.663-.053,1.245-.053,1.457-.132,3.787-.635,4.687-2.807,5.3l-.584.159a9.039,9.039,0,0,0-1.27-2.49h.927c.848,0,1.138-.74,1.138-2.78v-1.086l-2.171.582v6.489h-2.49v-5.827l-1.509.449v6.33c0,.37.159.529.636.529h5.3c.821-.053,1.007-.211,1.245-1.086l.344-1.218a6.387,6.387,0,0,0,2.463,1.245l-.291.9c-.557,1.721-1.377,2.357-3.126,2.357h-6.62c-1.589-.053-2.49-1.059-2.463-2.807v-5.64l-1.218.346-.4-2.411,1.615-.4Z" transform="translate(-569.548 -394.772)" fill="#374349"/>
        <path id="Path_666" data-name="Path 666" d="M569.711,646.876h9.667v2.384h-9.667Zm.928,10.859h7.653v8.5h-2.7V665.23H573.34v1.006h-2.7Zm.37-14.592h6.86V645.5h-6.86Zm.132,7.415h6.622v2.2h-6.622Zm0,3.628h6.622v2.2h-6.622Zm2.2,5.959v2.675h2.251v-2.675Zm5.985-6.913h9.64l.9-.317,1.536,1.191c.265.186.4.371.4.558,0,.238-.159.423-.61.687a23.38,23.38,0,0,1-3.522,5.695,15.309,15.309,0,0,0,6.065,2.807,7.814,7.814,0,0,0-2.093,2.383,16.98,16.98,0,0,1-5.932-3.177,19.827,19.827,0,0,1-5.43,3.39,7.508,7.508,0,0,0-1.934-2.251,20.483,20.483,0,0,0,5.4-3.045,21.455,21.455,0,0,1-3.364-5.536h-1.06Zm9.244-10.275v5.88c.026.4.132.5.608.476h.769c.476,0,.714-.238.793-.848l.159-1.615a8.036,8.036,0,0,0,2.6,1.112l-.211,1.4c-.265,1.642-1.033,2.331-2.6,2.357h-2.3c-1.826-.053-2.542-.767-2.516-2.569v-3.813h-2.251v.848a10.459,10.459,0,0,1-2.145,6.2,9.869,9.869,0,0,0-2.569-1.377,7.07,7.07,0,0,0,1.987-5v-3.047Zm-5.351,12.659a13.383,13.383,0,0,0,2.437,3.655,15.363,15.363,0,0,0,2.41-3.655Z" transform="translate(-569.5 -386.442)" fill="#374349"/>
      </g>
    </g>
  </g>
</svg>
