<svg xmlns="http://www.w3.org/2000/svg" width="296.889" height="54.869" viewBox="0 0 296.889 54.869">
  <g id="Group_14" data-name="Group 14" transform="translate(-132.05 -494.222)">
    <g id="Group_13" data-name="Group 13">
      <g id="Group_12" data-name="Group 12">
        <path id="Path_636" data-name="Path 636" d="M145.33,496.794v7.834a.992.992,0,0,0,.993.993h3.9a.993.993,0,0,1,.993.993v2.618a.993.993,0,0,1-.993.993h-3.9a.992.992,0,0,0-.993.993v13.243a.992.992,0,0,0,1.226.965l4.911-1.187c-.051.511-.051,1.023-.1,1.228a19.979,19.979,0,0,1-.154,2.147v.552a.994.994,0,0,1-.694.947L138,533.063a1.018,1.018,0,0,0-.419.263c-.655.671-1.031.887-1.407.887-.307,0-.614-.359-.819-.921l-1.313-3.583a.993.993,0,0,1,.675-1.3l4.71-1.261a.992.992,0,0,0,.737-.959V511.218a.993.993,0,0,0-.993-.993h-4.152a.993.993,0,0,1-.993-.993v-2.618a.993.993,0,0,1,.993-.993h4.152a.993.993,0,0,0,.993-.993v-7.834a.992.992,0,0,1,.993-.993h3.18A.993.993,0,0,1,145.33,496.794Zm3.016,20.374-.4-2.931a.993.993,0,0,1,.7-1.084l4.307-1.285a1,1,0,0,0,.71-.952v-9.468a.993.993,0,0,1,.993-.993h3.18a.994.994,0,0,1,.993.993v7.36a.993.993,0,0,0,1.264.955l2.156-.613a.993.993,0,0,0,.722-.955V495.31a.994.994,0,0,1,.993-.993h3.18a.993.993,0,0,1,.993.993v10.7a.993.993,0,0,0,1.286.949l3.474-1.074a.994.994,0,0,0,.36-.2l.529-.462a.992.992,0,0,1,1.158-.108l3.627,2.141a1.144,1.144,0,0,1,.614.818c0,.341-.212.681-.726,1.081a.95.95,0,0,0-.348.755v5.069c.051,10.482-.759,12.814-4.947,13.745a1.13,1.13,0,0,1-.131.021l-1.509.164a1,1,0,0,1-1.042-.652,16.936,16.936,0,0,0-2.192-4.378h2.046c2.353-.153,2.558-.921,2.609-9.155v-2.365a.993.993,0,0,0-1.267-.954l-2.822.81a.994.994,0,0,0-.719.955v15.9a.992.992,0,0,1-.993.993h-3.18a.993.993,0,0,1-.993-.993V515.288a.993.993,0,0,0-1.275-.952l-2.157.639a.993.993,0,0,0-.71.952V533.8c0,.716.306,1.074.971,1.074h13.043c1.381-.1,1.994-.818,2.2-2.558l.176-1.432a.994.994,0,0,1,1.466-.746,17.237,17.237,0,0,0,3.179,1.338,1,1,0,0,1,.665,1.156l-.422,1.934c-.87,3.274-2.864,4.962-5.985,4.91H157.809c-2.659-.05-4.092-1.482-4.142-4.091V518.141a.994.994,0,0,0-1.268-.955l-2.795.8A.993.993,0,0,1,148.346,517.168Z" fill="#374349"/>
        <path id="Path_637" data-name="Path 637" d="M206.262,523.683V510.859a.994.994,0,0,0-.993-.993H202.14a.993.993,0,0,1-.993-.993v-2.566a.994.994,0,0,1,.993-.993h3.129a.993.993,0,0,0,.993-.993v-8.4a.992.992,0,0,1,.993-.993h3.18a.993.993,0,0,1,.993.993v8.4a.992.992,0,0,0,.993.993h2a.993.993,0,0,1,.993.993v2.566a.992.992,0,0,1-.993.993h-2a.993.993,0,0,0-.993.993v11.176a.993.993,0,0,0,1.2.971l2.126-.463a1,1,0,0,1,1.2,1.092c-.1.883-.167,1.61-.206,2.569a1,1,0,0,1-.693.906l-10.887,3.441a1.018,1.018,0,0,0-.443.289c-.6.655-.918.866-1.2.866-.358,0-.665-.357-.819-.92l-.987-4.115a.993.993,0,0,1,.767-1.205l3.978-.81A.993.993,0,0,0,206.262,523.683Zm22.973,1.884a1,1,0,0,1,1.274,1.016c-.036.573-.054,1.005-.054,1.492,0,.271,0,.63.014,1.064a1,1,0,0,1-.657.974l-13.906,4.97a1.025,1.025,0,0,0-.468.352c-.55.736-.873,1.028-1.2,1.028a1.166,1.166,0,0,1-.869-.716l-1.725-3.768a.993.993,0,0,1,.62-1.365Zm-11.853-21.02h11.781a.993.993,0,0,0,.992-1.035l-.161-3.773-.206-4.382a.993.993,0,0,1,.992-1.04h3.215a.994.994,0,0,1,.993.96l.172,5.127.078,3.174a.994.994,0,0,0,.993.969h9.6a.993.993,0,0,1,.993.993v2.668a.993.993,0,0,1-.993.993h-9.146a1,1,0,0,0-.991,1.066,82.4,82.4,0,0,0,1.127,9.568.993.993,0,0,0,1.88.251,65.28,65.28,0,0,0,2.323-6.265,1,1,0,0,1,1.3-.617l3.582,1.368c.512.154.767.409.767.614,0,.373-.3.747-1.092,1.317a1.045,1.045,0,0,0-.35.434,73.442,73.442,0,0,1-5.509,11.332,1.012,1.012,0,0,0-.087.883c1.066,2.785,2.114,4.4,2.793,4.4.512,0,.716-.768.767-2.66l.052-1.841A12.894,12.894,0,0,0,247,531.84a1,1,0,0,1,.521,1.043l-.29,1.739c-.512,3.529-2,5.319-4.3,5.319-2.663,0-4.089-1.282-6.578-6.108a.992.992,0,0,0-1.529-.3,34.813,34.813,0,0,1-10.017,6.31,1,1,0,0,1-1.2-.346,13.447,13.447,0,0,0-2.1-2.432,1,1,0,0,1,.284-1.667,34.3,34.3,0,0,0,11.447-7.013,1.015,1.015,0,0,0,.278-.984,102.379,102.379,0,0,1-2.928-17.3,1,1,0,0,0-.988-.9h-12.23a.993.993,0,0,1-.993-.993V505.54A.993.993,0,0,1,217.382,504.547Zm.409,7.468h10.7a.993.993,0,0,1,.993.993v11.107a.993.993,0,0,1-.993.993h-3.508v-.614h-2.941a.742.742,0,0,0-.742.742h0a.742.742,0,0,1-.741.742h-2.767a.994.994,0,0,1-.993-.993V513.008A.993.993,0,0,1,217.791,512.015ZM221.3,517.3v1.952a.994.994,0,0,0,.993.993h1.7a.994.994,0,0,0,.993-.993V517.3a.993.993,0,0,0-.993-.993h-1.7A.993.993,0,0,0,221.3,517.3Zm18.374-20.881a32.141,32.141,0,0,1,4.461,4.082.994.994,0,0,1-.083,1.432l-1.673,1.43a1,1,0,0,1-1.373-.081,31.536,31.536,0,0,0-4.093-3.858.994.994,0,0,1-.075-1.512l1.546-1.441A1,1,0,0,1,239.673,496.423Z" fill="#374349"/>
        <path id="Path_638" data-name="Path 638" d="M281.173,535.286a.68.68,0,0,1,.344-1.148,16.238,16.238,0,0,0,6.816-2.791,8.789,8.789,0,0,0,3.895-7.4,8.17,8.17,0,0,0-3.684-7.088,8.616,8.616,0,0,0-3.993-1.455.691.691,0,0,0-.775.531,67.865,67.865,0,0,1-2.46,8.96c-2.491,6.807-5.053,9.964-8.176,9.964A5.6,5.6,0,0,1,268.965,533a11.184,11.184,0,0,1-2.035-6.772,14.948,14.948,0,0,1,15.263-14.6,17.175,17.175,0,0,1,8.351,2.141c3.684,2.07,5.649,5.684,5.649,10.21a12.766,12.766,0,0,1-2.491,7.79,17.443,17.443,0,0,1-7.895,5.368c-.608.2-1.288.429-2.059.66a.693.693,0,0,1-.776-.293A14.355,14.355,0,0,0,281.173,535.286ZM276.3,516.5a11.639,11.639,0,0,0-5.473,9.72c0,2.877.842,4.632,2.28,4.632.842,0,1.755-1.018,2.807-3.158a48.184,48.184,0,0,0,4-11.435.686.686,0,0,0-.781-.843A7.275,7.275,0,0,0,276.3,516.5Z" fill="#374349"/>
        <path id="Path_639" data-name="Path 639" d="M316.62,518.183V500.067a.993.993,0,0,1,.993-.993h5.667a.992.992,0,0,0,.982-.849l.46-3.154a.993.993,0,0,1,1.047-.847l3.791.247c.563.051.921.358.921.818a1.451,1.451,0,0,1-.661,1.12,1.04,1.04,0,0,0-.34.53l-.225.9a.993.993,0,0,0,.963,1.234h5.254a.994.994,0,0,1,.993.993v18.116a.994.994,0,0,1-.993.993h-3.743a.993.993,0,0,0-.993.993v8.06l.563-.063a.994.994,0,0,0,.881-.912l.418-5.518a.993.993,0,0,1,1.15-.905l2.717.441c.46.051.818.307.818.614s-.182.568-.577.951a1.022,1.022,0,0,0-.3.549l-.76,4.228,1.585-.255c-.053-.16-.1-.285-.136-.394a.988.988,0,0,1,.631-1.276l1.11-.358a1,1,0,0,1,1.218.554,46.416,46.416,0,0,1,1.788,4.8,1,1,0,0,1-.657,1.258l-1.473.446a.992.992,0,0,1-1.237-.66c-.034-.111-.069-.227-.11-.359a1,1,0,0,0-1.127-.685l-3.177.578a1.008,1.008,0,0,0-.662.408c-.329.485-.635.7-.976.7-.358,0-.562-.2-.818-.716l-.87-1.841v4.092c0,.614.41.972,1.126.972h20.459c1.329-.1,1.841-.614,2.608-2.66l.309-.8a.992.992,0,0,1,1.481-.467,15.393,15.393,0,0,0,3.126,1.7,1,1,0,0,1,.526,1.367l-.532,1.064c-1.636,3.324-2.966,4.245-6.24,4.348H331.094c-3.58.05-4.91-1.125-5.063-4.348V519.917a.742.742,0,0,0-.742-.741h-.132a.743.743,0,0,0-.736.718c-.311,7.9-1.908,13.785-5.181,18.589a1,1,0,0,1-1.5.141,11.533,11.533,0,0,0-2.481-1.764,1,1,0,0,1-.363-1.434,28.753,28.753,0,0,0,4.71-15.221,1,1,0,0,0-1-1.029h-1A.993.993,0,0,1,316.62,518.183Zm4.859-13.666v1.441a.992.992,0,0,0,.993.993h.673a.992.992,0,0,0,.993-.993v-1.441a.993.993,0,0,0-.993-.993h-.673A.993.993,0,0,0,321.479,504.517Zm0,7.672v1.594a.992.992,0,0,0,.993.993h.673a.992.992,0,0,0,.993-.993v-1.594a.993.993,0,0,0-.993-.993h-.673A.993.993,0,0,0,321.479,512.189Zm7.467-7.672v1.441a.993.993,0,0,0,.993.993h.674a.993.993,0,0,0,.993-.993v-1.441a.994.994,0,0,0-.993-.993h-.674A.994.994,0,0,0,328.946,504.517Zm0,7.672v1.594a.993.993,0,0,0,.993.993h.674a.993.993,0,0,0,.993-.993v-1.594a.994.994,0,0,0-.993-.993h-.674A.994.994,0,0,0,328.946,512.189Zm16.1,11.744c-.647.749-1.241,1.4-1.857,2.024a1,1,0,0,1-1.431-.021,11.906,11.906,0,0,0-2.275-1.922.984.984,0,0,1-.1-1.585,27.328,27.328,0,0,0,6.108-7.055,1,1,0,0,0-.847-1.518h-5.914a.992.992,0,0,1-.993-.993V510.6a.993.993,0,0,1,.993-.993H345.8a.992.992,0,0,0,.993-.993v-2.31a.993.993,0,0,0-.993-.993h-4.97a.993.993,0,0,1-.993-.993v-2.208a.994.994,0,0,1,.993-.993h4.97a.992.992,0,0,0,.993-.993v-4.663a.993.993,0,0,1,.993-.993h2.874a.993.993,0,0,1,.993.993v4.663a.992.992,0,0,0,.993.993h4.97a.994.994,0,0,1,.993.993v2.208a.993.993,0,0,1-.993.993h-4.97a.993.993,0,0,0-.993.993v2.31a.992.992,0,0,0,.993.993h7.067a.994.994,0,0,1,.993.993v2.259a.993.993,0,0,1-.993.993h-6.034a1,1,0,0,0-.826,1.551,37.047,37.047,0,0,0,7.226,8.193,1,1,0,0,1,.129,1.405,14.651,14.651,0,0,0-1.717,2.425,1,1,0,0,1-1.587.221,46.109,46.109,0,0,1-3.475-3.916.991.991,0,0,0-1.776.606v8.266a.994.994,0,0,1-.993.993h-2.874a.994.994,0,0,1-.993-.993V524.58A.993.993,0,0,0,345.051,523.933Z" fill="#374349"/>
        <path id="Path_640" data-name="Path 640" d="M385.143,504.7H400.7a.993.993,0,0,0,.993-.993v-8.141a.993.993,0,0,1,.993-.993h3.538a.994.994,0,0,1,.993.993v8.141a.992.992,0,0,0,.993.993h15.711a.994.994,0,0,1,.993.993v15.886c.1,11.56-2.4,16.265-9.309,17.339l-1.8.312a.991.991,0,0,1-1.111-.668,15.724,15.724,0,0,0-1.446-3.314,1,1,0,0,1,.873-1.5h1.386c4.245-.051,5.831-3.324,5.882-12.121V510.3a.992.992,0,0,0-.993-.993H407.931a1,1,0,0,0-.98.865c-2.02,14.765-7.961,23.394-19.961,29.119a1,1,0,0,1-1.219-.3,21.9,21.9,0,0,0-2.651-2.833.992.992,0,0,1,.278-1.639c10.226-4.22,16.068-12,17.975-24.068a1,1,0,0,0-.987-1.147H385.143a.994.994,0,0,1-.993-.993v-2.618A.994.994,0,0,1,385.143,504.7Z" fill="#374349"/>
      </g>
    </g>
    <rect id="Rectangle_20" data-name="Rectangle 20" width="115.484" height="2" transform="translate(132.05 547.091)" fill="#374349"/>
    <rect id="Rectangle_21" data-name="Rectangle 21" width="115.484" height="2" transform="translate(313.455 547.091)" fill="#374349"/>
  </g>
</svg>
