<svg xmlns="http://www.w3.org/2000/svg" width="393.802" height="101.689" viewBox="0 0 393.802 101.689">
  <g id="Group_20" data-name="Group 20" transform="translate(-81.491 -612.963)">
    <g id="Group_16" data-name="Group 16" transform="translate(81.491 671.204)">
      <g id="Group_15" data-name="Group 15">
        <path id="Path_641" data-name="Path 641" d="M85.895,699.147H82.363a.872.872,0,0,1-.872-.872v-16.46a.872.872,0,0,1,.872-.872h27.845a.873.873,0,0,0,.427-.112l.75-.422a.872.872,0,0,1,1.039.138l2.955,2.914a1.366,1.366,0,0,1,.333.856,1.279,1.279,0,0,1-.333.76l-.539.683a.86.86,0,0,0-.183.5c-.533,14.769-6.536,24.751-18.317,30.519a.893.893,0,0,1-1.109-.3,12.921,12.921,0,0,0-2.493-2.533.867.867,0,0,1,.19-1.492c10.439-4.217,16.206-13.123,16.72-25.906a.878.878,0,0,0-.877-.907H87.638a.872.872,0,0,0-.872.872v11.754A.871.871,0,0,1,85.895,699.147Z" transform="translate(-81.491 -675.968)" fill="#374349"/>
        <path id="Path_642" data-name="Path 642" d="M155.888,701.053H126.411a.872.872,0,0,1-.872-.872v-2.819a.872.872,0,0,1,.872-.872h29.478a.872.872,0,0,1,.872.872v2.819A.872.872,0,0,1,155.888,701.053Z" transform="translate(-84.607 -677.113)" fill="#374349"/>
        <path id="Path_643" data-name="Path 643" d="M179.466,693.436a55.812,55.812,0,0,1-6.758,9.773.874.874,0,0,1-1.192.1,14.621,14.621,0,0,0-3.081-1.971.874.874,0,0,1-.237-1.406A45.557,45.557,0,0,0,180,678.513a.867.867,0,0,1,1.025-.652l3.777.818c.571.1.856.428.856.808a1.506,1.506,0,0,1-.523.9l-.62.659a.876.876,0,0,0-.2.349c-.687,2.294-1.345,4.176-1.954,5.686a.868.868,0,0,0,.808,1.2h22.862a.872.872,0,0,1,.872.872v2.962a.872.872,0,0,1-.872.872H198.2a.87.87,0,0,0-.862.8c-.863,9.76-5.942,17.828-13.846,22.041a.885.885,0,0,1-1.046-.183,19.6,19.6,0,0,0-2.642-2.351.861.861,0,0,1,.138-1.471c7.294-3.492,11.32-9.318,12.362-17.867a.874.874,0,0,0-.87-.97H180.224A.873.873,0,0,0,179.466,693.436Z" transform="translate(-87.607 -675.794)" fill="#374349"/>
        <path id="Path_644" data-name="Path 644" d="M248.422,701.053H218.944a.872.872,0,0,1-.872-.872v-2.819a.872.872,0,0,1,.872-.872h29.479a.872.872,0,0,1,.872.872v2.819A.872.872,0,0,1,248.422,701.053Z" transform="translate(-91.154 -677.113)" fill="#374349"/>
        <path id="Path_645" data-name="Path 645" d="M263.719,690.269a59.118,59.118,0,0,1,7.773,3.9.874.874,0,0,1,.321,1.155l-1.564,2.971a.875.875,0,0,1-1.224.337,57.556,57.556,0,0,0-7.316-3.794.877.877,0,0,1-.453-1.167l1.325-2.958A.878.878,0,0,1,263.719,690.269Zm1.049,20.209c12.815-2.276,23.815-9.815,31.3-21.43a.871.871,0,0,1,1.465-.011,17.692,17.692,0,0,0,1.9,2.329l.76.76c-7.04,11.435-18.074,19.817-30.252,23a.869.869,0,0,0-.379.215c-1.332,1.281-1.626,1.456-2.449,1.456a1.038,1.038,0,0,1-.95-.713l-2.039-4.384A.868.868,0,0,1,264.768,710.478Zm4.127-30.562a48.584,48.584,0,0,1,7.7,4.73.874.874,0,0,1,.2,1.174l-1.785,2.739a.867.867,0,0,1-1.276.2,39.316,39.316,0,0,0-7.021-4.465.869.869,0,0,1-.4-1.165l1.407-2.814A.88.88,0,0,1,268.895,679.916Z" transform="translate(-94.203 -675.934)" fill="#374349"/>
        <path id="Path_646" data-name="Path 646" d="M316.156,711.539H331.57a.872.872,0,0,0,.872-.872V706.8a.872.872,0,0,0-.872-.872H316.725a.872.872,0,0,1-.872-.872v-2.392a.872.872,0,0,1,.872-.872H331.57a.872.872,0,0,0,.872-.872V697.2a.871.871,0,0,0-.872-.872H316.2a.872.872,0,0,1-.872-.872v-2.393a.872.872,0,0,1,.872-.872h20.12a.872.872,0,0,1,.872.872v23.257a.872.872,0,0,1-.872.872h-3.137a.745.745,0,0,1-.744-.744v-.033a.745.745,0,0,0-.744-.744H316.156a.872.872,0,0,1-.872-.872v-2.391A.872.872,0,0,1,316.156,711.539Z" transform="translate(-98.031 -676.809)" fill="#374349"/>
        <path id="Path_647" data-name="Path 647" d="M355.989,710.594c13.244-4.261,23.621-11.166,31.934-21.236a.868.868,0,0,1,1.441.139,23.01,23.01,0,0,0,1.6,2.739.876.876,0,0,1-.038,1.059c-7.911,9.726-17.867,16.745-30.487,21.412a.866.866,0,0,0-.4.309l-.655.925-.522.427h-.9l-.427-.476-2.06-4.081A.868.868,0,0,1,355.989,710.594Zm3.551-29.968a93.148,93.148,0,0,1,8.611,5.836.881.881,0,0,1,.171,1.226L366.2,690.5a.872.872,0,0,1-1.247.146,58.743,58.743,0,0,0-8.182-5.577.871.871,0,0,1-.309-1.23l1.893-2.933A.873.873,0,0,1,359.539,680.627Z" transform="translate(-100.868 -675.982)" fill="#374349"/>
        <path id="Path_648" data-name="Path 648" d="M405.975,701.384c-.259.368-.53.735-.816,1.108a.873.873,0,0,1-1.5-.212,33.825,33.825,0,0,0-1.684-3.4.873.873,0,0,1,.072-.935,46.938,46.938,0,0,0,8.907-20.911.872.872,0,0,1,1.078-.691l3.89,1.04c.38.095.713.38.713.571,0,.26-.119.441-.643,1.01a.908.908,0,0,0-.216.413,72.18,72.18,0,0,1-3.265,11.119.848.848,0,0,0-.058.308v12.249a.875.875,0,0,0,1.448.658,35.843,35.843,0,0,0,10.282-13.482.871.871,0,0,0-.809-1.2h-7.815a.872.872,0,0,1-.872-.872v-2.534a.872.872,0,0,1,.872-.872h9a.872.872,0,0,0,.872-.872v-6.669a.872.872,0,0,1,.872-.872h3.057a.872.872,0,0,1,.872.872v6.669a.872.872,0,0,0,.872.872h11.8a.872.872,0,0,1,.872.872v2.534a.872.872,0,0,1-.872.872h-10.83a.876.876,0,0,0-.779,1.27c2.53,5.126,6.582,9.517,12.759,13.88a.874.874,0,0,1,.19,1.25,16.994,16.994,0,0,0-1.874,2.9.877.877,0,0,1-1.3.314,44.761,44.761,0,0,1-9.277-9.007.872.872,0,0,0-1.559.537v5.52a.872.872,0,0,0,.872.872h4.911a.872.872,0,0,1,.872.872v2.581a.871.871,0,0,1-.872.872H431.1a.872.872,0,0,0-.872.872v5.72a.872.872,0,0,1-.872.872H426.3a.872.872,0,0,1-.872-.872v-5.72a.872.872,0,0,0-.872-.872h-4.435a.871.871,0,0,1-.872-.872v-2.581a.872.872,0,0,1,.872-.872h4.435a.872.872,0,0,0,.872-.872V700.7a.869.869,0,0,0-1.593-.481,37.514,37.514,0,0,1-8.268,8.951.87.87,0,0,1-1.329-.31c-.041-.091-.083-.18-.126-.268a.873.873,0,0,0-1.66.378v8.559a.871.871,0,0,1-.872.872h-3.152a.871.871,0,0,1-.872-.872V701.885A.87.87,0,0,0,405.975,701.384Z" transform="translate(-104.157 -675.686)" fill="#374349"/>
        <path id="Path_649" data-name="Path 649" d="M459.156,713.877c.166-2.227.213-3.167.219-6.055a.877.877,0,0,1,.872-.876h1.432a.877.877,0,0,1,.872.887c-.034,3.109-.048,4.236-.171,6.292a.876.876,0,0,1-.947.822l-1.485-.131A.876.876,0,0,1,459.156,713.877Zm8.656,4.693a21.256,21.256,0,0,0-1.318-2.552.872.872,0,0,1,.744-1.325h1.215c2.661,0,4.325-2,4.848-5.894l-.951.665a29.37,29.37,0,0,0-1.961-4.051.875.875,0,0,1,.257-1.162l.388-.265a.873.873,0,0,1,1.229.255c.423.67.627,1.005,1.132,1.945v-2.313a.872.872,0,0,0-.872-.872h-7.54v.95h-3.977a.872.872,0,0,1-.872-.872V677.826a.872.872,0,0,1,.872-.872h17.174a.872.872,0,0,1,.872.872v2.534a.872.872,0,0,1-.872.872H473.6a.872.872,0,0,0-.872.872v1.441a.872.872,0,0,0,.872.872h2.947a.745.745,0,0,1,.744.744v.226a.748.748,0,0,0,1.17.617,25.211,25.211,0,0,0,8.193-9.869.868.868,0,0,1,.941-.482l3.383.637a.619.619,0,0,1,.6.9.931.931,0,0,0,.05.948,23.2,23.2,0,0,0,9.857,8.125.873.873,0,0,1,.365,1.294,26.849,26.849,0,0,0-1.539,2.468.879.879,0,0,1-1.153.357,11.2,11.2,0,0,1-1-.554.745.745,0,0,0-1.14.63v.015a.744.744,0,0,1-.744.744H492.8a.872.872,0,0,0-.872.872v.348a.872.872,0,0,0,.872.872h6.669a.872.872,0,0,1,.872.872V704.41a.872.872,0,0,1-.872.872h-6.067a.876.876,0,0,0-.765,1.3,18.889,18.889,0,0,0,8.591,7.52.866.866,0,0,1,.224,1.4,12.321,12.321,0,0,0-1.894,2.51.888.888,0,0,1-1.184.288,21.2,21.2,0,0,1-8.073-7.68.87.87,0,0,0-1.491.006,21.3,21.3,0,0,1-7.756,7.738.882.882,0,0,1-1.15-.209,9.214,9.214,0,0,0-2.1-2.017.865.865,0,0,1,.121-1.474,16.69,16.69,0,0,0,8.045-8.172.877.877,0,0,0-.808-1.215h-5.239a.872.872,0,0,1-.872-.872V694.176a.872.872,0,0,1,.872-.872h6.669a.872.872,0,0,0,.872-.872v-.348a.872.872,0,0,0-.872-.872h-3.865a.872.872,0,0,1-.872-.872v-.981a14.985,14.985,0,0,1-1.893,1.55.885.885,0,0,1-1.213-.212,11.915,11.915,0,0,0-1.965-2.159.884.884,0,0,0-.585-.225h-2.6a.872.872,0,0,0-.872.872v1.441a.872.872,0,0,0,.872.872h2.819a.872.872,0,0,1,.872.872v2.2a.872.872,0,0,1-.872.872H473.6a.872.872,0,0,0-.872.872v1.727a.872.872,0,0,0,.872.872h3.39a.872.872,0,0,1,.872.872v2.883c0,11.311-1.95,15.256-7.89,16.255l-1.259.157A.877.877,0,0,1,467.812,718.569Zm-3.641-6.174a31.341,31.341,0,0,0-.749-4.554.875.875,0,0,1,.595-1.04l.886-.268a.878.878,0,0,1,1.092.6,39.406,39.406,0,0,1,1.087,4.716.876.876,0,0,1-.639,1l-1.187.307A.875.875,0,0,1,464.171,712.4Zm.814-30.292v1.441a.872.872,0,0,0,.872.872h1.488a.872.872,0,0,0,.872-.872V682.1a.872.872,0,0,0-.872-.872h-1.488A.872.872,0,0,0,464.985,682.1Zm0,7.082v1.441a.872.872,0,0,0,.872.872h1.488a.872.872,0,0,0,.872-.872v-1.441a.872.872,0,0,0-.872-.872h-1.488A.872.872,0,0,0,464.985,689.186Zm0,7.129v1.727a.872.872,0,0,0,.872.872h1.488a.872.872,0,0,0,.872-.872v-1.727a.872.872,0,0,0-.872-.872h-1.488A.872.872,0,0,0,464.985,696.315Zm3.318,14.532a30.218,30.218,0,0,0-1.363-3.8.875.875,0,0,1,.414-1.134l.8-.392a.878.878,0,0,1,1.167.4,25.885,25.885,0,0,1,1.648,3.91.876.876,0,0,1-.441,1.064l-1,.493A.877.877,0,0,1,468.3,710.846Zm15.265-12.679v2.3a.872.872,0,0,0,.872.872h1.938a.875.875,0,0,0,.87-.808c.062-.8.085-1.32.129-2.32a.873.873,0,0,0-.871-.912H484.44A.872.872,0,0,0,483.568,698.168Zm9.169-12.421a22.949,22.949,0,0,1-3.145-3.506.876.876,0,0,0-1.429.045,27,27,0,0,1-2.684,3.533.871.871,0,0,0,.652,1.45h6.028A.87.87,0,0,0,492.737,685.746Zm-.827,12.4c-.032.945-.065,1.447-.114,2.267a.876.876,0,0,0,.871.927h2.245a.872.872,0,0,0,.872-.872v-2.3a.872.872,0,0,0-.872-.872h-2.131A.872.872,0,0,0,491.91,698.142Z" transform="translate(-108.21 -675.638)" fill="#374349"/>
      </g>
    </g>
    <g id="Group_19" data-name="Group 19" transform="translate(191.641 612.963)">
      <g id="Group_18" data-name="Group 18" transform="translate(10.802 10.416)">
        <g id="Group_17" data-name="Group 17">
          <path id="Path_650" data-name="Path 650" d="M224.214,626.99a.66.66,0,0,1,.258.465.851.851,0,0,1-.258.465l-.414.414a52.384,52.384,0,0,1-1.008,5.946c1.345.361,2.973.852,4.291,1.317a33.269,33.269,0,0,0,.8-6.332l2.714.257c.232.028.362.156.362.338a.758.758,0,0,1-.155.387l-.284.414a31.015,31.015,0,0,1-.853,5.918,49.825,49.825,0,0,1,4.833,2.43l-1.447,2.663a28.031,28.031,0,0,0-4.239-2.431,30.4,30.4,0,0,1-4.42,7.445,9.154,9.154,0,0,0-2.947-1.06,21.54,21.54,0,0,0,4.782-7.47,25.833,25.833,0,0,0-4.265-1.421,12,12,0,0,1-1.99,3.723,5.924,5.924,0,0,1-4.653,2.3,3.509,3.509,0,0,1-3.671-3.8c0-3,2.766-5.274,6.411-5.274a18.3,18.3,0,0,1,1.912.131,21.385,21.385,0,0,0,.931-5.326,28.607,28.607,0,0,1-5.816.929,7.6,7.6,0,0,0-.543-2.61,29.658,29.658,0,0,0,7.186-.827l.7-.361Zm-6.411,9.149c-1.886,0-3.566,1.293-3.566,2.766a1.2,1.2,0,0,0,1.215,1.371c1.525,0,2.611-1.06,3.619-3.566a3.061,3.061,0,0,0,.181-.44A8.333,8.333,0,0,0,217.8,636.138Z" transform="translate(-211.651 -624.274)" fill="#374349"/>
          <path id="Path_651" data-name="Path 651" d="M264.809,637.576a4.632,4.632,0,0,1,3.18-1.4c1.293,0,2.068.6,2.765,2.146a16.5,16.5,0,0,1,.879,2.715c.569,1.964,1.111,2.687,2.016,2.687,1.938,0,3.179-3,3.489-8.479a7.155,7.155,0,0,0,2.74,1.6c-.44,3.723-.905,5.3-2.121,7.316a4.78,4.78,0,0,1-4.187,2.378,3.964,3.964,0,0,1-3.9-2.739,13.635,13.635,0,0,1-.879-2.765c-.414-1.552-.775-2.12-1.422-2.12-1.886,0-4.084,2.635-6.2,7.5a8.521,8.521,0,0,0-2.739-1.267,133.252,133.252,0,0,0,8.09-20.034l2.817,1.138a.352.352,0,0,1,.026.671l-.414.26Z" transform="translate(-214.96 -624.239)" fill="#374349"/>
          <path id="Path_652" data-name="Path 652" d="M314.408,625.93a21.778,21.778,0,0,1-.414,2.4c1.034-.128,2.249-.335,3.438-.593l-.285,2.584c-1.163.207-2.507.387-3.644.49a58.363,58.363,0,0,1-5.222,13.779,13.447,13.447,0,0,0-2.636-1.629,45.654,45.654,0,0,0,4.989-11.89c-1.6.181-2.791.257-3.981.31l-.388-2.612a47.47,47.47,0,0,0,4.937-.207c.284-1.756.517-3.23.646-4.394l2.74.363a.366.366,0,0,1,.361.361.754.754,0,0,1-.155.44Zm3.8,11.916a6.885,6.885,0,0,1-.414-2.171c0-1.731,1.448-3.127,3.645-3.541a26.656,26.656,0,0,0-3.722-1.163,6.183,6.183,0,0,0,.956-1.99,38.6,38.6,0,0,1,7.781,2.948,8.682,8.682,0,0,0-.983,2.249,5.793,5.793,0,0,0-2.042-.44c-1.757,0-2.973.853-2.973,2.042a7.8,7.8,0,0,0,.647,2.662,14.878,14.878,0,0,1,.62,2.3,20.006,20.006,0,0,1,5.609,3.879,5.3,5.3,0,0,0-2.068,1.834,20.722,20.722,0,0,0-3.541-2.92,2.771,2.771,0,0,1-1.111,1.938,6.437,6.437,0,0,1-3.852.956c-2.972,0-4.782-1.293-4.782-3.412,0-2.042,1.81-3.386,4.55-3.386a8.078,8.078,0,0,1,2.4.336A13.622,13.622,0,0,0,318.208,637.846Zm-1.551,3.9c-1.293,0-2.068.465-2.068,1.242,0,.853.724,1.292,2.12,1.292,1.732,0,2.378-.439,2.533-1.68a.448.448,0,0,1,.026-.181A5.605,5.605,0,0,0,316.657,641.75Z" transform="translate(-218.301 -624.172)" fill="#374349"/>
          <path id="Path_653" data-name="Path 653" d="M361.1,643.842a13.169,13.169,0,0,0,6-2.251,6.473,6.473,0,0,0,2.87-5.454,6.02,6.02,0,0,0-2.714-5.221,6.829,6.829,0,0,0-3.411-1.136,52.04,52.04,0,0,1-1.913,7.057c-1.835,5.015-3.722,7.341-6.022,7.341a4.123,4.123,0,0,1-3.076-1.37,8.237,8.237,0,0,1-1.5-4.989,11.012,11.012,0,0,1,11.244-10.754,12.664,12.664,0,0,1,6.152,1.578,8.182,8.182,0,0,1,4.162,7.522,9.394,9.394,0,0,1-1.835,5.737,12.831,12.831,0,0,1-5.816,3.955c-.543.181-1.163.388-1.887.6A10.164,10.164,0,0,0,361.1,643.842Zm-2.87-13.183a8.573,8.573,0,0,0-4.032,7.16c0,2.12.621,3.412,1.68,3.412.621,0,1.293-.75,2.069-2.327a37.623,37.623,0,0,0,3.127-9.149A5.867,5.867,0,0,0,358.227,630.658Z" transform="translate(-221.533 -624.377)" fill="#374349"/>
        </g>
      </g>
      <path id="Path_654" data-name="Path 654" d="M222.063,657.036A22.036,22.036,0,1,1,244.1,635,22.062,22.062,0,0,1,222.063,657.036Zm0-43.143A21.107,21.107,0,1,0,243.17,635,21.131,21.131,0,0,0,222.063,613.892Z" transform="translate(-200.027 -612.963)" fill="#374349"/>
      <path id="Path_655" data-name="Path 655" d="M268.491,657.036A22.036,22.036,0,1,1,290.528,635,22.061,22.061,0,0,1,268.491,657.036Zm0-43.143A21.107,21.107,0,1,0,289.6,635,21.131,21.131,0,0,0,268.491,613.892Z" transform="translate(-203.312 -612.963)" fill="#374349"/>
      <path id="Path_656" data-name="Path 656" d="M314.919,657.036A22.036,22.036,0,1,1,336.956,635,22.061,22.061,0,0,1,314.919,657.036Zm0-43.143A21.107,21.107,0,1,0,336.026,635,21.13,21.13,0,0,0,314.919,613.892Z" transform="translate(-206.596 -612.963)" fill="#374349"/>
      <path id="Path_657" data-name="Path 657" d="M361.346,657.036A22.036,22.036,0,1,1,383.383,635,22.061,22.061,0,0,1,361.346,657.036Zm0-43.143A21.107,21.107,0,1,0,382.453,635,21.13,21.13,0,0,0,361.346,613.892Z" transform="translate(-209.881 -612.963)" fill="#374349"/>
    </g>
  </g>
</svg>
