<svg xmlns="http://www.w3.org/2000/svg" width="539" height="20.19" viewBox="0 0 539 20.19">
  <g id="Group_1076" data-name="Group 1076" transform="translate(-507 -730.114)">
    <g id="Group_1074" data-name="Group 1074" transform="translate(782.852 730.114)">
      <path id="Path_625" data-name="Path 625" d="M1037.222,569.095h-1.569a.438.438,0,0,1-.439-.439v-7.588a.439.439,0,0,1,.439-.44h12.868a.439.439,0,0,0,.216-.056l.317-.179a.438.438,0,0,1,.524.07l1.351,1.337a.634.634,0,0,1,.155.4.6.6,0,0,1-.155.354l-.33.42c-.217,6.929-2.991,11.61-8.471,14.313a.45.45,0,0,1-.558-.148,6,6,0,0,0-1.1-1.123.435.435,0,0,1,.094-.745c4.8-1.965,7.458-6.087,7.7-11.993a.444.444,0,0,0-.442-.459H1038.1a.439.439,0,0,0-.439.44v5.4A.439.439,0,0,1,1037.222,569.095Z" transform="translate(-1035.215 -558.034)" fill="#4fbac4"/>
      <path id="Path_626" data-name="Path 626" d="M1078.88,569.852h-17.216a.439.439,0,0,1-.439-.439v-1.244a.438.438,0,0,1,.439-.439h17.216a.438.438,0,0,1,.439.439v1.244A.438.438,0,0,1,1078.88,569.852Z" transform="translate(-1036.634 -558.438)" fill="#4fbac4"/>
      <path id="Path_627" data-name="Path 627" d="M1094.648,566.476a25.943,25.943,0,0,1-3.1,4.5.438.438,0,0,1-.6.053,6.852,6.852,0,0,0-1.364-.88.436.436,0,0,1-.125-.7,21.206,21.206,0,0,0,5.438-9.9.436.436,0,0,1,.515-.328l1.72.374c.264.044.4.2.4.376a.7.7,0,0,1-.243.42l-.353.375c-.321,1.088-.631,1.98-.916,2.7a.435.435,0,0,0,.408.6h10.517a.439.439,0,0,1,.439.44v1.31a.439.439,0,0,1-.439.44h-3.568a.436.436,0,0,0-.432.4,12.554,12.554,0,0,1-6.393,10.209.447.447,0,0,1-.529-.093,9.235,9.235,0,0,0-1.164-1.043.436.436,0,0,1,.074-.738,9.81,9.81,0,0,0,5.676-8.243.442.442,0,0,0-.439-.493h-5.136A.442.442,0,0,0,1094.648,566.476Z" transform="translate(-1038.167 -557.973)" fill="#4fbac4"/>
      <path id="Path_628" data-name="Path 628" d="M1134.572,569.852h-17.216a.439.439,0,0,1-.439-.439v-1.244a.438.438,0,0,1,.439-.439h17.216a.438.438,0,0,1,.439.439v1.244A.438.438,0,0,1,1134.572,569.852Z" transform="translate(-1039.671 -558.438)" fill="#4fbac4"/>
      <path id="Path_629" data-name="Path 629" d="M1146.821,564.984a27.221,27.221,0,0,1,3.545,1.785.44.44,0,0,1,.162.581l-.693,1.322a.442.442,0,0,1-.618.17,26.547,26.547,0,0,0-3.323-1.73.44.44,0,0,1-.233-.585l.588-1.317A.442.442,0,0,1,1146.821,564.984Zm.5,9.378a21.669,21.669,0,0,0,14.444-9.917.436.436,0,0,1,.73-.013,8.423,8.423,0,0,0,.858,1.049l.353.354a23.894,23.894,0,0,1-14.019,10.693.457.457,0,0,0-.191.109c-.611.59-.749.671-1.129.671-.2,0-.33-.111-.441-.332l-.927-2A.435.435,0,0,1,1147.316,574.362Zm1.906-14.19a22.532,22.532,0,0,1,3.511,2.164.443.443,0,0,1,.1.592l-.791,1.216a.436.436,0,0,1-.642.1,18.143,18.143,0,0,0-3.2-2.037.438.438,0,0,1-.2-.585l.623-1.249A.444.444,0,0,1,1149.222,560.171Z" transform="translate(-1041.236 -558.023)" fill="#4fbac4"/>
      <path id="Path_630" data-name="Path 630" d="M1173.3,574.763h7.079a.438.438,0,0,0,.439-.439v-1.731a.438.438,0,0,0-.439-.439h-6.814a.439.439,0,0,1-.439-.44V570.67a.439.439,0,0,1,.439-.439h6.814a.438.438,0,0,0,.439-.439v-1.665a.438.438,0,0,0-.439-.439h-7.056a.439.439,0,0,1-.44-.439V566.2a.439.439,0,0,1,.44-.439h9.26a.439.439,0,0,1,.44.439v10.75a.439.439,0,0,1-.44.439h-1.765v-.707H1173.3a.439.439,0,0,1-.439-.439V575.2A.439.439,0,0,1,1173.3,574.763Z" transform="translate(-1042.721 -558.331)" fill="#4fbac4"/>
      <path id="Path_631" data-name="Path 631" d="M1195.862,574.406a30.676,30.676,0,0,0,14.737-9.826.437.437,0,0,1,.726.074,10.608,10.608,0,0,0,.705,1.206.44.44,0,0,1-.019.531,31.917,31.917,0,0,1-14.111,9.935.427.427,0,0,0-.2.155l-.3.422-.243.2h-.419l-.2-.221-.938-1.865A.436.436,0,0,1,1195.862,574.406ZM1197.5,560.5a43.107,43.107,0,0,1,3.936,2.676.445.445,0,0,1,.086.618l-.94,1.253a.438.438,0,0,1-.628.074,27.243,27.243,0,0,0-3.735-2.555.437.437,0,0,1-.155-.617l.84-1.307A.442.442,0,0,1,1197.5,560.5Z" transform="translate(-1043.959 -558.04)" fill="#4fbac4"/>
      <path id="Path_632" data-name="Path 632" d="M1225.953,564.914c1.1.539,2.2,1.132,3.434,1.865a.445.445,0,0,0,.624-.178,30.335,30.335,0,0,0,2.21-6.189.439.439,0,0,1,.56-.316l1.932.629c.242.088.331.2.331.375a.708.708,0,0,1-.221.442l-.391.391a.43.43,0,0,0-.1.169,46.5,46.5,0,0,1-2.379,5.793.439.439,0,0,0,.147.555c1.187.8,2.319,1.657,3.489,2.628a.444.444,0,0,1,.023.662l-1.2,1.134a.441.441,0,0,1-.591.007,31.925,31.925,0,0,0-2.906-2.273.439.439,0,0,0-.61.119,21.888,21.888,0,0,1-6.646,6.3.449.449,0,0,1-.581-.1,6.69,6.69,0,0,0-1.164-1.094.437.437,0,0,1,.049-.737,17.743,17.743,0,0,0,6.337-5.69.449.449,0,0,0-.129-.621,29.112,29.112,0,0,0-3.391-1.9.437.437,0,0,1-.178-.64l.8-1.184A.439.439,0,0,1,1225.953,564.914Z" transform="translate(-1045.386 -558.02)" fill="#4fbac4"/>
      <path id="Path_633" data-name="Path 633" d="M1247.59,565.691h16.755a.438.438,0,0,1,.439.439v1.333a.439.439,0,0,1-.439.439H1258.2a.439.439,0,0,0-.435.429c-.145,4.513-1.944,7.546-5.656,9.525a.445.445,0,0,1-.553-.121,9.984,9.984,0,0,0-1.177-1.227.434.434,0,0,1,.105-.719c3.206-1.444,4.686-3.708,4.813-7.432a.444.444,0,0,0-.443-.455h-7.265a.439.439,0,0,1-.439-.439v-1.333A.438.438,0,0,1,1247.59,565.691Zm2.777-5.371h10.3a.439.439,0,0,1,.439.439v1.31a.439.439,0,0,1-.439.439h-10.3a.439.439,0,0,1-.439-.439v-1.31A.439.439,0,0,1,1250.367,560.32Zm13.316,3.656a20.745,20.745,0,0,0-1.989-2.138.434.434,0,0,1-.007-.634l.718-.7a.437.437,0,0,1,.594-.017,24.891,24.891,0,0,1,2.167,2.174.44.44,0,0,1-.034.615l-.813.742A.437.437,0,0,1,1263.682,563.976Zm1.537-2.721a16.267,16.267,0,0,0-1.792-1.905.436.436,0,0,1-.016-.644l.716-.683a.443.443,0,0,1,.585-.021,15.3,15.3,0,0,1,1.985,1.969.443.443,0,0,1-.042.608l-.8.729A.437.437,0,0,1,1265.22,561.255Z" transform="translate(-1046.773 -557.902)" fill="#4fbac4"/>
      <path id="Path_634" data-name="Path 634" d="M1284.028,567.311a13.44,13.44,0,0,1-1.145,1.591c-.3.37-.39.493-.529.678a.436.436,0,0,0-.089.264v8.213a.439.439,0,0,1-.439.439H1280.5a.439.439,0,0,1-.439-.439v-5.118a.438.438,0,0,0-.732-.325c-.5.448-1.12.948-2.068,1.682-.335.258-.5.381-.63.487a.434.434,0,0,1-.563-.017,9.248,9.248,0,0,0-1.108-.849.434.434,0,0,1,.007-.729,23.411,23.411,0,0,0,7.436-7.648.435.435,0,0,1,.628-.143l1.5,1.051a.563.563,0,0,1,.243.376.373.373,0,0,1-.309.331Z" transform="translate(-1048.278 -558.306)" fill="#4fbac4"/>
      <path id="Path_635" data-name="Path 635" d="M1304.78,565.046a.438.438,0,0,1,.439.439v.777a18.646,18.646,0,0,0,3.224-2.814.438.438,0,0,0-.336-.723h-12.169a.439.439,0,0,1-.439-.439v-1.311a.439.439,0,0,1,.439-.439h13.753a.445.445,0,0,0,.172-.035l.494-.211a.436.436,0,0,1,.512.128l1.511,1.865a.81.81,0,0,1,.177.442.528.528,0,0,1-.4.442l-.572.2a25.868,25.868,0,0,1-4.991,4.849.446.446,0,0,1-.609-.069c-.2-.236-.378-.44-.77-.911v1.99a10.65,10.65,0,0,1-4.082,8.349.449.449,0,0,1-.587-.02,8.952,8.952,0,0,0-1.389-1.03.433.433,0,0,1-.04-.722,8.092,8.092,0,0,0,3.651-6.843v-3.474a.438.438,0,0,1,.439-.439Z" transform="translate(-1049.409 -558.03)" fill="#4fbac4"/>
    </g>
    <g id="Group_1075" data-name="Group 1075" transform="translate(507 730.129)">
      <path id="Path_615" data-name="Path 615" d="M741.453,568v-1.133a.439.439,0,0,1,.439-.44h1.59a.438.438,0,0,0,.434-.5l-.272-1.908a.438.438,0,0,0-.434-.377H742.4a.439.439,0,0,1-.439-.439V562.11a.438.438,0,0,1,.439-.439h3.045a.439.439,0,0,0,.439-.44V559.9a.439.439,0,0,1,.439-.44h1.348a.439.439,0,0,1,.439.44v1.332a.439.439,0,0,0,.44.44h2.692a.439.439,0,0,1,.44.439V563.2a.439.439,0,0,1-.44.439h-.616a.439.439,0,0,0-.434.373l-.286,1.908a.439.439,0,0,0,.434.5h1.233a.439.439,0,0,1,.44.44V568a.439.439,0,0,1-.44.44h-3a.438.438,0,0,0-.439.439v.869a.438.438,0,0,0,.439.439h2.406a.438.438,0,0,1,.439.439v1.134a.438.438,0,0,1-.439.439h-1.725a.44.44,0,0,0-.316.745,9.834,9.834,0,0,0,1.605,1.3.444.444,0,0,1,.1.632,7.3,7.3,0,0,0-.62.935.442.442,0,0,1-.691.1c-.177-.17-.313-.308-.443-.451a.438.438,0,0,0-.76.3v3.076a.439.439,0,0,1-.44.439h-1.347a.439.439,0,0,1-.44-.439v-3.1a.438.438,0,0,0-.758-.3,12.477,12.477,0,0,1-2.172,1.83.44.44,0,0,1-.65-.162,4.125,4.125,0,0,0-.74-1.071.439.439,0,0,1,.114-.673,10.458,10.458,0,0,0,3.206-2.426.441.441,0,0,0-.329-.732H742.4a.438.438,0,0,1-.439-.439V570.62a.438.438,0,0,1,.439-.439h3.067a.438.438,0,0,0,.439-.439v-.869a.438.438,0,0,0-.439-.439h-3.574A.439.439,0,0,1,741.453,568Zm4.29-3.85.3,1.908a.439.439,0,0,0,.434.37h.875a.439.439,0,0,0,.435-.376l.271-1.909a.438.438,0,0,0-.434-.5h-1.449A.439.439,0,0,0,745.743,564.146Zm8.614-2.916a14.933,14.933,0,0,0,4.358-1.49.446.446,0,0,1,.508.069l1.14,1.088a.583.583,0,0,1,.2.354c0,.231-.257.362-.754.375a.448.448,0,0,0-.161.033,22.263,22.263,0,0,1-4.6,1.483.442.442,0,0,0-.348.428v2.259a.438.438,0,0,0,.439.439h5.778a.439.439,0,0,1,.439.439v1.135a.439.439,0,0,1-.439.439H759.5a.439.439,0,0,0-.439.439v10.175a.439.439,0,0,1-.439.439h-1.349a.439.439,0,0,1-.439-.439V568.719a.439.439,0,0,0-.439-.439h-1.31a.442.442,0,0,0-.436.415,19.136,19.136,0,0,1-2.944,9.811.444.444,0,0,1-.648.112,4.2,4.2,0,0,0-1.174-.674.441.441,0,0,1-.206-.679,15.192,15.192,0,0,0,2.772-9.361v-6.522a.439.439,0,0,1,.538-.427l1.173.273A.463.463,0,0,0,754.357,561.23Z" transform="translate(-741.453 -559.282)" fill="#4fbac4"/>
      <path id="Path_616" data-name="Path 616" d="M776.9,561.247c.308.044.485.177.485.353a.738.738,0,0,1-.11.333l-.278.5a.445.445,0,0,0-.055.208c-.087,5.52-.13,8.366-.13,10.123v1.082c0,1.7.463,2.321,1.741,2.321a11.949,11.949,0,0,0,3.725-.729,14.973,14.973,0,0,0,4.051-1.935.442.442,0,0,1,.654.2,7.874,7.874,0,0,0,.7,1.248.441.441,0,0,1-.129.6,18.773,18.773,0,0,1-9.174,2.936,4.036,4.036,0,0,1-3.042-1.083,5.762,5.762,0,0,1-.97-3.56v-1.3c0-3.728.041-7.839.12-11.105a.436.436,0,0,1,.492-.421Z" transform="translate(-743.247 -559.367)" fill="#4fbac4"/>
      <path id="Path_617" data-name="Path 617" d="M802.259,562.2c.242.044.374.177.374.354a.807.807,0,0,1-.2.421l-.331.441-.043.287a14.284,14.284,0,0,0-.419,3.515V568.3c0,3.338,1.521,7.229,2.821,7.229.485,0,.794-.529,1.118-1.992a.438.438,0,0,1,.789-.158,11.116,11.116,0,0,0,.931,1.182.45.45,0,0,1,.1.4c-.6,2.43-1.483,3.615-2.722,3.615-1.146,0-2.513-1.15-3.548-2.962a15.379,15.379,0,0,1-1.939-7.449v-1.039a19.894,19.894,0,0,1,.578-5.007.442.442,0,0,1,.516-.324Zm11.06,3.424a27.6,27.6,0,0,1,3.634,6.671.443.443,0,0,1-.373.594,9.341,9.341,0,0,0-1.836.319.446.446,0,0,1-.541-.306,23.481,23.481,0,0,0-2.974-6.295.436.436,0,0,1,.215-.661l1.372-.477A.446.446,0,0,1,813.319,565.62Z" transform="translate(-744.602 -559.409)" fill="#4fbac4"/>
      <path id="Path_618" data-name="Path 618" d="M830.921,571.327v-4.872a.438.438,0,0,0-.439-.439h-1.811a.439.439,0,0,1-.439-.439v-1.112a.439.439,0,0,1,.439-.44h1.811a.438.438,0,0,0,.439-.439v-3.454a.439.439,0,0,1,.44-.44h1.37a.439.439,0,0,1,.439.44v3.454a.438.438,0,0,0,.439.439h1.767a.439.439,0,0,1,.439.44v1.112a.438.438,0,0,1-.439.439h-1.767a.439.439,0,0,0-.439.439v3.985a.44.44,0,0,0,.568.42l1.27-.39a.438.438,0,0,1,.567.443c-.017.262-.035.581-.055.958a.443.443,0,0,1-.284.392l-5.649,2.124a.494.494,0,0,0-.141.086c-.344.306-.452.385-.618.385-.11,0-.242-.155-.286-.332l-.436-1.576a.438.438,0,0,1,.3-.537l2.208-.667A.438.438,0,0,0,830.921,571.327Zm6.549,1.967a17.083,17.083,0,0,1-2.795,2.152.439.439,0,0,1-.57-.09,4.533,4.533,0,0,0-.861-.825.437.437,0,0,1,.04-.733,13.727,13.727,0,0,0,3.779-2.938.442.442,0,0,0-.331-.732h-1.316a.439.439,0,0,1-.439-.439v-1.156a.439.439,0,0,1,.439-.439h12.214a.439.439,0,0,1,.439.439v1.156a.439.439,0,0,1-.439.439h-7.26a.44.44,0,0,0-.345.167c-.076.1-.139.175-.2.248a.439.439,0,0,0,.343.712h7.011a.44.44,0,0,1,.439.447c-.02,1.3-.04,2.432-.06,2.869-.044,3.028-.749,4.2-2.777,4.6l-.751.115a.437.437,0,0,1-.489-.32,7.227,7.227,0,0,0-.458-1.256.438.438,0,0,1,.4-.619h.481c1.215-.083,1.535-.726,1.582-3.465a.441.441,0,0,0-.439-.447H844.5a.435.435,0,0,0-.4.271,13.456,13.456,0,0,1-5.067,5.945.45.45,0,0,1-.547-.04,5.462,5.462,0,0,0-.886-.687.435.435,0,0,1-.008-.745,12.308,12.308,0,0,0,4.141-4.077.442.442,0,0,0-.379-.667h-.322a.443.443,0,0,0-.371.208,13.185,13.185,0,0,1-5.013,4.7.448.448,0,0,1-.564-.087,5.181,5.181,0,0,0-.754-.729.439.439,0,0,1,.075-.733,9.83,9.83,0,0,0,4.16-3.363h-.8A.457.457,0,0,0,837.47,573.294Zm.282-13.4h7.937a.438.438,0,0,1,.439.439v6.66a.438.438,0,0,1-.439.439h-7.937a.438.438,0,0,1-.439-.439v-6.66A.438.438,0,0,1,837.752,559.893Zm1.676,2.273v.162a.439.439,0,0,0,.439.439H843.6a.439.439,0,0,0,.439-.439v-.162a.439.439,0,0,0-.439-.439h-3.729A.439.439,0,0,0,839.428,562.166Zm0,2.719v.272a.439.439,0,0,0,.439.439H843.6a.439.439,0,0,0,.439-.439v-.272a.438.438,0,0,0-.439-.439h-3.729A.438.438,0,0,0,839.428,564.886Z" transform="translate(-746.177 -559.295)" fill="#4fbac4"/>
      <path id="Path_619" data-name="Path 619" d="M868.03,564.831v6.483a.438.438,0,0,1-.439.439H865.8v-.53h-2.825a.441.441,0,0,0-.434.4,17.544,17.544,0,0,1-1.827,6.477.443.443,0,0,1-.686.123,5.445,5.445,0,0,0-1.21-.826.44.44,0,0,1-.181-.612,12.6,12.6,0,0,0,1.72-6.486v-5.463a.439.439,0,0,1,.439-.439h6.792A.439.439,0,0,1,868.03,564.831Zm-8.509-4.484h8.334a.439.439,0,0,1,.44.439v1.135a.439.439,0,0,1-.44.439h-8.334a.439.439,0,0,1-.439-.439v-1.135A.439.439,0,0,1,859.521,560.347Zm3.11,6.474v2a.439.439,0,0,0,.439.439h2.3a.438.438,0,0,0,.439-.439v-2a.439.439,0,0,0-.439-.439h-2.3A.439.439,0,0,0,862.63,566.82Zm8.471-5.342a25.165,25.165,0,0,0,5.175-1.534.446.446,0,0,1,.464.08l1.273,1.163a.435.435,0,0,1,.131.309c0,.2-.154.265-.75.309a26.4,26.4,0,0,1-5.675,1.412.439.439,0,0,0-.385.433v2.05a.438.438,0,0,0,.439.439h6.263a.439.439,0,0,1,.439.439v1.135a.439.439,0,0,1-.439.439H876.69a.438.438,0,0,0-.439.439v10.352a.439.439,0,0,1-.439.439h-1.349a.439.439,0,0,1-.439-.439V568.589a.438.438,0,0,0-.439-.439H871.7a.437.437,0,0,0-.433.4,14.8,14.8,0,0,1-5.058,10.3.447.447,0,0,1-.607-.012,7.045,7.045,0,0,0-1.157-.931.439.439,0,0,1-.026-.713,11.546,11.546,0,0,0,4.674-9.891v-5.72a.439.439,0,0,1,.542-.426l1.281.31A.464.464,0,0,0,871.1,561.479Z" transform="translate(-747.84 -559.307)" fill="#4fbac4"/>
      <path id="Path_620" data-name="Path 620" d="M891.464,578.516a.446.446,0,0,1-.43-.336,32.462,32.462,0,0,1-1.06-8.065v-.84a31.343,31.343,0,0,1,1.166-8.26.444.444,0,0,1,.521-.316l1.928.42c.22.044.353.176.353.332a.735.735,0,0,1-.177.353l-.308.443a25.032,25.032,0,0,0-1.036,7.1v.862a26.274,26.274,0,0,0,1.21,7.743.437.437,0,0,1-.414.568Zm6.8-7.017a.436.436,0,0,1,.229.633,3.634,3.634,0,0,0-.589,1.875c0,.972.992,1.547,2.666,1.547h1.808a24.3,24.3,0,0,0,4.608-.509.44.44,0,0,1,.507.556,12.463,12.463,0,0,0-.288,1.368,3.564,3.564,0,0,1-.066.42,25.542,25.542,0,0,1-4.694.375H900.4c-3,0-4.914-1.393-4.914-3.536a5.645,5.645,0,0,1,.955-3.015.442.442,0,0,1,.524-.182Zm2.218-7.815a24.443,24.443,0,0,0,5.525-.6.437.437,0,0,1,.533.489c-.068.447-.116.893-.15,1.3a.432.432,0,0,1-.348.4,31.994,31.994,0,0,1-5.362.62h-.97a23.958,23.958,0,0,1-2.815-.265.434.434,0,0,1-.363-.419,6.51,6.51,0,0,0-.125-1.214.439.439,0,0,1,.5-.518,20.415,20.415,0,0,0,2.958.205Z" transform="translate(-749.552 -559.349)" fill="#4fbac4"/>
      <path id="Path_621" data-name="Path 621" d="M920.069,570.145h1.37a.438.438,0,0,1,.439.439v4.759a.439.439,0,0,0,.44.439h4.147a.439.439,0,0,0,.439-.439v-6.4a.439.439,0,0,0-.439-.439h-4.145v.729h-1.787a.439.439,0,0,1-.44-.439v-7.743a.439.439,0,0,1,.44-.439h1.348a.439.439,0,0,1,.439.439v5a.438.438,0,0,0,.439.439h3.706a.438.438,0,0,0,.439-.439V560.04a.439.439,0,0,1,.439-.439h1.349a.439.439,0,0,1,.439.439v6.019a.438.438,0,0,0,.439.439H933.3a.438.438,0,0,0,.439-.439v-5a.439.439,0,0,1,.439-.439h1.348a.439.439,0,0,1,.439.439V568.8a.438.438,0,0,1-.439.439h-1.787v-.729h-4.168a.439.439,0,0,0-.439.439v6.4a.439.439,0,0,0,.439.439h4.17a.439.439,0,0,0,.439-.439v-4.759a.439.439,0,0,1,.439-.439h1.371a.439.439,0,0,1,.439.439v8.186a.439.439,0,0,1-.439.439h-1.371a.439.439,0,0,1-.439-.439v-.56a.439.439,0,0,0-.439-.439h-11.42a.439.439,0,0,0-.44.439v.56a.438.438,0,0,1-.439.439h-1.37a.439.439,0,0,1-.439-.439v-8.186A.439.439,0,0,1,920.069,570.145Z" transform="translate(-751.169 -559.29)" fill="#4fbac4"/>
      <path id="Path_622" data-name="Path 622" d="M958.748,559.671c.22.066.374.177.374.332s-.11.287-.418.464a21.715,21.715,0,0,0,8.462,6.7.435.435,0,0,1,.129.715,7.244,7.244,0,0,0-.944,1.041.441.441,0,0,1-.571.129,21.475,21.475,0,0,1-2.5-1.538.44.44,0,0,0-.7.356v.1a.439.439,0,0,1-.439.44h-8.93a.439.439,0,0,1-.439-.44v-.711a23.354,23.354,0,0,1-3.355,2.416.442.442,0,0,1-.585-.111,7.667,7.667,0,0,0-.9-1.036.436.436,0,0,1,.1-.7,20.158,20.158,0,0,0,8.575-8.319.434.434,0,0,1,.482-.222ZM953,576.3l1.671-3.076a.438.438,0,0,0-.385-.648h-5.458a.439.439,0,0,1-.439-.439v-1.134a.439.439,0,0,1,.439-.439h17.591a.439.439,0,0,1,.44.439v1.134a.439.439,0,0,1-.44.439h-8.542a.44.44,0,0,0-.38.219l-1.641,2.843a.439.439,0,0,0,.412.657l4.323-.315a.44.44,0,0,0,.286-.74c-.313-.333-.539-.559-.928-.919a.441.441,0,0,1,.027-.671l.927-.717a.445.445,0,0,1,.567.026,31.332,31.332,0,0,1,4.157,4.416.441.441,0,0,1-.051.605l-1.137,1a.44.44,0,0,1-.657-.089c-.291-.44-.446-.655-.825-1.147a.441.441,0,0,0-.4-.169l-10.993,1.3a.462.462,0,0,0-.263.13.684.684,0,0,1-.443.241c-.132,0-.286-.154-.4-.4l-.688-1.527a.439.439,0,0,1,.368-.618l2.505-.181A.439.439,0,0,0,953,576.3Zm7.836-10.684a17.51,17.51,0,0,1-2.922-3.161.441.441,0,0,0-.709,0,24.6,24.6,0,0,1-2.695,3.182.439.439,0,0,0,.313.746h5.726A.439.439,0,0,0,960.836,565.621Z" transform="translate(-752.706 -559.272)" fill="#4fbac4"/>
      <path id="Path_623" data-name="Path 623" d="M979.125,577.9a5.94,5.94,0,0,0-.995-1,.434.434,0,0,1-.03-.656l8.971-8.574a.438.438,0,0,0-.352-.752,61.173,61.173,0,0,1-6.283.4.441.441,0,0,1-.445-.4l-.135-1.394a.439.439,0,0,1,.437-.48,74.567,74.567,0,0,0,9.33-.521.443.443,0,0,0,.116-.033l.605-.263,1.477,1.569a.529.529,0,0,1,.11.31.509.509,0,0,1-.353.463l-.507.221-4.165,4.046a1.85,1.85,0,0,1,.55-.089c.926,0,1.455.995,1.455,2.7V575.7c.022.707.286.84,1.432.861h2.005a14.686,14.686,0,0,0,2.626-.222.437.437,0,0,1,.476.61,8.976,8.976,0,0,0-.495,1.457.44.44,0,0,1-.426.344h-4.848c-2.027-.022-3.019-.752-3.041-2.255v-2.918c0-.862-.242-1.26-.749-1.26a1.345,1.345,0,0,0-.926.443l-5.2,5.169A.435.435,0,0,1,979.125,577.9Zm4.816-18.17a29.5,29.5,0,0,0,6.179.717.436.436,0,0,1,.421.535,5.964,5.964,0,0,0-.132,1.206.441.441,0,0,1-.45.423,36.811,36.811,0,0,1-6.3-.625.444.444,0,0,1-.355-.469l.108-1.4A.435.435,0,0,1,983.941,559.726Z" transform="translate(-754.35 -559.296)" fill="#4fbac4"/>
      <path id="Path_624" data-name="Path 624" d="M1006.153,570.867a79.816,79.816,0,0,0,8.233-6.956.443.443,0,0,0-.334-.756c-1.933.093-3.66.2-5.51.354a.44.44,0,0,1-.474-.39l-.181-1.7a.436.436,0,0,1,.5-.479,19.87,19.87,0,0,0,2.99.192h3.482a9.489,9.489,0,0,0,3.214-.536.441.441,0,0,1,.514.146l1.077,1.452a.892.892,0,0,1,.154.419c0,.221-.132.333-.485.4a3.414,3.414,0,0,0-1.587.885l-3.113,2.734a.437.437,0,0,0,.35.761,8.8,8.8,0,0,1,1.287-.092c3.57,0,5.6,1.88,5.6,5.173,0,3.957-3.108,6.477-7.956,6.477-2.843,0-4.562-1.194-4.562-3.162,0-1.768,1.454-2.962,3.548-2.962,2.005,0,3.459,1.017,3.459,2.454a3.254,3.254,0,0,1-.043.548.442.442,0,0,0,.6.473,3.819,3.819,0,0,0,2.461-3.74c0-2.055-1.124-3.227-3.086-3.227a11.428,11.428,0,0,0-4.165.907,13.2,13.2,0,0,0-4.267,2.84.442.442,0,0,1-.656-.056l-1.143-1.549A.436.436,0,0,1,1006.153,570.867Zm8.088,4.989c0-.6-.617-.995-1.587-.995-.727,0-1.212.332-1.212.862,0,.619.507,1.017,1.521,1.15.111.014.423.027.64.036a.416.416,0,0,0,.358-.163A1.49,1.49,0,0,0,1014.24,575.856Z" transform="translate(-755.878 -559.343)" fill="#4fbac4"/>
    </g>
  </g>
</svg>
